<svg width="32" height="32" viewBox="0 0 32 32" fill="none" xmlns="http://www.w3.org/2000/svg">
<path d="M14.1712 20.6982L13.7709 22.4995L9.7296 27.8848C9.60597 28.0502 9.4402 28.1794 9.2496 28.2588L9.2368 28.264L9.21568 28.2726C9.02525 28.3487 8.81786 28.3723 8.6152 28.3408C8.41255 28.3094 8.22207 28.224 8.06368 28.0937C7.90086 27.9634 7.7761 27.7916 7.70246 27.5965C7.62882 27.4014 7.60902 27.19 7.64512 26.9846C7.65869 26.9036 7.67653 26.8234 7.69856 26.7443C7.73734 26.609 7.80057 26.482 7.88512 26.3696L11.2429 21.8812C11.4897 21.5517 11.6402 21.1601 11.6774 20.75C11.6774 20.7417 11.6774 20.7334 11.6774 20.7251L11.713 17.807L14.1712 20.6982Z" fill="#232323"/>
<path d="M19.328 21.9671V27.1427C19.3232 27.2112 19.2611 27.928 18.6899 28.1712C18.4732 28.2595 18.2315 28.2643 18.0115 28.1847C17.6528 28.0615 17.0515 27.7834 17.0627 27.305L17.0829 26.4048V23.9543C17.0824 23.4267 16.8947 22.9164 16.5533 22.5143L11.84 16.9655C11.8634 16.9363 11.8864 16.9056 11.9098 16.8733C12.5468 16.8607 13.1798 16.7702 13.7949 16.6039C14.5853 16.3879 15.2643 16.0544 15.8141 15.6163C15.6936 16.0668 15.6886 16.5404 15.7993 16.9933C15.9101 17.4462 16.1332 17.864 16.448 18.208L18.912 20.896C19.18 21.1882 19.3285 21.5705 19.328 21.9671Z" fill="#232323"/>
<path d="M18.6515 7.11045C19.8425 7.11045 20.808 6.14553 20.808 4.95525C20.808 3.76496 19.8425 2.80005 18.6515 2.80005C17.4605 2.80005 16.495 3.76496 16.495 4.95525C16.495 6.14553 17.4605 7.11045 18.6515 7.11045Z" fill="#232323"/>
<path d="M23.833 13.7212H23.8506C24.1298 13.7268 24.3968 13.8365 24.5994 14.0288C24.6634 13.8777 24.647 13.735 24.5526 13.5833C24.4775 13.4682 24.3745 13.3739 24.2532 13.3092C24.132 13.2444 23.9963 13.2112 23.8589 13.2128H21.2928C21.0804 13.213 20.8712 13.1605 20.684 13.06C20.4968 12.9595 20.3376 12.814 20.2205 12.6368L18.0042 9.29564C17.8005 8.98442 17.5274 8.72471 17.2064 8.53692C16.7754 8.28956 16.3328 8.22076 15.8912 8.33308C15.6037 8.40845 15.339 8.55313 15.1203 8.75446C14.9016 8.95578 14.7356 9.20763 14.6368 9.48796L14.304 10.4092L12.1984 16.2208C12.6864 16.19 13.1701 16.1099 13.6419 15.9817C14.952 15.6201 15.8714 14.9372 16.3747 13.9529L16.7795 12.7689C16.6083 12.4867 16.4685 12.2601 16.3341 12.0473L15.9853 11.4947C15.94 11.4229 15.925 11.3361 15.9437 11.2533C15.9624 11.1705 16.0132 11.0986 16.085 11.0532C16.1567 11.0079 16.2435 10.993 16.3263 11.0117C16.4091 11.0303 16.4811 11.0812 16.5264 11.1529L16.8752 11.7056C17.0195 11.934 17.1696 12.1776 17.3552 12.4867C17.396 12.5256 17.4256 12.5748 17.441 12.6291C17.5436 12.7997 17.6458 12.9704 17.7475 13.1411C17.8493 13.3117 17.9536 13.4855 18.0605 13.6624C18.08 13.6944 18.1005 13.7264 18.121 13.7558C18.2904 13.9948 18.5152 14.1893 18.7761 14.3227C19.0369 14.4561 19.3262 14.5244 19.6192 14.5219H22.7584C22.8275 14.2906 22.9694 14.0877 23.163 13.9434C23.3566 13.7992 23.5915 13.7213 23.833 13.7212Z" fill="#232323"/>
<path d="M23.833 29.2C23.7057 29.2 23.5836 29.1495 23.4935 29.0595C23.4035 28.9694 23.353 28.8474 23.353 28.72V14.8413C23.353 14.714 23.4035 14.5919 23.4935 14.5019C23.5836 14.4119 23.7057 14.3613 23.833 14.3613H23.84C23.966 14.3637 24.086 14.4153 24.1746 14.5049C24.2631 14.5946 24.3131 14.7153 24.3139 14.8413V28.72C24.3139 28.7832 24.3015 28.8457 24.2773 28.904C24.2531 28.9623 24.2177 29.0152 24.173 29.0598C24.1283 29.1044 24.0753 29.1397 24.0169 29.1638C23.9586 29.1879 23.8961 29.2002 23.833 29.2Z" fill="#232323"/>
<path d="M23.8589 12.5728C24.013 12.573 24.1662 12.597 24.313 12.6442V10.0093C24.313 9.88199 24.2624 9.7599 24.1724 9.66989C24.0824 9.57987 23.9603 9.5293 23.833 9.5293C23.7057 9.5293 23.5836 9.57987 23.4935 9.66989C23.4035 9.7599 23.353 9.88199 23.353 10.0093V12.5728H23.8589Z" fill="#232323"/>
<path d="M13.5866 10.5082L11.4477 16.4132C11.3904 16.5063 11.3228 16.5928 11.2461 16.6708C11.245 16.6717 11.2438 16.6724 11.2426 16.673C11.2344 16.6778 11.2265 16.683 11.2189 16.6887C11.2133 16.6923 11.2079 16.6964 11.2029 16.7008L11.1978 16.705H11.1962L11.1843 16.7159L11.1715 16.7287C11.1664 16.7341 11.1616 16.7396 11.1568 16.7453C11.0662 16.8093 10.9805 16.8311 10.9056 16.8048C10.7938 16.7658 10.6822 16.7264 10.5709 16.6868C10.3306 16.6013 10.0822 16.513 9.83488 16.4308L8.33088 15.9415C8.21644 15.9039 8.09999 15.8727 7.98208 15.848C7.53184 15.7552 7.4128 15.6173 7.3824 15.5623C7.3718 15.5423 7.36572 15.5203 7.36462 15.4977C7.36351 15.4751 7.3674 15.4526 7.376 15.4317L7.3792 15.4234C7.3984 15.3722 7.41792 15.3194 7.43648 15.2634L9.39904 9.30371L13.5866 10.5082Z" fill="#232323"/>
<path d="M14.24 8.70398C14.2236 8.7531 14.2193 8.80548 14.2275 8.85662C14.1514 8.98846 14.0871 9.12682 14.0355 9.27006L13.8054 9.90494L9.59808 8.69854L9.98016 7.53854C10.0598 7.29694 10.1229 7.0515 10.184 6.81406L10.2003 6.75006C10.2206 6.6756 10.2658 6.61033 10.3283 6.5651C10.3904 6.51863 10.4622 6.48701 10.5384 6.4727C10.6146 6.45838 10.693 6.46175 10.7677 6.48254L13.2909 7.1491C13.2968 7.15083 13.3028 7.15222 13.3088 7.15326C13.7248 7.23838 14.0147 7.41406 14.1674 7.67582C14.4246 8.12062 14.2416 8.6995 14.24 8.70398Z" fill="#232323"/>
</svg>
