<svg width="28" height="28" viewBox="0 0 28 28" fill="none" xmlns="http://www.w3.org/2000/svg">
<g clip-path="url(#clip0_391_490)">
<path d="M24.6778 19.3899C29.1075 14.9601 29.1074 7.7522 24.6778 3.32237C20.2479 -1.10746 13.0401 -1.10746 8.61036 3.32237C4.85225 7.08048 4.28309 12.6697 6.90134 17.0344C6.90134 17.0344 7.0894 17.3499 6.8354 17.6037C5.38633 19.0527 1.03885 23.4003 1.03885 23.4003C-0.114899 24.5539 -0.38956 26.1672 0.633583 27.1905L0.809745 27.3665C1.83289 28.3898 3.44621 28.1152 4.59987 26.9615C4.59987 26.9615 8.93815 22.6231 10.3842 21.1771C10.6504 20.9109 10.9659 21.099 10.9659 21.099C15.3304 23.7171 20.9196 23.1481 24.6778 19.3899ZM10.7079 17.2923C7.43469 14.0191 7.43478 8.69335 10.708 5.42016C13.9812 2.14706 19.307 2.14697 22.5801 5.42016C25.8532 8.69326 25.8532 14.0191 22.5801 17.2923C19.3069 20.5653 13.9812 20.5653 10.7079 17.2923Z" fill="#595959"/>
<path d="M11.4329 10.682C11.2805 10.682 11.1257 10.652 10.9764 10.589C10.3801 10.3366 10.1011 9.64857 10.3535 9.05216C11.9397 5.30353 16.2799 3.54435 20.0284 5.13061C20.6248 5.38299 20.9038 6.07104 20.6514 6.66745C20.3989 7.26385 19.711 7.54266 19.1144 7.29037C16.5569 6.20815 13.5954 7.40844 12.5133 9.96598C12.324 10.4133 11.8898 10.682 11.4329 10.682Z" fill="#595959"/>
</g>
<defs>
<clipPath id="clip0_391_490">
<rect width="28" height="28" fill="white"/>
</clipPath>
</defs>
</svg>
