<svg width="196" height="50" viewBox="0 0 196 50" fill="none" xmlns="http://www.w3.org/2000/svg">
<path d="M3.45383 0V6.92056H30.7358L0 47.253H1.6929H43.4167V40.333H14.3394L44.4155 0H3.45383Z" fill="black"/>
<path d="M101.204 44.1689C101.204 43.7893 101.115 43.3933 100.93 43.0206L81.4722 3.85039C80.8375 2.57129 79.8984 1.60345 78.8132 0.962645C77.7271 0.319688 76.496 0 75.2638 0C74.0218 0 72.7782 0.324883 71.6854 0.97877C70.5935 1.62997 69.6522 2.61286 69.0232 3.90953L50.0512 43.043C49.8732 43.4116 49.7885 43.8008 49.7885 44.1766C49.7895 44.8632 50.0621 45.5087 50.5245 45.9879C50.9805 46.4635 51.6386 46.7769 52.3892 46.7769H53.9709L54.1794 46.7649H88.4552L85.0263 39.9187H58.9774L73.7356 9.96063L73.7367 9.95902C73.9054 9.6155 74.1585 9.35567 74.4414 9.1883L74.4431 9.18722C74.7309 9.01662 75.0586 8.93043 75.3912 8.93043C75.7219 8.93043 76.0491 9.01663 76.3369 9.18615L76.3391 9.18668C76.6217 9.35351 76.874 9.61192 77.0424 9.95436L91.0187 38.0783L95.3697 46.7643H96.7566L96.7696 46.7654L96.9654 46.7764H98.6048C99.3529 46.7764 100.012 46.4629 100.468 45.9874C100.93 45.5082 101.204 44.8627 101.204 44.1771V44.1689Z" fill="#F7CE46"/>
<path d="M106.577 47.253H107.415H113.905V25.5387H132.142V18.6181H113.905V6.92056H144.064V0H106.577V47.253Z" fill="black"/>
<path d="M190.944 24.2845C188.091 21.691 184.244 20.1494 179.502 19.6134C177.904 19.4186 175.679 19.2387 172.812 19.0735H172.816C169.737 18.8832 167.209 18.5656 165.251 18.1316C163.296 17.7039 161.914 17.143 161.144 16.5604C160.475 16.0381 160.01 15.5043 159.722 14.9701C159.433 14.4341 159.288 13.8556 159.287 13.1815C159.29 12.3323 159.513 11.5947 159.982 10.8867C160.451 10.181 161.185 9.50637 162.222 8.88617C164.283 7.65025 166.956 7.00318 170.289 7.00318C173.463 7.00318 176.545 7.55618 179.55 8.66433C182.554 9.77302 185.423 11.4238 188.165 13.6295L188.861 14.1898L193.147 8.07961L192.488 7.59363C189.094 5.09671 185.501 3.20332 181.719 1.92206C177.937 0.642957 174.096 -0.000535987 170.208 1.60183e-06C164.859 -0.00161117 160.416 1.21459 156.968 3.70847C155.248 4.9512 153.927 6.39033 153.04 8.02406C152.152 9.65546 151.71 11.4752 151.711 13.4295C151.708 15.5912 152.312 17.5879 153.507 19.3312C154.702 21.0823 156.442 22.4904 158.663 23.5563L158.671 23.56L158.68 23.5636C160.151 24.2309 162.16 24.7675 164.753 25.2165C167.343 25.6629 170.514 26.0163 174.275 26.2793H174.279L174.287 26.2799C175.792 26.3619 176.939 26.4445 177.713 26.5246L177.722 26.5252L177.729 26.5257C180.954 26.7929 183.397 27.6219 185.107 28.9363C185.967 29.5959 186.583 30.3198 186.992 31.1146C187.398 31.9104 187.604 32.7845 187.606 33.781C187.604 35.0544 187.312 36.1724 186.73 37.1936C186.146 38.2129 185.261 39.1438 184.033 39.9816C181.581 41.6512 178.345 42.5186 174.252 42.519C170.949 42.519 167.608 41.8803 164.214 40.5923C160.818 39.3033 157.544 37.4354 154.386 34.9754L153.676 34.4234L149.437 40.7342L150.057 41.215C153.643 43.9911 157.434 46.0612 161.42 47.4141C165.405 48.767 169.715 49.4396 174.334 49.4396C180.453 49.4412 185.5 48.0316 189.377 45.1455C191.309 43.7092 192.789 42.0483 193.781 40.1687C194.773 38.2898 195.266 36.1995 195.266 33.9457C195.266 32.0518 194.906 30.2804 194.18 28.6598C193.453 27.0397 192.366 25.5767 190.944 24.2845Z" fill="black"/>
</svg>
