<svg width="32" height="32" viewBox="0 0 32 32" fill="none" xmlns="http://www.w3.org/2000/svg">
<path d="M16 5.25684C10.0669 5.25684 5.25687 10.0668 5.25687 16C5.25687 18.3718 6.02625 20.5643 7.32812 22.3418L5.9575 26.3937L10.2269 25.0606C11.8944 26.125 13.875 26.7425 16 26.7425C21.9331 26.7425 26.7431 21.9325 26.7431 15.9993C26.7431 10.0662 21.9331 5.25684 16 5.25684Z" fill="#4CAF50"/>
<path d="M15.1056 17.7912C14.4531 17.295 12.9025 15.4431 12.945 15.0687C12.9875 14.6944 14.0906 13.9031 14.08 13.4606C14.0694 13.0181 13.0856 10.1675 12.1919 10.1587C11.2981 10.15 9.65625 11.1687 9.76937 13.1881C9.8825 15.2075 11.5619 17.9306 14.1031 19.8594C16.6444 21.7881 18.97 22.5444 20.9219 21.7656C22.6494 21.0762 22.675 19.2981 22.4362 18.9919C22.1981 18.6856 19.81 17.5 19.3731 17.585C18.9362 17.67 18.4794 19.0512 17.7906 19.145C17.1019 19.2375 15.7581 18.2875 15.1056 17.7912Z" fill="white"/>
</svg>
