<svg width="110" height="64" viewBox="0 0 110 64" fill="none" xmlns="http://www.w3.org/2000/svg">
<g clip-path="url(#clip0_308_2368)">
<path d="M2.92853 18V21.862H18.1621L1 44.3694H1.94527H25.2428V40.5077H9.00677L25.8005 18H2.92853Z" fill="white"/>
<path d="M57.51 42.6483C57.51 42.4365 57.4601 42.2155 57.3571 42.0075L46.4922 20.1487C46.1378 19.4349 45.6134 18.8948 45.0075 18.5372C44.401 18.1784 43.7136 18 43.0256 18C42.3321 18 41.6377 18.1813 41.0275 18.5462C40.4178 18.9096 39.8922 19.4581 39.541 20.1817L28.9475 42.02C28.8481 42.2257 28.8008 42.4429 28.8008 42.6526C28.8014 43.0358 28.9536 43.396 29.2118 43.6634L29.2121 43.664C29.4667 43.9294 29.8339 44.1037 30.253 44.1037H31.1362L31.2526 44.097H50.3913L48.4767 40.2765H33.9317L42.1723 23.5585L42.1729 23.5576C42.2671 23.3659 42.4084 23.2209 42.5664 23.1275L42.5673 23.1269C42.728 23.0317 42.911 22.9836 43.0967 22.9836C43.2814 22.9836 43.4641 23.0317 43.6248 23.1263L43.626 23.1266C43.7838 23.2197 43.9247 23.3639 44.0187 23.555L44.0193 23.5553L51.8227 39.2495L54.2522 44.0967H55.0266L55.0339 44.0973L55.1432 44.1034H56.0586C56.4763 44.1034 56.8446 43.9285 57.099 43.6631L57.0996 43.6625C57.3577 43.3951 57.51 43.0355 57.51 42.6529V42.6483Z" fill="#F7CE46"/>
<path d="M60.5098 44.3694H60.9776H64.6018V32.2518H74.7845V28.3898H64.6018V21.862H81.4419V18H60.5098V44.3694Z" fill="white"/>
<path d="M107.618 31.5519C106.025 30.1046 103.877 29.2443 101.229 28.9452C100.337 28.8365 99.0946 28.7361 97.4936 28.6439H97.4956C95.7765 28.5377 94.3648 28.3605 93.2716 28.1183C92.1802 27.8796 91.4081 27.5666 90.9785 27.2415C90.6046 26.95 90.3453 26.6521 90.1846 26.354C90.0231 26.0549 89.9422 25.7321 89.9413 25.3559C89.943 24.882 90.0677 24.4704 90.3294 24.0753C90.5913 23.6815 91.0014 23.305 91.5801 22.9589C92.731 22.2692 94.2236 21.9081 96.0848 21.9081C97.8573 21.9081 99.5781 22.2167 101.256 22.8351C102.933 23.4538 104.535 24.375 106.066 25.6059L106.455 25.9186L108.848 22.5088L108.48 22.2376C106.585 20.8442 104.579 19.7876 102.467 19.0726C100.355 18.3588 98.2103 17.9997 96.0393 18C93.0526 17.9991 90.5719 18.6778 88.6468 20.0695C87.6865 20.763 86.9486 21.5661 86.4532 22.4778C85.9575 23.3882 85.7107 24.4037 85.7112 25.4943C85.7098 26.7006 86.0471 27.8149 86.7142 28.7877C87.3816 29.7649 88.3527 30.5507 89.5932 31.1455L89.5973 31.1476L89.6025 31.1496C90.4242 31.522 91.5458 31.8214 92.9935 32.072C94.4399 32.3211 96.2104 32.5183 98.3103 32.6651H98.3126L98.3173 32.6654C99.1573 32.7112 99.798 32.7573 100.23 32.802L100.235 32.8023L100.239 32.8026C102.04 32.9517 103.404 33.4143 104.359 34.1478C104.839 34.5159 105.183 34.9199 105.411 35.3634C105.638 35.8075 105.753 36.2953 105.754 36.8514C105.753 37.562 105.59 38.1859 105.265 38.7558C104.939 39.3246 104.445 39.8441 103.759 40.3116C102.39 41.2433 100.583 41.7274 98.2976 41.7276C96.4534 41.7276 94.5879 41.3712 92.6927 40.6524C90.7966 39.9331 88.9682 38.8907 87.2047 37.5179L86.8085 37.2099L84.4414 40.7316L84.7877 40.9999C86.7902 42.5491 88.9067 43.7043 91.1325 44.4593C93.3578 45.2143 95.7643 45.5896 98.3431 45.5896C101.76 45.5905 104.578 44.8039 106.743 43.1933C107.822 42.3918 108.648 41.4649 109.202 40.416C109.756 39.3675 110.031 38.201 110.031 36.9433C110.031 35.8864 109.83 34.8979 109.425 33.9935C109.019 33.0894 108.412 32.273 107.618 31.5519Z" fill="white"/>
</g>
<defs>
<clipPath id="clip0_308_2368">
<rect width="110" height="64" fill="white"/>
</clipPath>
</defs>
</svg>
