<svg width="26" height="26" viewBox="0 0 26 26" fill="none" xmlns="http://www.w3.org/2000/svg">
<path d="M11.466 18.5695C11.5294 18.3981 11.5619 18.2226 11.5619 18.0499C11.5619 17.46 11.2133 16.9291 10.6738 16.6963C9.74513 16.2884 9.18695 15.3057 9.31451 14.3055L9.52129 12.6744C9.41567 12.7057 9.30598 12.7284 9.19142 12.7358C8.65192 12.7691 8.15913 12.5209 7.86745 12.0683C7.74638 11.8802 7.54813 11.7717 7.32429 11.7705H7.32063C7.09842 11.7705 6.90057 11.8769 6.77829 12.063L1.97357 19.3475H11.1743L11.466 18.5695Z" fill="black"/>
<path d="M19.5187 13.3727C19.3111 13.3645 19.1189 13.4543 18.9897 13.6156L18.0631 14.7698L19.1189 16.5922C19.2314 16.7864 19.1652 17.035 18.971 17.1475C18.7764 17.2597 18.5282 17.1934 18.4157 16.9997L17.2201 14.9363C17.2201 14.9363 17.2181 14.9327 17.2168 14.9306L13.3099 8.1881C13.1868 7.97563 12.9699 7.85457 12.7209 7.86432C12.4751 7.87407 12.2655 8.013 12.1598 8.23522L10.4447 11.8468L10.1201 14.4078C10.0376 15.0533 10.3988 15.6879 10.9976 15.9511C11.8328 16.3111 12.3739 17.1353 12.3739 18.0498C12.3739 18.3188 12.3244 18.5889 12.2269 18.853L12.0416 19.3474H24.0024L20.0297 13.6509C19.9115 13.4815 19.725 13.38 19.5183 13.3731L19.5187 13.3727Z" fill="black"/>
</svg>
