<svg width="24" height="24" viewBox="0 0 24 24" fill="none" xmlns="http://www.w3.org/2000/svg">
<g clip-path="url(#clip0_245_983)">
<path d="M2.95498 23.854L4.51358 23.2901C5.19748 23.0426 5.94608 23.0426 6.62998 23.2901L8.08077 23.8151C8.76467 24.0626 9.51327 24.0626 10.1972 23.8151L11.648 23.2901C12.3319 23.0426 13.0805 23.0426 13.7644 23.2901L15.2151 23.8151C15.899 24.0626 16.6476 24.0626 17.3315 23.8151L18.7823 23.2901C19.4662 23.0426 20.2148 23.0426 20.8987 23.2901L22.4573 23.854C22.733 23.9538 23.0465 23.8727 23.2275 23.6421C23.7337 22.9962 23.707 21.9841 22.8876 21.4619C19.9495 19.5593 16.4559 18.1399 12.7069 18.1549C8.95826 18.1399 5.4642 19.5588 2.52608 21.4619C1.7067 21.9837 1.67998 22.9962 2.18623 23.6421C2.36717 23.8727 2.68077 23.9538 2.95639 23.854H2.95498Z" fill="black"/>
<path d="M5.15531 4.49232C5.31374 3.17373 5.64046 1.89404 6.12937 0.675293C2.82937 2.08436 0.658118 5.32061 0.439212 8.67873C0.42515 8.90326 0.506712 9.13154 0.662806 9.31623C0.824525 9.50748 0.986243 9.6992 1.14796 9.89232C1.3739 10.1609 1.72452 10.3039 2.05687 10.257C2.93671 10.1333 3.81421 9.99311 4.68796 9.83654C5.00952 9.77936 5.25843 9.54264 5.33999 9.22295C5.02593 7.65826 4.96546 6.07811 5.15577 4.49186L5.15531 4.49232Z" fill="black"/>
<path d="M17.4591 4.37396C15.6698 1.52396 12.2213 -0.291035 8.64844 0.038496C10.8938 1.90881 12.5428 4.36272 13.4067 7.18318C13.6308 7.426 13.9617 7.51506 14.272 7.41287C15.1153 7.13537 15.9539 6.84146 16.7869 6.53162C17.1009 6.41443 17.3419 6.12193 17.4131 5.77834C17.4638 5.53178 17.5148 5.28615 17.5664 5.041C17.6156 4.80428 17.5791 4.56475 17.46 4.37396H17.4591Z" fill="black"/>
<path d="M12.5133 17.4384L10.2769 8.5973C10.7883 8.46184 11.2978 8.32121 11.8059 8.17449C12.1275 8.08121 12.3731 7.80184 12.4434 7.45355C12.4537 7.40387 12.4636 7.35418 12.4739 7.30449C11.557 4.4559 9.78375 2.00527 7.3889 0.256836C7.38093 0.258711 7.3725 0.260586 7.36453 0.26293C7.35656 0.264805 7.34812 0.267148 7.34015 0.269492C6.06468 2.94605 5.67 5.94559 6.2175 8.88699C6.24984 8.9259 6.28265 8.96527 6.315 9.00418C6.54234 9.27746 6.89156 9.40637 7.21875 9.33512C7.73578 9.22262 8.25093 9.10402 8.76515 8.98027L10.9284 17.5326C11.46 17.4745 11.9887 17.4436 12.5137 17.4389L12.5133 17.4384Z" fill="black"/>
<path d="M18.7556 9.53174C17.145 9.53174 15.8391 10.8377 15.8391 12.4483C15.8391 14.0589 17.145 15.3649 18.7556 15.3649C20.3662 15.3649 21.6722 14.0589 21.6722 12.4483C21.6722 10.8377 20.3662 9.53174 18.7556 9.53174Z" fill="black"/>
</g>
<defs>
<clipPath id="clip0_245_983">
<rect width="24" height="24" fill="white"/>
</clipPath>
</defs>
</svg>
