<svg width="56" height="56" viewBox="0 0 56 56" fill="none" xmlns="http://www.w3.org/2000/svg">
<path fill-rule="evenodd" clip-rule="evenodd" d="M43.2488 8.93208C44.7234 8.93208 45.9186 10.1275 45.9186 11.6019C45.9186 13.0764 44.7233 14.2718 43.2488 14.2718C41.7743 14.2718 40.5789 13.0764 40.5789 11.6019C40.5788 10.1275 41.7742 8.93208 43.2488 8.93208ZM28.0176 21.2772C27.7864 21.2772 27.6043 21.3537 27.4763 21.5554C25.5511 24.587 24.0169 26.6218 24.0354 30.6569C24.0521 34.2921 25.5606 39.7333 26.4645 43.6771C26.5826 44.193 26.2686 44.7104 25.7562 44.8434L25.5975 44.8846C25.1603 44.9982 24.7168 44.8088 24.4966 44.4146L20.2948 36.8948C20.2408 36.7982 20.0922 36.8491 20.1088 36.9585L21.2065 44.1906C21.3023 44.821 20.8452 45.3918 20.2091 45.4364L20.0289 45.449C19.553 45.4824 19.1282 45.2181 18.948 44.7764C16.9292 39.8321 15.2801 34.7891 13.9058 29.6729C13.72 28.9811 13.4591 28.4173 13.0523 27.8277C11.0432 24.9159 9.1562 21.8724 7.38805 18.7011C7.0842 18.1562 7.24962 17.4734 7.76908 17.128L7.85823 17.0688C8.39896 16.7091 9.13077 16.8499 9.49948 17.3846C10.4331 18.7382 11.4569 20.0099 12.5682 21.2019C14.0369 22.7773 15.6062 24.4172 17.8495 24.7245C20.4378 25.0792 21.3149 24.0699 22.9294 22.4554C27.5242 17.8606 28.4755 17.8606 33.0703 22.4554C34.6848 24.0699 35.5619 25.0792 38.1502 24.7245C40.3936 24.4172 41.9627 22.7773 43.4316 21.2019C44.5429 20.0099 45.5667 18.7382 46.5002 17.3846C46.8689 16.85 47.6008 16.7093 48.1415 17.0688L48.2306 17.128C48.7501 17.4734 48.9155 18.1562 48.6117 18.7011C46.8435 21.8723 44.9565 24.9158 42.9474 27.8277C42.5406 28.4173 42.2797 28.9811 42.0939 29.6729C40.7196 34.7891 39.0705 39.8321 37.0517 44.7764C36.8714 45.2181 36.4466 45.4824 35.9708 45.449L35.7906 45.4364C35.1545 45.3917 34.6975 44.8209 34.7932 44.1906L35.8909 36.9585C35.9075 36.8491 35.7589 36.7982 35.7049 36.8948L31.5031 44.4146C31.2829 44.8088 30.8394 44.9982 30.4023 44.8846L30.2436 44.8434C29.7312 44.7104 29.4171 44.1932 29.5353 43.6771C30.4391 39.7333 31.9476 34.2921 31.9643 30.6569C31.9829 26.6218 30.4486 24.587 28.5235 21.5554C28.4105 21.377 28.2288 21.2772 28.0176 21.2772ZM10.8865 34.5755L11.534 33.8857C11.8338 33.5665 11.8317 33.1203 11.5438 32.8276C11.2549 32.5338 10.7825 32.5294 10.4882 32.8175L9.7592 33.5885C9.49533 33.8672 9.50832 34.3664 9.83077 34.6472C10.1425 34.9183 10.6147 34.8861 10.8865 34.5755ZM9.18812 37.3477L9.51527 36.5997C9.69111 36.1936 9.54596 35.779 9.17647 35.5966C8.80687 35.4143 8.35965 35.5655 8.1762 35.9342L7.7908 36.8156C7.64039 37.1632 7.82418 37.6302 8.22581 37.7815C8.61143 37.9266 9.04173 37.7324 9.18812 37.3477ZM8.73216 40.2316L8.73205 39.4698C8.73205 39.025 8.43928 38.7025 8.02645 38.6798C7.61508 38.6573 7.26317 38.9717 7.23909 39.3825L7.23887 40.3076C7.23887 40.6808 7.5948 41.0399 8.02645 41.0163C8.43783 40.9938 8.75322 40.6426 8.73216 40.2316ZM9.51706 43.1005L9.18991 42.3531C9.01228 41.9467 8.61199 41.7694 8.22581 41.9148C7.8402 42.06 7.64498 42.4899 7.78868 42.8756L8.17407 43.7577C8.3237 44.1033 8.79063 44.29 9.17636 44.0997C9.54596 43.9173 9.69816 43.4704 9.51706 43.1005ZM11.5366 45.8132L10.8888 45.1234C10.5844 44.804 10.1417 44.7787 9.83088 45.0492C9.51941 45.3203 9.48615 45.7924 9.7564 46.1044L10.4855 46.8759C10.7511 47.1572 11.2462 47.1712 11.5438 46.8686C11.8328 46.5748 11.8293 46.1028 11.5366 45.8132ZM14.7075 48.1681C15.0653 48.3739 15.1892 48.8306 14.9841 49.189C14.774 49.5564 14.2943 49.6713 13.9609 49.4662L12.9499 48.8466C12.6048 48.62 12.5082 48.1566 12.7344 47.811C12.9592 47.4675 13.4044 47.3684 13.7717 47.5948L14.7075 48.1681ZM18.8215 49.9676C19.2135 50.0959 19.4277 50.5175 19.3001 50.9099C19.1701 51.3099 18.7289 51.5215 18.356 51.3895L17.1291 50.9562C16.7434 50.8087 16.5499 50.3764 16.6969 49.9904C16.8431 49.6066 17.2609 49.4135 17.6637 49.5574L18.8215 49.9676ZM23.5914 51.0614C23.9998 51.1202 24.2836 51.4987 24.2255 51.9074C24.1673 52.3161 23.789 52.6004 23.3803 52.5429L22.0196 52.3184C21.6142 52.2437 21.3458 51.8546 21.4202 51.4491C21.4949 51.0409 21.8839 50.7771 22.2902 50.849L23.5914 51.0614ZM28.6749 51.3641C29.0866 51.3567 29.4267 51.6842 29.4348 52.096C29.443 52.5136 29.101 52.8573 28.7017 52.8573H27.2962C26.8843 52.8487 26.5571 52.508 26.5651 52.0961C26.5732 51.6865 26.9011 51.3642 27.3269 51.3642L28.6749 51.3641ZM33.7115 50.8485C34.1169 50.7749 34.5056 51.0435 34.5799 51.449C34.6536 51.8509 34.3844 52.2499 33.9785 52.3186L32.6197 52.5428C32.2111 52.6003 31.8328 52.3161 31.7746 51.9073C31.7152 51.4897 32.003 51.1298 32.4104 51.0611L33.7115 50.8485ZM38.3382 49.5567C38.7243 49.4106 39.1561 49.6045 39.303 49.9905C39.4483 50.372 39.256 50.8176 38.8683 50.9571L37.6414 51.3904C37.2488 51.5174 36.8274 51.3024 36.6998 50.9099C36.573 50.5198 36.7744 50.1115 37.1808 49.9669L38.3382 49.5567ZM42.2306 47.5934C42.5764 47.3681 43.0396 47.4655 43.2656 47.811C43.4973 48.1651 43.3815 48.6447 43.0474 48.8483L42.0363 49.4679C41.6775 49.6722 41.2208 49.5475 41.0157 49.1891C40.8118 48.8326 40.9247 48.3951 41.2947 48.1668L42.2306 47.5934ZM45.1135 45.1208L44.466 45.8105C44.1662 46.1297 44.1683 46.576 44.4561 46.8686C44.7451 47.1624 45.2174 47.1668 45.5117 46.8787L46.2407 46.1078C46.5047 45.8291 46.4916 45.33 46.1692 45.0492C45.8575 44.778 45.3853 44.8102 45.1135 45.1208ZM46.8118 42.3486L46.4847 43.0967C46.3088 43.5028 46.454 43.9173 46.8235 44.0997C47.1931 44.2821 47.6403 44.1309 47.8237 43.7622L48.2091 42.8807C48.3596 42.5331 48.1758 42.0662 47.7741 41.9148C47.3885 41.7697 46.9582 41.9638 46.8118 42.3486ZM47.2678 39.4647L47.2679 40.2264C47.2679 40.6712 47.5607 40.9938 47.9735 41.0164C48.3849 41.0389 48.7368 40.7245 48.7608 40.3137L48.761 39.3886C48.761 39.0154 48.405 38.6563 47.9734 38.68C47.5621 38.7025 47.2467 39.0536 47.2678 39.4647ZM46.4829 36.5957L46.81 37.3431C46.9877 37.7496 47.388 37.9269 47.7741 37.7814C48.1597 37.6361 48.355 37.2064 48.2113 36.8206L47.8259 35.9385C47.6762 35.5929 47.2093 35.4062 46.8236 35.5965C46.454 35.779 46.3018 36.2259 46.4829 36.5957ZM44.4633 33.8831L45.1111 34.5729C45.4155 34.8923 45.8583 34.9177 46.1689 34.6472C46.4804 34.376 46.5137 33.9039 46.2434 33.5919L45.5143 32.8204C45.2488 32.5391 44.7536 32.5251 44.456 32.8277C44.1672 33.1214 44.1706 33.5936 44.4633 33.8831ZM28 3.14258C29.4746 3.14258 30.6698 4.33795 30.6698 5.81243C30.6698 7.28703 29.4745 8.48229 28 8.48229C26.5255 8.48229 25.3301 7.28691 25.3301 5.81243C25.3301 4.33795 26.5255 3.14258 28 3.14258ZM18.4431 18.3505C16.9685 18.3505 15.7733 19.5459 15.7733 21.0204C15.7733 22.4949 16.9686 23.6902 18.4431 23.6902C19.9177 23.6902 21.113 22.4948 21.113 21.0204C21.113 19.5459 19.9176 18.3505 18.4431 18.3505ZM37.5219 18.4254C36.0473 18.4254 34.852 19.6208 34.852 21.0953C34.852 22.5698 36.0474 23.7651 37.5219 23.7651C38.9964 23.7651 40.1917 22.5698 40.1917 21.0953C40.1917 19.6208 38.9965 18.4254 37.5219 18.4254ZM35.5481 3.20541C35.0505 3.04581 34.5225 3.25435 34.2682 3.71087C33.156 5.7076 31.8803 7.3073 30.4313 8.48599C28.9999 9.65034 27 9.65034 25.5687 8.48599C24.1197 7.3073 22.8439 5.70749 21.7318 3.71087C21.2699 2.88162 20.0605 3.03315 19.7193 3.83507C19.0876 5.31986 18.3686 8.02421 17.2965 10.3473C16.1577 12.8146 15.8681 14.5085 12.8824 15.1921C11.8715 15.4236 10.7438 15.4501 9.53812 15.3401C9.28376 15.3169 9.34906 15.5023 9.42511 15.5294C9.93885 15.7126 10.4016 16.0524 10.7335 16.5334C11.8017 18.0823 12.8817 19.367 14.1616 20.7108C14.2187 20.7708 14.3195 20.7393 14.3325 20.6576C14.6948 18.385 16.8633 16.8158 19.164 17.2193C19.2207 17.2293 19.2736 17.1901 19.2804 17.1328C19.6484 14.0616 20.3507 11.1062 21.1697 8.00517C21.1932 7.91624 21.3155 7.90403 21.3559 7.98669C22.6664 10.6568 23.9542 13.4935 24.4225 15.8959C24.5696 16.6509 24.6847 17.4435 24.7729 18.2668C24.7817 18.3483 24.8788 18.3852 24.9393 18.3302C25.3552 17.9532 26.6112 17.3212 27.9999 17.3057C29.1781 17.2925 30.4907 17.8176 31.0615 18.3265C31.1223 18.3807 31.2186 18.3437 31.2274 18.2627C31.3156 17.4407 31.4304 16.6496 31.5774 15.8959C32.0456 13.4934 33.3335 10.6568 34.6439 7.98669C34.6845 7.90403 34.8068 7.91624 34.8302 8.00517C35.6478 11.1008 36.3491 14.0514 36.7175 17.1168C36.7243 17.1735 36.7761 17.2125 36.8324 17.2035C39.1366 16.8352 41.2788 18.4302 41.615 20.7031C41.6272 20.7854 41.7285 20.8176 41.7859 20.7575C42.9482 19.543 45.3963 15.9516 46.5565 15.5298C46.6396 15.4995 46.6808 15.3199 46.4615 15.3399C45.2559 15.45 44.1282 15.4235 43.1172 15.192C40.1314 14.5083 39.8418 12.8146 38.7031 10.3472C37.6312 8.02466 36.9117 5.31896 36.2804 3.83496C36.1317 3.48519 35.8945 3.31663 35.5481 3.20541ZM12.9761 8.97711C14.4507 8.97711 15.6459 10.1725 15.6459 11.647C15.6459 13.1216 14.4505 14.3168 12.9761 14.3168C11.5016 14.3168 10.3062 13.1214 10.3062 11.647C10.3061 10.1725 11.5015 8.97711 12.9761 8.97711Z" fill="#C6A04A"/>
</svg>
