<svg width="223" height="158" viewBox="0 0 223 158" fill="none" xmlns="http://www.w3.org/2000/svg">
<path d="M28.8811 110.359C29.8293 106.185 30.625 101.88 31.7862 97.7625C32.4378 95.4531 34.6598 92.0987 33.5196 89.8123C30.5373 92.8553 26.847 95.1208 23.0335 96.7133C20.3227 97.8419 12.5348 98.0885 11.7934 94.6861C19.2868 94.4729 25.0718 91.8605 30.0695 86.1758C33.6595 82.0921 39.81 78.4409 38.0118 72.4887C32.0368 77.0908 26.5525 78.3092 19.6042 78.8923C12.7249 79.4754 3.92628 79.2225 0 72.0143C9.24764 79.1118 28.6723 72.0373 33.9978 68.2252C36.5624 66.3819 39.503 63.9137 40.5305 60.7913C41.8608 56.7431 40.6809 52.5485 42.8215 48.3874C44.6113 44.9077 46.8647 41.917 47.297 37.9962C47.4725 36.4288 47.8672 34.878 47.3869 33.3231C46.9399 31.8768 45.7474 31.0012 46.2006 29.2435C46.6183 27.6071 48.4875 26.5015 49.54 25.3081C50.5467 24.167 51.6222 22.5452 52.3553 21.2223C53.8861 18.4322 55.1099 15.1531 56.2189 12.1289C57.3508 9.04416 57.8688 5.31777 60.3123 2.94568C64.0443 -0.66993 69.9525 -0.705457 74.0939 1.47645C77.8803 3.46817 82.1574 4.74931 86.3802 5.37212C90.72 6.01373 94.2453 4.27698 98.4556 3.70015C101.645 3.26544 104.972 2.84328 108.104 2.57785C111.594 2.28108 115.159 2.56113 118.686 3.11915C121.33 2.99584 123.433 3.85899 126.098 4.63854C127.232 4.91233 128.358 5.19029 129.457 5.46825C132.978 6.3523 136.426 6.94794 139.986 7.35339C143.637 7.77138 147.344 8.81844 150.826 8.51331C159.144 7.78183 167.04 5.99492 175.638 6.18511C183.109 6.34604 192.486 10.852 198.058 15.5355C205.952 22.1711 212.524 28.9342 217.541 38.0192C219.379 41.3464 220.734 45.0247 221.605 48.7218C222.317 51.7523 223.447 56.091 222.814 59.2426C222.566 60.459 222.021 61.6816 221.407 62.9126C221.281 65.8678 221.791 69.776 221.762 72.61C221.72 76.1441 221.714 79.7513 221.098 83.2311C220.496 86.6189 218.829 89.5093 217.259 92.5878C215.799 95.4447 215.145 98.7155 213.627 101.317C212.593 103.096 211.198 103.263 211.037 100.941C210.929 99.3738 212.157 98.1491 212.948 96.9558C216.791 91.1938 218.316 84.531 218.046 77.4963C217.986 75.9058 217.307 74.4846 217.286 72.9423C216.543 74.5578 215.678 76.1294 214.682 77.7575C212.243 81.7535 210.962 85.6178 210.342 89.7099C210.304 91.7455 210.056 93.9316 209.889 95.5346C209.872 95.6913 209.853 95.8418 209.835 95.9986C209.83 96.1992 209.826 96.3957 209.82 96.5984C209.776 100.149 208.565 103.029 208.35 106.526C208.13 110.064 207.907 113.604 207.686 117.145C207.46 120.76 207.734 124.096 207.894 127.605C207.972 129.319 207.976 131.08 208.197 132.74C208.427 134.487 209.346 136.138 209.112 137.869C208.805 140.151 208.429 140.404 209.546 142.803C210.15 144.101 211.012 145.8 210.48 147.384C209.423 150.507 203.924 148.483 201.458 148.513C198.262 148.552 195.32 150.565 191.841 149.792C189.445 149.259 184.681 147.831 186.849 144.454C187.68 143.16 188.967 142.262 190.163 141.263C190.926 138.218 192.634 135.766 193.47 132.811C193.486 130.957 193.373 129.091 193.398 127.546C193.413 126.506 193.53 123.164 193.447 119.586C193.307 117.502 193.154 115.437 192.995 113.456C192.981 113.259 192.962 113.082 192.945 112.919C192.895 112.607 192.841 112.306 192.782 112.018C192.544 111.147 192.127 110.772 191.289 109.56C190.988 109.13 190.796 108.933 190.688 108.787C188.81 109.169 187.375 116.603 186.801 118.179C185.638 121.343 184.019 124.332 182.754 127.525C182.227 128.859 181.572 130.14 181.012 131.45C180.381 132.93 180.398 134.56 179.51 135.85C179.093 136.458 178.301 136.698 177.886 137.242C177.464 137.791 177.117 138.68 176.891 139.294C176.277 140.953 176.096 142.659 175.734 144.354C175.01 147.737 173.702 151.731 169.164 150.344C166.474 149.522 163.281 147.564 161.107 145.835C159.163 144.295 154.38 142.757 154.933 139.635C155.288 137.599 156.627 138.351 158.106 137.549C158.632 137.265 159.355 136.456 159.852 136.105C160.42 135.703 161.147 135.453 161.669 134.993C163.814 133.097 164.91 129.879 166.192 127.383C167.696 124.466 169.624 121.674 171.111 118.683C173.324 114.238 174.872 109.226 175.074 104.388C175.06 104.404 175.047 104.421 175.031 104.436C174.12 105.311 172.259 105.834 171.092 106.055C168.872 106.475 168.698 105.449 166.932 104.726C166.359 104.492 165.747 104.329 165.11 104.212C164.1 104.179 163.081 104.114 162.059 104.049C161.562 104.018 161.071 103.965 160.587 103.909C159.104 103.878 157.64 103.83 156.337 103.535C155.32 103.305 154.361 102.845 153.419 102.402C151.832 101.995 150.249 101.593 148.633 101.32C147.279 104.398 147.841 108.561 147.304 111.863C146.73 115.404 146.056 118.756 146.204 122.455C146.34 125.87 146.425 129.053 147.344 132.33C148.161 135.237 148.121 138.991 149.689 141.649C151.285 144.356 153.875 145.539 154.787 148.586C155.656 151.47 155.366 155.15 151.776 156.072C151.005 156.271 150.028 155.922 149.255 156.168C148.382 156.45 147.866 157.209 147.037 157.533C145.792 158.02 143.508 158.154 142.075 157.803C140.262 157.362 139.222 156.488 137.274 156.223C135.273 155.951 134.158 155.608 132.712 154.059C129.573 150.697 133.197 149.324 135.156 146.751C136.294 145.254 136.472 145.002 135.381 143.039C134.588 141.612 134.003 140.784 133.6 139.202C131.923 132.619 129.3 126.194 128.506 119.216C127.698 112.12 125.236 105.493 123.841 98.4564C123.45 96.4981 123.459 94.1887 122.872 92.1384C121.969 90.4038 120.867 88.7297 119.315 87.8248C118.404 87.4674 117.446 87.3483 116.487 87.1455C116.418 87.1476 116.354 87.1393 116.281 87.1435C116.195 87.4319 116.038 87.6158 115.946 87.9021C114.169 88.0735 113.906 86.9219 113.545 85.8832C113.465 85.8226 113.388 85.7662 113.313 85.6993C112.244 84.7881 111.099 83.6491 109.84 83.0701C109.627 83.0409 109.412 83.0242 109.199 83.0221C107.513 84.9553 106.438 87.1435 105.584 89.4403C105.406 90.1133 105.243 90.7444 105.076 91.2627C104.913 91.7769 104.713 92.2367 104.495 92.6735C103.622 95.4468 102.802 98.2662 101.377 100.885C99.6962 103.982 99.763 107.51 98.581 110.72C97.3926 113.932 95.797 117.452 94.1346 120.484C93.2721 122.056 91.7538 123.281 91.027 124.969C90.4005 126.424 90.3608 128.336 89.9745 129.854C89.1182 133.198 89.2184 136.784 88.6274 140.168C88.0092 143.746 88.7485 146.306 89.1077 149.792C89.5213 153.823 86.8167 153.951 83.6235 154.946C79.9123 156.101 77.1514 156.944 73.6449 155.058C71.0698 153.675 67.4234 154.3 65.4853 151.783C63.6726 149.426 67.5341 146.575 69.1088 145.073C71.2452 143.039 72.726 140.715 73.4548 137.95C74.284 134.78 74.9418 131.083 75.3073 127.822C75.7124 124.19 76.9321 121.001 77.4939 117.508C78.6029 110.566 79.8371 103.855 80.2924 96.5796C80.6704 90.5375 82.172 85.0159 84.5528 79.5653C86.7144 74.61 89.4962 69.6757 88.0364 64.2627C87.2177 64.0976 86.1317 64.1289 84.9998 64.2272C84.2417 64.3735 83.4773 64.455 82.7192 64.5072C81.9319 64.6222 81.1863 64.7392 80.5744 64.8207C77.9889 65.176 75.4785 65.8343 72.9682 66.478C70.0674 67.22 69.0733 68.5262 66.8177 70.1919C65.5333 71.1386 64.1654 72.5096 62.5218 72.7604C60.3143 73.1032 61.0014 70.7186 58.4243 72.2191C55.0264 74.1962 53.5916 83.7327 51.3299 87.1435C49.5777 89.781 49.0075 92.5481 47.2929 95.3507C45.4049 98.4396 42.314 101.598 41.1529 104.998C40.1608 107.89 40.3133 111.705 39.9583 114.729C39.4884 118.71 40.3676 121.051 44.5821 119.128C48.0009 117.565 48.6399 116.842 49.421 113.188C49.9932 110.526 51.712 106.275 49.5421 104.241C51.0834 101.834 52.1527 104.331 54.0302 104.308C56.2273 104.285 56.2085 101.704 58.7731 102.952C56.8016 104.168 57.6014 104.818 57.2777 106.86C57.0397 108.363 56.4403 109.878 56.0873 111.477C55.7114 113.216 55.0452 114.785 54.5899 116.501C54.1409 118.206 54.3247 120.108 53.8005 121.782C52.8001 124.955 49.7698 127.448 46.5619 128.15C43.9535 128.719 39.2816 129.262 36.7901 127.916C33.4465 126.111 32.2519 122.265 30.0152 119.492C27.5654 116.457 28.1021 113.794 28.8811 110.359Z" fill="black"/>
</svg>
