<svg width="174" height="34" viewBox="0 0 174 34" fill="none" xmlns="http://www.w3.org/2000/svg">
<g clip-path="url(#clip0_308_651)">
<path d="M0.0229187 0.546875C0.0855201 0.604544 0.159358 0.564094 0.225571 0.564094C2.15056 0.567299 4.07556 0.5693 6.00056 0.562496C6.17271 0.561694 6.20399 0.610552 6.20399 0.77194C6.19959 7.2848 6.19959 13.7981 6.20443 20.3109C6.20443 20.4799 6.16147 20.5143 5.99734 20.514C4.08559 20.5075 2.17424 20.51 0.26249 20.5092C0.182633 20.5092 0.102776 20.5007 0.0229187 20.4959C0.0610413 20.4275 0.0457923 20.3526 0.0457923 20.2805C0.0465949 13.7801 0.0465949 7.27999 0.045391 0.779547C0.045391 0.715471 0.068666 0.646592 0.0229187 0.586922V0.546875Z" fill="#232323"/>
<path d="M120.962 33.9986C120.795 33.9108 120.604 33.9317 120.429 33.882C120.1 33.7895 119.799 33.6541 119.597 33.3658C119.236 32.852 119.434 32.2461 120.083 31.9289C119.815 31.7263 119.639 31.4804 119.678 31.1328C119.718 30.78 119.961 30.5921 120.269 30.4372C120.028 30.2133 119.837 29.9722 119.76 29.661C119.54 28.774 120.098 27.9547 121.019 27.8033C121.41 27.7392 121.792 27.7644 122.165 27.8958C122.272 27.9338 122.313 27.9442 122.344 27.8081C122.471 27.2622 122.897 27.1773 123.449 27.1994C123.483 27.2006 123.519 27.2102 123.52 27.2518C123.523 27.4048 123.525 27.5582 123.52 27.7112C123.518 27.7812 123.453 27.764 123.411 27.762C123.276 27.756 123.143 27.7756 123.015 27.8117C122.734 27.8918 122.636 28.1729 122.799 28.4076C123.128 28.8797 123.215 29.3923 122.968 29.9166C122.695 30.4956 122.187 30.7443 121.566 30.7944C121.344 30.8124 121.126 30.788 120.911 30.7375C120.692 30.6867 120.529 30.7852 120.404 30.943C120.246 31.1428 120.362 31.4187 120.626 31.4796C120.974 31.5589 121.329 31.5549 121.682 31.5677C122.069 31.5817 122.457 31.5893 122.837 31.6751C123.297 31.7788 123.639 32.1304 123.689 32.546C123.752 33.061 123.554 33.4515 123.104 33.6886C122.779 33.8596 122.425 33.9213 122.065 33.9589C122.018 33.9637 121.955 33.9269 121.926 33.9973H120.963L120.962 33.9986ZM121.524 33.4363C121.624 33.4363 121.725 33.4455 121.824 33.4347C122.156 33.3987 122.487 33.3526 122.781 33.1784C122.956 33.0743 123.038 32.9145 123.021 32.7086C123.005 32.4964 122.875 32.3742 122.689 32.3018C122.589 32.2629 122.484 32.2449 122.376 32.2397C121.81 32.2121 121.243 32.184 120.677 32.152C120.599 32.1476 120.532 32.1632 120.468 32.202C120.256 32.3286 120.104 32.492 120.113 32.7587C120.122 33.0134 120.284 33.1516 120.492 33.2521C120.817 33.4103 121.168 33.4459 121.524 33.4363ZM120.434 29.2946C120.43 29.8741 120.809 30.255 121.395 30.2618C121.984 30.269 122.398 29.8753 122.4 29.307C122.401 28.7504 121.988 28.3243 121.44 28.3171C120.852 28.3095 120.438 28.7119 120.434 29.2946Z" fill="#232323"/>
<path d="M136.249 33.998C136.09 33.9091 135.905 33.9343 135.737 33.8822C135.59 33.8366 135.442 33.7965 135.308 33.7212C134.944 33.5174 134.723 33.2251 134.731 32.7909C134.739 32.3576 134.98 32.0957 135.365 31.9388C134.709 31.3633 134.929 30.7365 135.565 30.4282C135.236 30.1471 135.032 29.8003 135.014 29.3673C134.978 28.5652 135.522 27.93 136.337 27.8007C136.77 27.7318 137.188 27.7819 137.599 27.9437C137.612 27.902 137.624 27.8647 137.635 27.8267C137.756 27.4106 137.956 27.246 138.387 27.2052C138.821 27.1643 138.899 27.254 138.826 27.6881C138.812 27.7682 138.771 27.7655 138.718 27.763C138.59 27.757 138.463 27.773 138.34 27.8051C138.029 27.8864 137.926 28.1587 138.103 28.417C138.427 28.8904 138.516 29.3986 138.262 29.9244C137.987 30.4946 137.487 30.7409 136.875 30.7942C136.646 30.8142 136.423 30.785 136.2 30.7361C135.984 30.6889 135.817 30.7878 135.696 30.9492C135.546 31.147 135.658 31.4157 135.913 31.4766C136.265 31.5607 136.628 31.5539 136.988 31.5679C137.374 31.5827 137.763 31.5904 138.142 31.6764C138.591 31.7786 138.922 32.1182 138.982 32.5351C139.053 33.0385 138.863 33.4377 138.429 33.6752C138.102 33.8546 137.741 33.9195 137.374 33.9595C137.32 33.9655 137.252 33.9307 137.211 33.998H136.249H136.249ZM136.83 32.1898C136.83 32.1951 136.829 32.1999 136.829 32.2051C136.549 32.1878 136.27 32.1726 135.99 32.153C135.915 32.1478 135.847 32.1554 135.779 32.1939C135.563 32.316 135.409 32.4814 135.409 32.7429C135.409 33.0148 135.589 33.165 135.812 33.2631C136.272 33.4661 136.758 33.4725 137.247 33.4197C137.513 33.3908 137.776 33.3372 138.016 33.2158C138.234 33.1061 138.352 32.9011 138.326 32.7021C138.299 32.4914 138.149 32.3388 137.905 32.2772C137.841 32.2607 137.775 32.2459 137.709 32.2415C137.416 32.2219 137.123 32.2067 136.83 32.1898ZM137.693 29.304C137.693 28.733 137.278 28.3137 136.716 28.3165C136.145 28.3193 135.73 28.731 135.727 29.2976C135.724 29.8767 136.123 30.2648 136.716 30.2612C137.297 30.258 137.692 29.8707 137.693 29.304H137.693Z" fill="#232323"/>
<path d="M40.8973 33.9991C40.7343 33.9086 40.5461 33.931 40.3728 33.8826C40.0229 33.7845 39.7063 33.6375 39.5092 33.3167C39.197 32.8089 39.4004 32.2478 40.0217 31.9299C39.754 31.7192 39.5722 31.4649 39.6232 31.1129C39.6733 30.7677 39.9217 30.5803 40.2151 30.4357C39.6364 29.8639 39.4863 29.1818 39.8262 28.5863C40.1413 28.0345 40.6565 27.803 41.2741 27.7722C41.6052 27.7554 41.925 27.817 42.2364 27.9424C42.2436 27.9332 42.2544 27.9252 42.2564 27.9156C42.3652 27.3717 42.6397 27.1791 43.3616 27.1975C43.437 27.1995 43.4692 27.2219 43.4655 27.3012C43.4599 27.421 43.4583 27.5411 43.4659 27.6605C43.4723 27.7558 43.4278 27.7718 43.3479 27.7654C43.2199 27.7545 43.0939 27.777 42.9719 27.8102C42.6766 27.8911 42.5755 28.1671 42.7452 28.4122C43.0723 28.8847 43.1598 29.3941 42.9109 29.9199C42.6364 30.4998 42.1293 30.7453 41.51 30.7958C41.2881 30.8138 41.0706 30.7893 40.8547 30.738C40.638 30.6868 40.4723 30.7861 40.3471 30.9427C40.1878 31.1429 40.3026 31.4193 40.5686 31.4801C40.9218 31.5614 41.2837 31.5558 41.6437 31.5694C42.0297 31.5839 42.4178 31.5919 42.7966 31.6796C43.2352 31.7813 43.5674 32.1213 43.6268 32.5238C43.7003 33.0236 43.5233 33.4148 43.1039 33.6595C42.7805 33.8485 42.4189 33.9106 42.0542 33.9587C42.0153 33.9639 41.9567 33.9278 41.9398 33.9987H40.8969L40.8973 33.9991ZM41.4803 32.1906C41.4803 32.1958 41.4795 32.201 41.4795 32.2062C41.1998 32.189 40.9198 32.1745 40.6404 32.1538C40.5566 32.1473 40.4823 32.1593 40.4113 32.2026C40.2006 32.3308 40.0449 32.4949 40.0558 32.7605C40.0666 33.0316 40.2504 33.1753 40.4727 33.271C40.9342 33.4693 41.4205 33.4749 41.9093 33.4184C42.1882 33.3864 42.4643 33.3311 42.7107 33.189C42.8925 33.084 42.99 32.9198 42.9695 32.7076C42.9479 32.4821 42.799 32.3547 42.5948 32.2879C42.5193 32.263 42.4386 32.2498 42.3592 32.2442C42.0663 32.2234 41.7733 32.2078 41.4803 32.1906ZM40.3756 29.2964C40.3728 29.8791 40.7648 30.2635 41.3612 30.2619C41.9326 30.2603 42.3363 29.8751 42.3415 29.3256C42.3471 28.7497 41.9418 28.3228 41.3836 28.3172C40.7953 28.3112 40.3784 28.7161 40.3756 29.2964Z" fill="#232323"/>
<path d="M0.0229187 0.587891C0.068666 0.647561 0.045391 0.71644 0.045391 0.780515C0.0465949 7.28097 0.0465949 13.781 0.0457923 20.2814C0.0457923 20.3535 0.0610413 20.4284 0.0229187 20.4969V20.4905V0.587891Z" fill="#FDD400"/>
<path d="M30.2696 10.5381C30.2696 7.28781 30.2712 4.03761 30.2652 0.78699C30.2652 0.606377 30.3086 0.561123 30.4907 0.561526C32.9976 0.567933 35.5045 0.561924 38.0113 0.56753C39.4138 0.570735 40.7935 0.733726 42.1254 1.20108C43.8417 1.80339 45.1772 2.88426 46.2013 4.37361C47.363 6.06318 47.985 7.92541 48.0592 9.97017C48.1267 11.8372 47.8835 13.6553 47.0344 15.3397C45.619 18.147 43.3593 19.8518 40.2285 20.372C39.6008 20.4762 38.9684 20.5102 38.3327 20.5098C35.7123 20.5082 33.0919 20.5074 30.4711 20.513C30.3049 20.513 30.2648 20.4757 30.2652 20.3087C30.2708 17.0517 30.2696 13.7947 30.2696 10.5381ZM36.4134 10.4868C36.4134 12.2252 36.4166 13.9637 36.4086 15.7021C36.4077 15.8855 36.4603 15.9216 36.6313 15.9172C37.1056 15.9056 37.5803 15.9132 38.0551 15.9132C38.5394 15.9132 38.9949 15.7963 39.4094 15.5468C40.3681 14.9697 40.9239 14.0874 41.259 13.0538C41.643 11.8692 41.6947 10.6494 41.5716 9.42156C41.4688 8.39796 41.1715 7.42998 40.6145 6.55419C40.0916 5.73202 39.3637 5.22061 38.3725 5.1277C37.7922 5.07325 37.2099 5.11968 36.6292 5.09846C36.4587 5.09243 36.4077 5.12891 36.4086 5.31149C36.417 7.03675 36.4134 8.76196 36.4134 10.4868Z" fill="#232323"/>
<path d="M22.1939 11.5024C22.1108 10.8877 22.0201 10.277 21.9527 9.66262C21.8576 8.79562 21.793 7.92658 21.7889 7.05516C21.7793 4.96392 21.7882 2.87265 21.7818 0.781392C21.7813 0.606389 21.8223 0.560732 22.0008 0.561534C23.5314 0.569145 25.0623 0.568343 26.5928 0.562335C26.7473 0.561937 26.7903 0.59838 26.7903 0.756563C26.7858 7.27665 26.7858 13.7967 26.7903 20.3168C26.7903 20.473 26.7509 20.513 26.594 20.5126C25.0498 20.5066 23.5057 20.5078 21.9619 20.511C21.8468 20.511 21.7661 20.4934 21.6991 20.3849C19.8106 17.3381 17.9137 14.2965 16.0304 11.2465C15.4157 10.2505 14.9068 9.19692 14.42 8.13364C14.3892 8.06676 14.3815 7.97947 14.2708 7.9226C14.3181 8.14806 14.3607 8.3475 14.402 8.54732C14.5669 9.35069 14.6697 10.1592 14.668 10.9818C14.6628 14.0854 14.6648 17.1887 14.6693 20.2923C14.6693 20.4541 14.6492 20.5154 14.4602 20.5142C12.9297 20.5046 11.3987 20.5066 9.86819 20.5122C9.7113 20.513 9.66833 20.4734 9.66833 20.3148C9.67239 13.7947 9.67239 7.27465 9.66917 0.754561C9.66917 0.611995 9.69605 0.561534 9.85333 0.561937C11.678 0.56794 13.5031 0.566741 15.3278 0.563535C15.4389 0.563535 15.5079 0.592372 15.5702 0.691287C17.3226 3.46254 19.1192 6.20535 20.8427 8.99467C21.3419 9.80241 21.7842 10.6422 22.1943 11.502L22.1939 11.5024Z" fill="#232323"/>
<path d="M96.4058 10.5588C96.4058 13.7958 96.4043 17.0328 96.4107 20.2698C96.4107 20.4628 96.3603 20.5117 96.1677 20.5109C94.2826 20.5037 92.3969 20.5065 90.5123 20.5065C90.3431 20.5065 90.2586 20.4191 90.2586 20.2442C90.2586 17.8266 90.2561 15.4085 90.263 12.9908C90.2635 12.7982 90.2136 12.7474 90.0201 12.7486C88.6163 12.757 87.2126 12.7578 85.8089 12.7482C85.608 12.747 85.5713 12.8067 85.5713 12.9933C85.5782 15.4177 85.5738 17.8422 85.5801 20.2666C85.5806 20.456 85.5376 20.5121 85.3406 20.5113C83.4491 20.5037 81.5571 20.5037 79.6651 20.5113C79.4696 20.5121 79.4237 20.4588 79.4242 20.2678C79.4295 13.7806 79.4295 7.29293 79.4242 0.80572C79.4242 0.609089 79.4794 0.565437 79.6695 0.566239C81.5615 0.573447 83.4535 0.572645 85.345 0.56704C85.5225 0.566637 85.5816 0.604285 85.5811 0.794505C85.5738 3.09241 85.5787 5.39029 85.5718 7.6882C85.5713 7.86602 85.6168 7.9061 85.7918 7.90527C87.2155 7.89764 88.6398 7.89847 90.0636 7.90449C90.2224 7.90527 90.2625 7.86204 90.2625 7.70584C90.2576 5.40792 90.2615 3.11003 90.2552 0.812127C90.2547 0.625506 90.2938 0.564636 90.4932 0.565437C92.392 0.573447 94.2904 0.572645 96.1888 0.566239C96.3657 0.565437 96.4111 0.61109 96.4107 0.7877C96.4053 4.04473 96.4067 7.30177 96.4067 10.5588H96.4058Z" fill="#FDD400"/>
<path d="M153.857 20.8175C152.114 20.8166 150.63 20.6392 149.211 20.0802C147.036 19.224 145.624 17.6441 144.836 15.478C144.768 15.2906 144.722 15.0955 144.648 14.9105C144.593 14.7715 144.636 14.7243 144.771 14.7007C145.606 14.5545 146.44 14.4047 147.273 14.2549C148.213 14.0867 149.152 13.919 150.09 13.7467C150.237 13.7195 150.318 13.7251 150.38 13.9021C150.815 15.17 151.747 15.8464 153.047 16.0482C153.859 16.1744 154.672 16.1768 155.466 15.9273C155.829 15.8136 156.133 15.6129 156.26 15.2289C156.422 14.7419 156.232 14.2081 155.79 13.9157C155.348 13.6234 154.844 13.4876 154.335 13.3763C153.15 13.1168 151.956 12.8937 150.793 12.5373C149.847 12.2474 148.915 11.9214 148.069 11.4C146.759 10.5926 145.981 9.40123 145.721 7.91145C145.17 4.76336 146.858 1.9881 149.953 0.870381C150.877 0.537186 151.834 0.372194 152.811 0.303713C154.035 0.218012 155.254 0.253254 156.46 0.505148C159.077 1.05219 160.922 2.53754 161.964 5.00163C162.023 5.14219 161.985 5.18027 161.856 5.21908C160.272 5.69367 158.688 6.1722 157.105 6.64917C157.016 6.67603 156.937 6.72849 156.872 6.57908C156.331 5.312 155.308 4.76817 153.98 4.70409C153.525 4.68206 153.071 4.69768 152.629 4.82864C151.946 5.03126 151.598 5.5603 151.745 6.18021C151.82 6.49943 152.021 6.72009 152.309 6.86784C152.832 7.13537 153.4 7.25748 153.968 7.38003C155.468 7.70361 156.962 8.04361 158.43 8.49576C160.298 9.07162 161.634 10.239 162.253 12.088C163.015 14.3671 162.5 17.0562 160.263 18.8187C158.978 19.8319 157.507 20.3938 155.904 20.6489C155.15 20.769 154.391 20.8246 153.857 20.8175Z" fill="#FDD400"/>
<path d="M127.519 20.507H127.304C125.218 20.507 123.133 20.5046 121.047 20.5114C120.875 20.5118 120.79 20.4621 120.718 20.3044C119.633 17.9264 118.541 15.5516 117.451 13.176C117.427 13.1239 117.399 13.0738 117.361 12.999C117.094 13.3746 116.84 13.731 116.587 14.0886C116.19 14.6489 115.797 15.2108 115.397 15.7686C115.327 15.8655 115.297 15.9617 115.297 16.081C115.3 17.4863 115.296 18.8915 115.302 20.2968C115.303 20.4594 115.263 20.511 115.094 20.5106C113.296 20.5046 111.497 20.5046 109.699 20.5106C109.529 20.511 109.491 20.4589 109.491 20.2968C109.495 13.7899 109.495 7.28263 109.491 0.775793C109.491 0.605992 109.541 0.566747 109.705 0.567548C111.496 0.573158 113.288 0.573556 115.079 0.56715C115.253 0.566348 115.303 0.607197 115.303 0.786605C115.297 3.35723 115.298 5.92826 115.298 8.4989C115.298 8.57098 115.298 8.64345 115.298 8.73394C115.389 8.69712 115.412 8.62344 115.449 8.56817C117.182 5.98353 118.914 3.39928 120.638 0.809434C120.761 0.624017 120.89 0.565149 121.106 0.566348C122.771 0.575557 124.435 0.571152 126.1 0.572357C126.162 0.572357 126.25 0.538716 126.283 0.602388C126.315 0.666066 126.237 0.718528 126.2 0.770586C124.597 3.08852 122.995 5.40646 121.387 7.72079C121.305 7.83649 121.303 7.92022 121.364 8.04117C122.978 11.2878 124.589 14.536 126.201 17.7838C126.621 18.63 127.041 19.4766 127.459 20.3236C127.485 20.3756 127.527 20.4233 127.517 20.5074L127.519 20.507Z" fill="#FDD400"/>
<path d="M129.188 10.5356C129.188 7.29215 129.19 4.04833 129.183 0.804911C129.183 0.611883 129.23 0.56543 129.423 0.56543C134.283 0.57104 139.143 0.57104 144.002 0.565833C144.188 0.565833 144.252 0.601071 144.251 0.802109C144.242 2.19415 144.243 3.58618 144.25 4.97821C144.251 5.1452 144.207 5.18687 144.04 5.18649C141.173 5.18124 138.305 5.18445 135.437 5.17847C135.256 5.17847 135.203 5.22049 135.206 5.40593C135.217 6.21848 135.216 7.03103 135.206 7.84359C135.204 8.01538 135.242 8.06546 135.423 8.06507C137.709 8.05783 139.995 8.06225 142.282 8.05662C142.456 8.05623 142.517 8.08829 142.516 8.27971C142.506 9.61848 142.507 10.9573 142.515 12.2956C142.516 12.4666 142.465 12.5003 142.303 12.4999C140.01 12.4943 137.717 12.4983 135.424 12.4919C135.245 12.4915 135.204 12.5367 135.206 12.7117C135.215 13.6508 135.216 14.5899 135.205 15.529C135.203 15.7141 135.263 15.7437 135.431 15.7433C138.292 15.7385 141.153 15.7413 144.014 15.7361C144.193 15.7361 144.251 15.7737 144.251 15.9631C144.242 17.4016 144.243 18.8405 144.251 20.279C144.251 20.4632 144.201 20.5101 144.018 20.5101C139.144 20.5053 134.271 20.5049 129.398 20.5109C129.211 20.5109 129.184 20.452 129.184 20.2862C129.189 17.036 129.188 13.7858 129.188 10.5356Z" fill="#FDD400"/>
<path d="M68.0746 0.567093C69.0907 0.567093 70.1068 0.569498 71.123 0.564291C71.2628 0.563489 71.3312 0.596329 71.3762 0.7401C73.3684 7.08679 75.3645 13.4318 77.3611 19.7773C77.4207 19.9675 77.475 20.1594 77.5444 20.346C77.5967 20.4865 77.5502 20.5138 77.4139 20.5126C76.7858 20.507 76.1573 20.5101 75.5287 20.5101C74.1914 20.5101 72.8547 20.5081 71.5179 20.513C71.3713 20.5133 71.3009 20.4849 71.2564 20.326C70.9211 19.1305 70.5702 17.9392 70.2315 16.7445C70.1958 16.6204 70.1508 16.5767 70.0184 16.5767C68.3468 16.5815 66.6757 16.5835 65.0046 16.5743C64.8345 16.5735 64.8082 16.6596 64.7725 16.777C64.4108 17.9648 64.0457 19.1514 63.6884 20.3404C63.6488 20.4721 63.5946 20.5138 63.4553 20.5133C61.9181 20.5078 60.3804 20.5078 58.8433 20.513C58.6795 20.5133 58.64 20.4865 58.6927 20.3171C60.7182 13.7934 62.7402 7.26859 64.7578 0.742101C64.8018 0.599131 64.8644 0.562688 65.0066 0.563489C66.0296 0.569498 67.0521 0.567093 68.0746 0.567093ZM67.514 6.55012C67.4998 6.54852 67.4846 6.54692 67.4705 6.54575C66.9421 8.43275 66.4142 10.3198 65.8839 12.216H69.0995C68.5692 10.3202 68.0413 8.43474 67.514 6.55012Z" fill="#232323"/>
<path d="M50.6526 10.5172C50.6526 7.27421 50.6535 4.03081 50.6491 0.787796C50.6491 0.624805 50.6702 0.560729 50.8613 0.561531C52.7728 0.569939 54.6844 0.568739 56.5959 0.563129C56.7602 0.562731 56.8076 0.600373 56.8071 0.769776C56.8027 7.28262 56.8027 13.7959 56.8071 20.3087C56.8071 20.4802 56.7563 20.5142 56.5945 20.5138C54.6898 20.5082 52.7846 20.5078 50.8798 20.5138C50.7005 20.5146 50.6477 20.4742 50.6482 20.2871C50.6545 17.0305 50.6526 13.7739 50.6526 10.5172Z" fill="#232323"/>
<path d="M99.8726 10.5172C99.8726 7.28055 99.874 4.04433 99.8682 0.807723C99.8682 0.6159 99.9166 0.564637 100.11 0.565439C102.002 0.57305 103.893 0.57305 105.785 0.565439C105.982 0.564637 106.025 0.621107 106.025 0.810127C106.02 7.29614 106.02 13.7826 106.025 20.2686C106.025 20.4617 105.976 20.5117 105.782 20.5109C103.891 20.5033 101.999 20.5033 100.107 20.5109C99.9112 20.5117 99.8677 20.4556 99.8682 20.2662C99.874 17.0164 99.8726 13.7666 99.8726 10.5172Z" fill="#FDD400"/>
<path d="M173.933 5.1938C173.933 8.02352 171.646 10.2994 168.801 10.299C165.962 10.299 163.676 8.0107 163.694 5.15256C163.712 2.24633 166.125 0.0665678 168.873 0.0950016C171.651 0.123835 173.932 2.39851 173.933 5.1938ZM172.93 5.20822C172.932 2.95837 171.098 1.10419 168.867 1.10018C166.563 1.09618 164.696 2.91071 164.693 5.15815C164.69 7.44164 166.525 9.29784 168.787 9.29983C171.075 9.30221 172.927 7.47248 172.929 5.20822H172.93Z" fill="#232323"/>
<path d="M59.3496 28.8303C59.1468 28.5156 58.9601 28.2184 58.857 27.8768C58.5842 26.9742 59.2494 26.1444 60.1942 26.2141C60.4411 26.2321 60.683 26.2725 60.9044 26.3975C61.6498 26.8183 61.7612 27.8119 61.1341 28.4675C60.92 28.6918 60.6639 28.8588 60.3888 28.9981C60.3237 29.031 60.2763 29.0482 60.3369 29.1387C60.7358 29.735 61.1287 30.3357 61.5305 30.946C61.9479 30.4214 62.1781 29.8323 62.3057 29.2008C62.3316 29.073 62.3555 29.0414 62.4939 29.0714C63.0183 29.186 63.0198 29.1795 62.8595 29.6901C62.6742 30.2796 62.3966 30.8215 61.9939 31.292C61.8858 31.4182 61.9249 31.4694 62.0315 31.5519C62.2881 31.751 62.5789 31.7465 62.8722 31.6965C63.054 31.6657 63.1092 31.7069 63.1029 31.8983C63.0877 32.3312 63.0975 32.3216 62.664 32.3753C62.2241 32.4297 61.8585 32.2992 61.5681 31.9744C61.4655 31.8599 61.4044 31.8803 61.293 31.9612C60.488 32.5467 59.3487 32.6056 58.6038 32.1094C57.5119 31.3825 57.5569 29.8615 58.6903 29.1419C58.8936 29.0126 59.115 28.9216 59.3496 28.8303ZM58.5779 30.5924C58.5745 31.0085 58.6747 31.3337 58.985 31.566C59.5569 31.9932 60.4733 31.9488 61.0061 31.4754C61.0774 31.4118 61.0804 31.3717 61.029 31.2968C60.596 30.6681 60.1664 30.0369 59.7358 29.4066C59.6991 29.3529 59.6712 29.2861 59.5813 29.3281C59.0266 29.5904 58.5632 29.8836 58.5779 30.5924ZM60.1669 26.7839C59.6796 26.7859 59.3575 27.1692 59.4718 27.6257C59.5569 27.9641 59.7421 28.258 59.9225 28.5528C59.9542 28.6053 59.985 28.6029 60.0349 28.5736C60.2822 28.4287 60.5408 28.2965 60.7338 28.0807C60.9484 27.8404 61.0222 27.5584 60.8961 27.2493C60.7778 26.9589 60.4924 26.7823 60.1669 26.7839Z" fill="#232323"/>
<path d="M126.238 29.3079C126.245 28.6435 126.378 27.9779 126.736 27.36C127.633 25.8118 129.82 25.8542 130.694 27.3612C131.404 28.5854 131.292 30.4969 130.433 31.6258C129.59 32.7343 127.646 32.7315 126.846 31.4973C126.418 30.8361 126.244 30.1172 126.238 29.3079ZM127.041 29.2374C127.024 29.7756 127.084 30.3019 127.307 30.7972C127.505 31.235 127.788 31.5982 128.267 31.7564C129.003 31.9995 129.704 31.6467 130.068 30.8585C130.347 30.2554 130.395 29.6171 130.363 28.9667C130.337 28.4489 130.232 27.9511 129.934 27.5122C129.307 26.5871 128.061 26.6107 127.471 27.5599C127.152 28.0737 127.051 28.6447 127.041 29.2374Z" fill="#232323"/>
<path d="M68.2236 32.4417C67.031 32.4405 66.2348 31.9307 65.8121 30.9083C65.7544 30.7689 65.7681 30.7097 65.9255 30.6881C66.0833 30.6665 66.249 30.5763 66.3927 30.606C66.5423 30.6368 66.5369 30.8502 66.6127 30.9768C66.9802 31.5915 67.6821 31.8963 68.4998 31.7853C68.7261 31.7545 68.948 31.7093 69.1445 31.5867C69.4861 31.3729 69.6371 31.0593 69.6264 30.6608C69.6161 30.2968 69.403 30.0757 69.1034 29.9184C68.7197 29.7173 68.2877 29.6772 67.8781 29.5635C67.5765 29.4799 67.2705 29.4157 66.9792 29.294C66.4186 29.0585 66.1249 28.6248 66.0613 28.0409C65.9968 27.4479 66.205 26.9625 66.7006 26.6024C67.4548 26.0546 69.1058 26.0262 69.8165 26.9388C69.9734 27.1403 70.0971 27.3578 70.1914 27.594C70.2232 27.6737 70.2236 27.7094 70.1279 27.733C69.9666 27.7726 69.8082 27.8247 69.6498 27.8771C69.5668 27.9048 69.5237 27.88 69.5061 27.7979C69.3405 27.0153 68.1039 26.5564 67.2735 27.0418C66.9587 27.226 66.7881 27.4839 66.8003 27.8555C66.8126 28.2155 67.0262 28.4274 67.3272 28.5676C67.7422 28.7606 68.1992 28.8095 68.6376 28.9228C68.8957 28.9897 69.1557 29.0449 69.403 29.1502C70.0052 29.4073 70.381 29.8335 70.4201 30.505C70.4636 31.2483 70.1513 31.8058 69.5008 32.167C69.1054 32.3865 68.6694 32.4413 68.2236 32.4417Z" fill="#232323"/>
<path d="M10.1715 28.4684C10.1715 27.8 10.1771 27.1764 10.1675 26.5533C10.1651 26.3955 10.1923 26.3367 10.3685 26.341C10.8733 26.3531 10.8733 26.3443 10.8733 26.8501C10.8733 28.607 10.8705 30.3638 10.8778 32.1207C10.8786 32.2897 10.834 32.3297 10.6691 32.3253C10.2449 32.3133 10.2449 32.3217 10.2449 31.904C10.2449 31.8251 10.2449 31.7466 10.2449 31.6673C10.1707 31.6489 10.1623 31.7126 10.1434 31.7442C9.60044 32.6437 8.23683 32.6913 7.57153 31.8123C7.13692 31.238 7.02734 30.5844 7.0683 29.8905C7.10403 29.2837 7.27617 28.7251 7.70393 28.2738C8.38053 27.5597 9.44516 27.6002 10.0748 28.3546C10.096 28.3803 10.1177 28.4055 10.1715 28.4684ZM10.1715 30.0979C10.1715 29.8772 10.1743 29.6974 10.1711 29.5176C10.1603 28.9329 9.76095 28.4572 9.18992 28.345C8.68107 28.2449 8.2232 28.5269 7.98766 29.0863C7.88571 29.3286 7.84118 29.5833 7.83155 29.844C7.81307 30.3522 7.82994 30.8564 8.08194 31.3185C8.26777 31.6593 8.54783 31.8579 8.94916 31.8611C9.48005 31.8656 9.99169 31.4355 10.1322 30.872C10.1996 30.6017 10.1562 30.3286 10.1715 30.0979Z" fill="#232323"/>
<path d="M158.94 32.3194C158.732 32.3194 158.539 32.3153 158.346 32.321C158.255 32.3234 158.236 32.2801 158.23 32.202C158.215 32.0062 158.193 31.8108 158.173 31.6101C158.096 31.6314 158.087 31.6974 158.056 31.7435C157.556 32.4787 156.323 32.689 155.605 32.1604C154.78 31.5536 154.93 30.301 155.885 29.8445C156.346 29.6242 156.845 29.5773 157.347 29.5633C157.574 29.5569 157.801 29.5605 158.028 29.5709C158.143 29.5762 158.189 29.5389 158.171 29.426C158.167 29.4063 158.169 29.3859 158.168 29.3663C158.108 28.5089 157.63 28.1705 156.715 28.3371C156.307 28.4116 155.989 28.5982 155.866 29.0215C155.847 29.0867 155.82 29.1084 155.753 29.094C155.662 29.0744 155.57 29.0615 155.477 29.0463C155.265 29.0118 155.198 28.8967 155.278 28.7007C155.48 28.2029 155.883 27.959 156.383 27.8473C156.811 27.7516 157.244 27.7424 157.678 27.8072C158.402 27.9154 158.779 28.3663 158.832 29.1825C158.868 29.7608 158.848 30.3402 158.853 30.9189C158.856 31.3823 158.828 31.8472 158.94 32.3194ZM157.639 30.0883C157.519 30.0883 157.398 30.0795 157.279 30.0899C156.872 30.1256 156.467 30.1797 156.135 30.4492C155.856 30.6766 155.759 30.981 155.851 31.3246C155.942 31.6618 156.191 31.836 156.532 31.8829C157.399 32.0034 158.131 31.3902 158.183 30.5016C158.199 30.2323 158.071 30.0946 157.798 30.0887C157.745 30.0875 157.692 30.0887 157.639 30.0887L157.639 30.0883Z" fill="#232323"/>
<path d="M74.9446 32.319C74.7437 32.319 74.5634 32.3114 74.384 32.3218C74.2633 32.3286 74.2384 32.2733 74.2315 32.1716C74.2188 31.9825 74.1963 31.7939 74.1773 31.5929C74.1514 31.6145 74.1328 31.6237 74.1245 31.6386C73.6621 32.4875 72.623 32.5717 71.949 32.3322C71.406 32.1391 71.1108 31.7315 71.0829 31.156C71.0541 30.5713 71.3332 30.1484 71.838 29.8749C72.3082 29.6202 72.8302 29.5797 73.3527 29.5629C73.5727 29.5557 73.7936 29.5605 74.014 29.5702C74.1279 29.5749 74.1919 29.5565 74.1743 29.422C74.1572 29.2902 74.1602 29.156 74.1445 29.0243C74.1 28.6603 73.8713 28.4564 73.5336 28.3695C73.2046 28.285 72.8708 28.2894 72.5428 28.3779C72.2193 28.4652 71.9842 28.6606 71.884 28.9858C71.8527 29.0868 71.8146 29.1148 71.7173 29.0875C71.6533 29.0695 71.5863 29.0627 71.5208 29.0511C71.1621 28.9874 71.1552 28.9742 71.3107 28.637C71.515 28.1957 71.8864 27.9662 72.34 27.8569C72.7994 27.7464 73.2677 27.7316 73.7325 27.8153C74.4324 27.941 74.7819 28.3675 74.8327 29.1524C74.8816 29.9037 74.8464 30.6566 74.8537 31.4087C74.8571 31.7087 74.8796 32.0066 74.9446 32.319ZM74.1929 30.3891C74.1939 30.1143 74.1939 30.1088 73.9177 30.0943C73.7046 30.0831 73.4896 30.0747 73.2775 30.0907C72.8835 30.1204 72.493 30.1785 72.1665 30.4291C71.8796 30.649 71.7725 30.9457 71.8483 31.2941C71.9197 31.6238 72.1826 31.8336 72.5477 31.8833C73.4515 32.0058 74.191 31.3342 74.1929 30.3891Z" fill="#232323"/>
<path d="M35.6029 32.3191C35.3982 32.3191 35.2181 32.3132 35.0383 32.3216C34.9344 32.3264 34.8955 32.2875 34.8882 32.1894C34.8738 31.9976 34.8529 31.8066 34.8336 31.6007C34.7582 31.6352 34.7401 31.7101 34.702 31.7645C34.2 32.4834 32.9612 32.6836 32.2614 32.1578C31.4423 31.5419 31.598 30.2944 32.5539 29.8406C33.0094 29.6244 33.5017 29.5784 33.997 29.5631C34.2173 29.5563 34.4388 29.5543 34.6583 29.5716C34.8192 29.5839 34.8577 29.5223 34.8356 29.3805C34.8204 29.282 34.8148 29.1823 34.8047 29.083C34.7666 28.7021 34.5616 28.4606 34.1868 28.3685C33.8701 28.2904 33.5495 28.2924 33.2337 28.3689C32.8942 28.4514 32.6434 28.6469 32.5387 28.9901C32.5086 29.0886 32.4705 29.1122 32.3733 29.089C32.2505 29.0597 32.1241 29.0409 31.9981 29.0289C31.8673 29.0161 31.8557 28.9532 31.889 28.8435C32.029 28.3818 32.3324 28.0782 32.7851 27.9244C33.3152 27.7442 33.8613 27.7186 34.4067 27.8235C35.0969 27.956 35.4247 28.3637 35.485 29.1138C35.5476 29.8915 35.5098 30.6712 35.5162 31.4498C35.5186 31.7369 35.5351 32.0212 35.6033 32.32L35.6029 32.3191ZM34.2983 30.0877C34.1847 30.0877 34.0708 30.0797 33.9585 30.0893C33.5379 30.125 33.1189 30.1767 32.7811 30.4646C32.513 30.6929 32.4219 30.99 32.5138 31.326C32.6037 31.6548 32.8456 31.829 33.1759 31.8799C34.0355 32.012 34.8 31.4069 34.8361 30.5367C34.8577 30.0189 34.9267 30.1266 34.4183 30.0877C34.3786 30.0845 34.3385 30.0877 34.2983 30.0877Z" fill="#232323"/>
<path d="M17.7813 32.3198C17.5771 32.3198 17.3969 32.315 17.2171 32.3218C17.1168 32.3254 17.0747 32.2966 17.0691 32.1909C17.0586 31.9951 17.0333 31.7996 17.0117 31.5806C16.9206 31.7031 16.8476 31.8116 16.7645 31.9114C16.2476 32.5301 15.004 32.6358 14.3892 32.1156C13.5882 31.4376 13.819 30.2162 14.8282 29.7997C15.2608 29.6215 15.7183 29.5762 16.1802 29.5634C16.4005 29.5574 16.6216 29.557 16.8411 29.5718C16.9872 29.5814 17.0313 29.5282 17.0113 29.3932C17.0004 29.3211 16.9988 29.2479 16.994 29.1749C16.9615 28.688 16.7625 28.4529 16.2817 28.354C15.9635 28.2883 15.6457 28.2987 15.3327 28.3952C15.0317 28.4881 14.8186 28.676 14.7239 28.9763C14.6902 29.084 14.6444 29.1137 14.5405 29.0864C14.4635 29.0664 14.3836 29.0568 14.3046 29.0452C14.002 28.9991 13.998 28.998 14.1163 28.7072C14.3314 28.1798 14.762 27.9375 15.2962 27.8337C15.7135 27.7529 16.1332 27.7413 16.551 27.8137C17.2693 27.9387 17.6204 28.3672 17.671 29.1757C17.7167 29.907 17.6871 30.6395 17.6911 31.3711C17.6931 31.6847 17.7095 31.9958 17.7813 32.3198ZM16.4021 30.08C15.9498 30.0932 15.4755 30.1177 15.0606 30.3872C14.7448 30.5926 14.6123 30.8969 14.6753 31.263C14.7332 31.599 14.9647 31.7956 15.2893 31.8693C15.5249 31.923 15.7653 31.915 16.0016 31.8473C16.6561 31.6595 17.1489 30.8685 17.0257 30.2069C17.0088 30.1156 16.9527 30.1068 16.8845 30.1032C16.7316 30.0948 16.5783 30.0884 16.4025 30.0804L16.4021 30.08Z" fill="#232323"/>
<path d="M143.071 32.3215C142.871 32.3215 142.679 32.3167 142.486 32.3235C142.393 32.3271 142.379 32.2838 142.373 32.2073C142.355 32.0099 142.331 31.8129 142.309 31.609C142.231 31.6435 142.216 31.7136 142.18 31.7656C141.663 32.5197 140.362 32.6915 139.662 32.0968C138.915 31.4613 139.116 30.2679 140.046 29.8362C140.497 29.6271 140.982 29.5806 141.47 29.5651C141.69 29.5583 141.911 29.5606 142.131 29.5722C142.262 29.579 142.308 29.5554 142.311 29.4049C142.337 28.3833 141.664 28.2479 140.853 28.3436C140.441 28.3924 140.126 28.5983 140.006 29.0248C139.985 29.0989 139.947 29.1141 139.873 29.0929C139.79 29.0692 139.702 29.0621 139.617 29.0481C139.302 28.9964 139.301 28.996 139.416 28.7052C139.611 28.2131 140.007 27.9676 140.498 27.8538C140.938 27.7521 141.385 27.7389 141.831 27.8114C142.492 27.9187 142.842 28.288 142.943 28.96C142.982 29.2183 142.98 29.4766 142.984 29.736C142.999 30.4873 142.943 31.2398 143.023 31.9899C143.034 32.0948 143.053 32.1993 143.071 32.3207V32.3215ZM141.778 30.0905C141.658 30.0905 141.537 30.0824 141.418 30.0921C141.03 30.1233 140.649 30.1818 140.321 30.4128C140.028 30.6191 139.894 30.9907 139.983 31.3271C140.065 31.6287 140.334 31.8421 140.689 31.8874C141.541 31.9955 142.226 31.4285 142.313 30.5442C142.355 30.1169 142.34 30.0981 141.918 30.0905C141.872 30.0897 141.825 30.0905 141.778 30.0905Z" fill="#232323"/>
<path d="M46.2774 30.1705C45.8027 30.1705 45.3284 30.1693 44.8536 30.1721C44.7902 30.1721 44.7088 30.1336 44.6863 30.2542C44.5968 30.7371 44.8857 31.4035 45.3051 31.6602C45.9869 32.0771 46.7578 31.8597 47.1105 31.144C47.1667 31.0299 47.2156 30.9718 47.3485 31.0275C47.4207 31.0579 47.5041 31.0619 47.5828 31.0779C47.8549 31.1336 47.8605 31.1364 47.7277 31.3899C47.3834 32.0475 46.8264 32.3911 46.0928 32.4387C45.2834 32.4912 44.6253 32.1936 44.2352 31.472C43.7681 30.6078 43.7681 29.7031 44.2111 28.8305C44.6265 28.0123 45.4239 27.6571 46.3621 27.8069C47.1161 27.9274 47.6844 28.5465 47.8344 29.4204C47.8681 29.6166 47.8745 29.8173 47.905 30.0139C47.9247 30.1388 47.8886 30.1753 47.761 30.1733C47.2666 30.1665 46.7722 30.1705 46.2774 30.1705ZM45.9074 29.6511C46.2678 29.6511 46.6281 29.6463 46.9881 29.6539C47.1157 29.6566 47.1566 29.6142 47.1297 29.4941C47.1197 29.4488 47.1197 29.4019 47.1133 29.3559C47.0182 28.6775 46.5074 28.2542 45.8617 28.3187C45.2505 28.3796 44.7469 28.933 44.72 29.561C44.7148 29.6823 44.7898 29.6502 44.8468 29.6507C45.2004 29.6531 45.5539 29.6518 45.9074 29.6518V29.6511Z" fill="#232323"/>
<path d="M82.2649 31.1262C82.0444 31.8714 81.3103 32.404 80.517 32.4421C79.2159 32.5042 78.475 31.5739 78.366 30.5151C78.3059 29.9307 78.3567 29.3597 78.6412 28.829C79.1983 27.7914 80.5332 27.4374 81.4745 28.0798C81.978 28.4234 82.1979 28.9328 82.2912 29.5094C82.3181 29.6733 82.3191 29.8406 82.3406 30.0052C82.3582 30.1358 82.3132 30.1714 82.1808 30.1706C81.2248 30.165 80.2692 30.1722 79.3132 30.163C79.1475 30.1614 79.1094 30.2147 79.1231 30.3637C79.1407 30.5495 79.1592 30.7345 79.2047 30.9155C79.3332 31.4321 79.7521 31.7909 80.2976 31.8534C80.8298 31.9143 81.2873 31.674 81.5249 31.1814C81.6001 31.0256 81.672 30.976 81.8382 31.0336C81.9745 31.0805 82.1212 31.0961 82.2644 31.1257L82.2649 31.1262ZM80.3611 29.6484C80.7213 29.6484 81.082 29.6496 81.4423 29.6472C81.4975 29.6468 81.5791 29.6856 81.5757 29.5635C81.5547 28.9143 81.1876 28.395 80.5913 28.3204C79.8582 28.2287 79.2174 28.777 79.1646 29.5275C79.1578 29.626 79.1817 29.6524 79.2805 29.6508C79.6407 29.6452 80.0014 29.6488 80.3616 29.6488L80.3611 29.6484Z" fill="#232323"/>
<path d="M101.309 30.1705C100.828 30.1705 100.347 30.1745 99.8657 30.1677C99.7367 30.1657 99.6912 30.1933 99.7064 30.3318C99.7264 30.5168 99.7382 30.7023 99.7812 30.8841C99.9082 31.4223 100.316 31.786 100.865 31.8525C101.423 31.9197 101.864 31.6854 102.119 31.1636C102.188 31.0227 102.257 30.9758 102.404 31.0343C102.477 31.0631 102.56 31.0675 102.638 31.0827C102.874 31.1288 102.875 31.1296 102.77 31.3543C102.439 32.0707 101.709 32.4767 100.817 32.4415C100.031 32.4103 99.3467 31.9121 99.092 31.1151C98.8022 30.2061 98.831 29.3098 99.4371 28.5189C99.9469 27.8545 100.655 27.6511 101.455 27.8245C102.221 27.9899 102.638 28.5241 102.823 29.2566C102.887 29.5081 102.911 29.7656 102.924 30.0259C102.931 30.162 102.883 30.1741 102.771 30.1729C102.284 30.1677 101.796 30.1705 101.309 30.1705ZM100.948 29.6511C101.309 29.6511 101.668 29.6511 102.029 29.6511C102.094 29.6511 102.163 29.6675 102.158 29.5581C102.134 29.0515 101.913 28.5369 101.36 28.3655C100.587 28.1257 99.8452 28.6499 99.7445 29.5557C99.7328 29.6659 99.8022 29.6511 99.8682 29.6511C100.228 29.6511 100.588 29.6511 100.948 29.6511Z" fill="#232323"/>
<path d="M111.962 27.891C111.525 28.3796 111.127 28.8365 110.714 29.279C110.594 29.4084 110.587 29.4985 110.672 29.6507C111.135 30.48 111.585 31.317 112.039 32.1512C112.064 32.1964 112.086 32.2429 112.126 32.3202C111.891 32.3202 111.681 32.3162 111.472 32.3222C111.379 32.325 111.368 32.2537 111.339 32.1988C110.933 31.4292 110.529 30.659 110.11 29.8629C109.797 30.2221 109.494 30.5705 109.19 30.9185C109.144 30.971 109.163 31.0327 109.163 31.0903C109.162 31.45 109.157 31.8096 109.166 32.1692C109.169 32.295 109.132 32.3334 109.01 32.3222C108.831 32.3062 108.598 32.3943 108.488 32.2885C108.378 32.1824 108.456 31.9485 108.456 31.7708C108.453 30.0323 108.458 28.2943 108.449 26.5558C108.448 26.372 108.502 26.3212 108.672 26.3432C108.829 26.3636 109.045 26.2739 109.132 26.3804C109.212 26.4785 109.162 26.6844 109.163 26.843C109.163 27.8617 109.163 28.881 109.163 29.8997V30.098C109.242 30.1052 109.257 30.0419 109.289 30.0075C109.886 29.3527 110.484 28.6983 111.073 28.0364C111.172 27.925 111.269 27.8774 111.415 27.8878C111.579 27.8994 111.746 27.8906 111.963 27.8906L111.962 27.891Z" fill="#232323"/>
<path d="M104.704 30.0994C105.325 29.4146 105.948 28.7319 106.564 28.0426C106.66 27.9353 106.751 27.8737 106.901 27.8873C107.068 27.9025 107.236 27.8909 107.403 27.8909C107.435 27.9609 107.371 27.9862 107.341 28.0206C106.952 28.4595 106.564 28.9001 106.168 29.3322C106.084 29.4231 106.083 29.4852 106.14 29.5889C106.604 30.4323 107.063 31.2792 107.523 32.1258C107.553 32.1819 107.601 32.232 107.6 32.3209C107.393 32.3209 107.189 32.3153 106.985 32.3233C106.883 32.3273 106.869 32.2568 106.836 32.1943C106.431 31.4258 106.026 30.6573 105.607 29.8632C105.293 30.2248 104.988 30.5744 104.685 30.9253C104.642 30.9749 104.659 31.0398 104.659 31.0987C104.657 31.4583 104.654 31.8179 104.661 32.1771C104.662 32.288 104.634 32.3309 104.517 32.3229C104.338 32.3109 104.104 32.3813 103.993 32.2928C103.878 32.1999 103.958 31.9569 103.958 31.7803C103.955 30.0358 103.959 28.2909 103.952 26.5465C103.951 26.3783 103.994 26.3374 104.16 26.341C104.658 26.3519 104.658 26.3442 104.658 26.8368V29.8732C104.658 29.9441 104.658 30.015 104.658 30.0858C104.673 30.0907 104.688 30.0946 104.704 30.0994Z" fill="#232323"/>
<path d="M166.624 32.4416C165.949 32.4423 165.412 32.1728 165.083 31.5818C164.557 30.6386 164.516 29.6619 165.046 28.7123C165.426 28.0312 166.06 27.732 166.84 27.7733C167.591 27.8133 168.127 28.2009 168.424 28.8757C168.806 29.7436 168.807 30.6226 168.338 31.4636C167.97 32.1244 167.381 32.4407 166.624 32.4416ZM167.914 30.0988C167.916 29.7784 167.891 29.462 167.776 29.1585C167.585 28.6559 167.163 28.3539 166.652 28.3571C166.17 28.3604 165.755 28.6643 165.591 29.1757C165.386 29.8201 165.388 30.4756 165.62 31.1112C165.785 31.5661 166.132 31.8352 166.631 31.8581C167.131 31.8809 167.479 31.6334 167.704 31.2021C167.885 30.8561 167.911 30.4792 167.913 30.0984L167.914 30.0988Z" fill="#232323"/>
<path d="M84.5879 32.4423C84.3998 32.4459 84.0777 32.4027 83.7683 32.2846C83.2888 32.1016 82.9809 31.7579 82.8083 31.2806C82.7722 31.1808 82.7952 31.1512 82.888 31.14C82.934 31.1344 82.9799 31.1248 83.0254 31.1156C83.1495 31.0907 83.28 31.0291 83.3958 31.0495C83.5293 31.0732 83.5097 31.2514 83.5806 31.3507C83.7609 31.605 84.0058 31.7487 84.3049 31.8072C84.7243 31.8885 85.1398 31.9125 85.5283 31.6826C85.7488 31.5521 85.8577 31.3575 85.8455 31.102C85.8328 30.8465 85.6823 30.6867 85.457 30.5934C85.0713 30.4344 84.6534 30.4104 84.2512 30.3239C84.0156 30.2734 83.7829 30.2189 83.5698 30.1016C82.8699 29.7168 82.7365 28.8053 83.301 28.237C83.7287 27.8061 84.2732 27.7428 84.8401 27.7777C85.1754 27.7985 85.4995 27.875 85.7869 28.0628C85.9281 28.1549 86.0518 28.2658 86.1471 28.4048C86.2488 28.5526 86.4247 28.7612 86.3514 28.8725C86.2566 29.0163 85.9887 28.9771 85.7981 29.0307C85.7346 29.0488 85.7277 28.9895 85.7048 28.951C85.3568 28.3712 84.6226 28.1685 84.0171 28.4797C83.7937 28.5942 83.6642 28.7696 83.6715 29.0183C83.6788 29.2714 83.8308 29.4368 84.0625 29.5225C84.434 29.6599 84.8313 29.6827 85.216 29.762C85.4521 29.8105 85.6833 29.8681 85.8993 29.9771C86.7346 30.3979 86.8363 31.4904 86.0904 32.0563C85.6891 32.361 85.2199 32.44 84.5884 32.4427L84.5879 32.4423Z" fill="#232323"/>
<path d="M22.6513 32.4397C22.3211 32.4458 21.9996 32.4005 21.6902 32.282C21.2247 32.1038 20.9254 31.7693 20.748 31.31C20.6986 31.1827 20.7356 31.1442 20.8516 31.1302C20.878 31.127 20.9061 31.1274 20.9306 31.1178C21.2075 31.0093 21.3989 31.0285 21.5337 31.3573C21.6433 31.6244 21.927 31.7429 22.2115 31.8022C22.6236 31.8875 23.0333 31.9127 23.421 31.7049C23.6582 31.5775 23.787 31.3817 23.7737 31.1049C23.7609 30.8375 23.6016 30.6793 23.3701 30.5863C22.9892 30.4338 22.5779 30.4093 22.1814 30.3225C21.9727 30.2768 21.7693 30.2251 21.5722 30.1378C20.6778 29.741 20.7035 28.6052 21.3608 28.1175C21.8215 27.7755 22.3419 27.7334 22.8857 27.7911C23.3604 27.8411 23.779 28.0033 24.0751 28.4006C24.1594 28.5135 24.22 28.6389 24.2733 28.7682C24.3095 28.8555 24.3183 28.9248 24.1919 28.9292C24.1722 28.93 24.1526 28.9372 24.1337 28.9432C23.8681 29.0273 23.6738 29.0481 23.4788 28.7386C23.1826 28.2684 22.2171 28.214 21.793 28.5808C21.488 28.8443 21.5522 29.3041 21.925 29.4903C22.2352 29.6453 22.5831 29.6528 22.915 29.7197C23.2352 29.7842 23.5575 29.8339 23.852 29.9889C24.6622 30.4158 24.7569 31.4886 24.0314 32.0485C23.6875 32.314 23.2456 32.4393 22.6526 32.4393L22.6513 32.4397Z" fill="#232323"/>
<path d="M50.2992 32.4429C49.7865 32.4377 49.306 32.36 48.8945 32.04C48.6446 31.8454 48.4865 31.5883 48.3761 31.2968C48.3416 31.2062 48.3456 31.1466 48.46 31.1373C48.4929 31.1345 48.527 31.1298 48.5583 31.1186C48.8292 31.0232 49.0519 31.0004 49.1613 31.358C49.2102 31.5178 49.3788 31.6247 49.5416 31.6968C49.9722 31.8887 50.4175 31.9151 50.8696 31.7877C51.0182 31.7461 51.1501 31.6656 51.2562 31.5478C51.5255 31.2487 51.4449 30.8138 51.0783 30.6227C50.7464 30.4498 50.371 30.4418 50.0147 30.3612C49.8065 30.3144 49.5939 30.2891 49.3916 30.2163C48.83 30.0133 48.5282 29.6432 48.5218 29.1466C48.5146 28.5579 48.8043 28.0966 49.3735 27.9091C50.1242 27.6625 50.8603 27.6833 51.5162 28.1959C51.7103 28.3473 51.8217 28.5599 51.9116 28.7858C51.9488 28.8799 51.9317 28.9211 51.8285 28.9291C51.7757 28.9332 51.722 28.9456 51.6721 28.9636C51.4414 29.0473 51.2948 29.0237 51.1438 28.7734C50.809 28.2175 49.8041 28.2612 49.4292 28.5743C49.1247 28.8287 49.1848 29.2996 49.5509 29.4866C49.8657 29.6476 50.2205 29.6532 50.5587 29.7213C50.8789 29.7858 51.201 29.8382 51.4947 29.9944C52.2459 30.3937 52.3823 31.3889 51.7572 31.9659C51.3432 32.348 50.829 32.4369 50.2992 32.4429Z" fill="#232323"/>
<path d="M152.53 32.441C152.109 32.435 151.604 32.3477 151.186 31.9841C150.964 31.7907 150.827 31.5435 150.726 31.2724C150.696 31.1931 150.707 31.1515 150.796 31.1423C150.829 31.1387 150.863 31.1331 150.894 31.1218C151.178 31.0217 151.418 30.9941 151.527 31.371C151.569 31.5143 151.719 31.6093 151.859 31.6757C152.326 31.8956 152.809 31.9348 153.296 31.7594C153.613 31.6453 153.783 31.395 153.77 31.1143C153.758 30.848 153.59 30.6349 153.258 30.55C152.833 30.4411 152.396 30.3802 151.968 30.2781C151.503 30.1671 151.096 29.9589 150.934 29.4663C150.728 28.8396 151.035 28.1872 151.671 27.9313C152.294 27.6806 152.925 27.7079 153.54 27.9726C153.887 28.1219 154.112 28.3986 154.255 28.7439C154.299 28.8508 154.322 28.9365 154.157 28.9349C154.125 28.9349 154.093 28.9509 154.06 28.9597C153.827 29.0258 153.659 29.053 153.493 28.7675C153.174 28.2181 152.167 28.2641 151.795 28.5693C151.462 28.8424 151.551 29.3442 151.972 29.5196C152.27 29.6437 152.595 29.6601 152.908 29.721C153.209 29.7795 153.511 29.8292 153.791 29.9629C154.209 30.1631 154.458 30.4831 154.498 30.9493C154.54 31.4523 154.344 31.8439 153.921 32.1202C153.533 32.3742 153.095 32.4426 152.53 32.4422V32.441Z" fill="#232323"/>
<path d="M3.18412 28.6537C3.30129 28.5027 3.38476 28.3842 3.47947 28.2757C4.07658 27.592 5.12757 27.6036 5.71306 28.2941C5.88882 28.5015 5.97309 28.7438 5.99317 29.0057C6.07582 30.0758 6.01282 31.1482 6.0333 32.2195C6.03487 32.2964 6.00842 32.3176 5.93135 32.3252C5.37635 32.3793 5.37836 32.3813 5.37635 31.8322C5.37357 30.9804 5.37396 30.1282 5.3611 29.2768C5.35548 28.8972 5.20421 28.5884 4.82379 28.4446C4.41728 28.2909 4.04528 28.377 3.72425 28.6553C3.37473 28.9584 3.23588 29.3621 3.23267 29.8127C3.22705 30.5916 3.22745 31.3709 3.23427 32.1498C3.23548 32.2852 3.20939 32.3416 3.06292 32.3252C2.89197 32.306 2.66564 32.3945 2.56131 32.2924C2.45577 32.1891 2.53081 31.9636 2.53041 31.7918C2.528 30.5599 2.53242 29.3281 2.52479 28.0962C2.52359 27.9288 2.56773 27.8848 2.73427 27.8888C3.18412 27.9 3.18452 27.892 3.18452 28.3309V28.6541L3.18412 28.6537Z" fill="#232323"/>
<path d="M170.362 28.6538C170.488 28.4948 170.57 28.3767 170.666 28.2698C171.254 27.6114 172.245 27.6002 172.847 28.2373C173.076 28.4792 173.168 28.7727 173.185 29.0903C173.239 30.1284 173.197 31.1675 173.211 32.206C173.212 32.2889 173.19 32.3173 173.1 32.3233C172.555 32.3618 172.555 32.3646 172.555 31.8211C172.555 31.0218 172.557 30.2224 172.553 29.4235C172.552 29.0899 172.502 28.77 172.205 28.5521C171.847 28.2898 171.326 28.3114 170.958 28.6089C170.572 28.9209 170.418 29.3402 170.416 29.8224C170.413 30.5949 170.411 31.3678 170.42 32.1403C170.421 32.2929 170.38 32.3413 170.232 32.3229C170.062 32.3017 169.834 32.3962 169.735 32.2829C169.651 32.1864 169.707 31.9665 169.707 31.8011C169.706 30.562 169.71 29.3234 169.703 28.0843C169.702 27.925 169.745 27.8845 169.902 27.8877C170.362 27.8965 170.362 27.8893 170.362 28.3406C170.362 28.4268 170.362 28.512 170.362 28.6538Z" fill="#232323"/>
<path d="M145.048 28.6196C145.316 28.2132 145.634 27.9004 146.123 27.7991C146.872 27.6437 147.795 28.1034 147.838 29.1239C147.882 30.1482 147.848 31.173 147.861 32.1975C147.863 32.2912 147.838 32.32 147.74 32.3244C147.204 32.3484 147.204 32.3516 147.204 31.8322C147.204 31.0401 147.207 30.2483 147.204 29.4562C147.202 29.1395 147.171 28.8255 146.909 28.5988C146.533 28.2736 145.946 28.3017 145.554 28.6505C145.138 29.0209 145.052 29.5079 145.052 30.0273C145.052 30.7193 145.047 31.4117 145.055 32.1038C145.058 32.2667 145.035 32.3544 144.845 32.3236C144.689 32.2988 144.472 32.3917 144.387 32.2872C144.308 32.1895 144.357 31.9836 144.357 31.8254C144.356 30.5808 144.36 29.3361 144.352 28.0918C144.351 27.9212 144.402 27.884 144.564 27.8876C145.011 27.898 145.009 27.8904 145.013 28.3321C145.014 28.4238 144.984 28.5235 145.048 28.6189V28.6196Z" fill="#232323"/>
<path d="M115.67 28.6864C115.812 28.4754 115.928 28.3164 116.071 28.1786C116.705 27.5671 117.726 27.6488 118.256 28.3512C118.443 28.5987 118.501 28.8871 118.506 29.1782C118.523 30.1902 118.519 31.2026 118.526 32.2146C118.526 32.2866 118.513 32.3151 118.429 32.3231C117.876 32.3756 117.876 32.3779 117.876 31.8317C117.876 31.0792 117.877 30.3263 117.876 29.5739C117.876 29.4609 117.872 29.3476 117.861 29.235C117.823 28.8566 117.668 28.5555 117.283 28.4277C116.888 28.2967 116.53 28.3845 116.221 28.6515C115.825 28.9931 115.721 29.4545 115.718 29.9483C115.714 30.6808 115.713 31.4136 115.72 32.1461C115.721 32.2802 115.696 32.3371 115.549 32.3231C115.384 32.3075 115.16 32.3779 115.065 32.2943C114.954 32.1969 115.03 31.9699 115.029 31.7997C115.026 30.561 115.03 29.322 115.024 28.0833C115.023 27.9291 115.059 27.8823 115.219 27.8863C115.669 27.8967 115.669 27.8891 115.669 28.3452C115.669 28.4381 115.669 28.531 115.669 28.686L115.67 28.6864Z" fill="#232323"/>
<path d="M94.4263 29.6713C94.4263 30.4967 94.4224 31.3221 94.4297 32.147C94.4312 32.284 94.3999 32.3353 94.2577 32.3228C94.1115 32.3104 93.9634 32.312 93.8168 32.3228C93.6956 32.3316 93.6594 32.2968 93.6609 32.171C93.6687 31.6521 93.6643 31.1326 93.6643 30.6136C93.6643 29.4687 93.6619 28.3241 93.6672 27.1792C93.6682 27.0438 93.6394 26.9977 93.4942 27.001C93.0338 27.011 92.5724 27.0018 92.1115 27.0066C92.002 27.0078 91.9355 27.0002 91.9497 26.8616C91.9668 26.6978 91.9013 26.4824 91.9844 26.3798C92.0724 26.2713 92.2962 26.347 92.46 26.3466C93.6223 26.3434 94.785 26.3486 95.9468 26.3406C96.1164 26.3394 96.1585 26.3867 96.155 26.5508C96.1448 27.0038 96.1526 27.0038 95.7024 27.0038C95.3349 27.0038 94.9669 27.0102 94.6003 27.0006C94.462 26.997 94.4219 27.033 94.4229 27.1744C94.4297 28.0061 94.4268 28.8383 94.4268 29.6701L94.4263 29.6713Z" fill="#232323"/>
<path d="M27.7808 29.3367C27.7808 28.4048 27.7836 27.4725 27.7776 26.5407C27.7768 26.3949 27.7992 26.3236 27.9674 26.3416C28.1191 26.358 28.2748 26.3504 28.4281 26.3432C28.534 26.338 28.5681 26.376 28.5649 26.4802C28.5581 26.6796 28.5629 26.8794 28.5629 27.0793C28.5629 28.5374 28.5653 29.9951 28.5593 31.4532C28.5585 31.6082 28.5966 31.6527 28.7559 31.651C29.5509 31.6423 30.3462 31.651 31.1412 31.6439C31.2857 31.6426 31.3499 31.6703 31.333 31.8277C31.3161 31.9846 31.382 32.1953 31.3013 32.289C31.2162 32.3883 30.9996 32.3182 30.8402 32.3187C29.8847 32.3214 28.9293 32.3166 27.9738 32.3235C27.8237 32.3246 27.7744 32.295 27.7756 32.1328C27.7844 31.2009 27.78 30.2686 27.78 29.3367H27.7808Z" fill="#232323"/>
<path d="M77.0185 30.3952C77.0185 30.9743 77.0145 31.5534 77.0209 32.1325C77.0228 32.269 77.0062 32.3455 76.8415 32.3235C76.6719 32.3007 76.4437 32.3948 76.3449 32.2863C76.2609 32.1942 76.3171 31.9711 76.3171 31.8061C76.3156 30.7477 76.3122 29.6892 76.321 28.6312C76.322 28.4685 76.2726 28.4213 76.1225 28.4429C76.0702 28.4505 76.016 28.4442 75.9627 28.4442C75.5209 28.4442 75.5238 28.4442 75.5585 28.0012C75.5654 27.9119 75.5966 27.8879 75.6788 27.8903C75.8327 27.8947 75.9872 27.8819 76.1397 27.8943C76.2746 27.9055 76.3259 27.8702 76.3239 27.7269C76.3205 27.5347 76.3596 27.3441 76.3933 27.1538C76.4862 26.6336 76.8234 26.3649 77.3137 26.2544C77.6113 26.1871 77.9109 26.2239 78.2096 26.2588C78.3156 26.2712 78.3362 26.326 78.3303 26.419C78.3225 26.5447 78.3709 26.7049 78.3102 26.7886C78.2418 26.8827 78.083 26.7854 77.9627 26.7826C77.1441 26.7626 77.0038 27.1558 77.0175 27.8094C77.0194 27.9063 77.083 27.8911 77.1406 27.8911C77.4012 27.8919 77.6621 27.8951 77.9227 27.8895C78.0258 27.8875 78.0756 27.9027 78.0781 28.0268C78.0869 28.4442 78.0928 28.4442 77.667 28.4442C77.5004 28.4442 77.3327 28.4537 77.1665 28.4409C77.0365 28.4313 77.0145 28.4806 77.0155 28.5975C77.0209 29.1966 77.0185 29.7961 77.0185 30.3952Z" fill="#232323"/>
<path d="M53.876 29.9209C53.876 30.3406 53.873 30.76 53.8765 31.1796C53.8804 31.6726 54.0954 31.8865 54.5871 31.8869C54.7201 31.8869 54.8535 31.8708 54.986 31.8617C55.0192 31.8592 55.0734 31.842 55.0808 31.8536C55.1653 31.9926 55.1003 32.1468 55.1184 32.2937C55.1253 32.3474 55.1238 32.3955 55.0441 32.4047C54.657 32.4495 54.2689 32.4888 53.8941 32.3506C53.4478 32.1856 53.2503 31.8284 53.2147 31.3795C53.1638 30.7415 53.202 30.1016 53.1941 29.4628C53.1902 29.1697 53.1878 28.8765 53.1966 28.5838C53.2 28.4672 53.1629 28.4364 53.0509 28.442C52.8774 28.4508 52.7029 28.4384 52.5294 28.4464C52.4292 28.4512 52.4116 28.4136 52.4087 28.3219C52.395 27.8914 52.3916 27.8914 52.8256 27.8914C53.2049 27.8914 53.2034 27.8914 53.2073 27.5129C53.2088 27.3267 53.2156 27.1405 53.2196 26.9538C53.22 26.9338 53.2132 26.911 53.221 26.8942C53.3413 26.6343 53.5891 26.7953 53.7719 26.7356C53.9253 26.6855 53.8711 26.8357 53.8725 26.9038C53.8789 27.1765 53.8843 27.4504 53.8716 27.7228C53.8647 27.8698 53.9165 27.9006 54.0514 27.8938C54.2714 27.883 54.4928 27.8954 54.7127 27.8889C54.8168 27.8862 54.8647 27.9026 54.8672 28.0259C54.876 28.4436 54.8814 28.44 54.4596 28.4452C54.2675 28.4476 54.0114 28.3619 53.9014 28.4804C53.8071 28.5826 53.8755 28.8349 53.8745 29.0211C53.8735 29.3206 53.8745 29.6206 53.8745 29.9202L53.876 29.9209Z" fill="#232323"/>
<path d="M160.309 29.942C160.309 29.4959 160.304 29.0501 160.313 28.6044C160.315 28.4711 160.276 28.429 160.145 28.4414C160.033 28.4522 159.919 28.4438 159.805 28.4438C159.615 28.4438 159.52 28.3506 159.52 28.1643C159.52 27.8908 159.52 27.8948 159.795 27.8896C159.96 27.8864 160.171 27.9604 160.278 27.8599C160.387 27.7574 160.304 27.544 160.32 27.3798C160.334 27.2412 160.346 27.0994 160.332 26.9621C160.315 26.7919 160.396 26.7574 160.538 26.7643C160.684 26.7711 160.87 26.6609 160.96 26.7522C161.055 26.8483 160.986 27.043 160.99 27.1939C160.994 27.3801 160.998 27.5672 160.988 27.753C160.982 27.8708 161.026 27.8972 161.136 27.8936C161.369 27.886 161.603 27.8972 161.837 27.8888C161.953 27.8844 161.981 27.9252 161.983 28.0357C161.992 28.4442 161.996 28.4442 161.584 28.4442C161.424 28.4442 161.264 28.4486 161.103 28.4426C161.017 28.4394 160.989 28.4638 160.989 28.5531C160.994 29.4714 160.987 30.3901 160.999 31.3084C161.003 31.6524 161.221 31.8538 161.569 31.8818C161.75 31.8963 161.93 31.8943 162.108 31.857C162.202 31.837 162.233 31.8546 162.237 31.9587C162.257 32.4049 162.244 32.4261 161.796 32.4393C161.549 32.4465 161.303 32.4485 161.063 32.3688C160.611 32.2191 160.339 31.8578 160.32 31.32C160.302 30.8614 160.316 30.4017 160.316 29.9428C160.313 29.9428 160.311 29.9428 160.309 29.9428L160.309 29.942Z" fill="#232323"/>
<path d="M87.6286 29.9084C87.6286 29.4823 87.6193 29.0562 87.633 28.6305C87.6378 28.4655 87.5811 28.425 87.4335 28.4427C87.348 28.4527 87.2595 28.4491 87.173 28.4435C87.0689 28.4363 86.9111 28.4956 86.8715 28.4179C86.8011 28.2801 86.8446 28.1063 86.8519 27.9481C86.8553 27.8684 86.9306 27.8936 86.978 27.8929C87.152 27.8904 87.326 27.8844 87.499 27.8945C87.6085 27.9009 87.6339 27.8564 87.6354 27.7599C87.6408 27.4812 87.6574 27.2024 87.6584 26.9237C87.6584 26.8164 87.6843 26.7675 87.8006 26.7663C87.9267 26.7651 88.0538 26.7503 88.1784 26.7299C88.2884 26.7118 88.3143 26.7503 88.3119 26.8552C88.3055 27.1548 88.3148 27.4544 88.3065 27.7535C88.3035 27.87 88.3417 27.898 88.4526 27.8945C88.6862 27.8864 88.9199 27.8961 89.154 27.89C89.2581 27.8877 89.307 27.9041 89.3094 28.0278C89.3182 28.4447 89.3236 28.4447 88.8984 28.4447C88.7449 28.4447 88.5904 28.4523 88.438 28.4423C88.327 28.4351 88.3074 28.4779 88.3079 28.5777C88.3114 29.4627 88.3055 30.3481 88.3119 31.2332C88.3148 31.6513 88.5401 31.8747 88.9556 31.8867C89.1017 31.8912 89.2517 31.8896 89.3945 31.8631C89.524 31.8391 89.565 31.8559 89.5636 31.9985C89.5606 32.4186 89.567 32.4214 89.1442 32.4378C88.9849 32.4442 88.8221 32.4506 88.6642 32.4298C88.0117 32.3429 87.6799 31.9628 87.6344 31.2664C87.6325 31.2332 87.6286 31.1999 87.6286 31.1667C87.6286 30.7474 87.6286 30.3277 87.6286 29.9084Z" fill="#232323"/>
<path d="M0.345983 29.3435C0.345983 28.4048 0.349595 27.4656 0.342372 26.5269C0.341167 26.3792 0.374073 26.3291 0.526964 26.3423C0.712763 26.3587 0.966378 26.2775 1.07031 26.3712C1.1907 26.4797 1.10603 26.7352 1.10643 26.9266C1.10924 28.6579 1.10563 30.3891 1.11245 32.1203C1.11325 32.2861 1.07553 32.341 0.906988 32.3238C0.728814 32.3057 0.487238 32.3834 0.384908 32.2933C0.266126 32.1892 0.348792 31.9441 0.347989 31.7607C0.343977 30.955 0.345983 30.1492 0.345983 29.3435Z" fill="#232323"/>
<path d="M96.9268 28.8148C97.0505 28.6382 97.1428 28.4624 97.2557 28.2978C97.5206 27.9134 97.8877 27.744 98.3516 27.7632C98.4542 27.7676 98.5197 27.7888 98.4982 27.9086C98.4967 27.915 98.4982 27.9218 98.4982 27.9286C98.4982 28.0815 98.5441 28.2566 98.4845 28.3823C98.4165 28.5277 98.2152 28.4376 98.0744 28.472C97.5681 28.5966 97.1614 29.0371 97.0534 29.6097C97.025 29.7607 97.0114 29.9117 97.0118 30.0659C97.0148 30.7647 97.0094 31.4639 97.0162 32.1627C97.0182 32.2973 96.9776 32.3325 96.8501 32.3229C96.6775 32.3101 96.4503 32.3778 96.3457 32.2917C96.2357 32.2008 96.3124 31.9665 96.3119 31.7951C96.3095 30.5637 96.3134 29.3318 96.3075 28.1004C96.3066 27.9426 96.3339 27.8809 96.5104 27.8865C96.9263 27.8997 96.9263 27.8897 96.9263 28.3034L96.9268 28.8148Z" fill="#232323"/>
<path d="M132.844 28.8018C132.979 28.6296 133.066 28.4426 133.187 28.2752C133.457 27.9052 133.819 27.741 134.275 27.7638C134.385 27.7694 134.438 27.8007 134.421 27.9148C134.419 27.928 134.421 27.9412 134.421 27.9548C134.42 28.1014 134.466 28.2704 134.407 28.3886C134.339 28.5275 134.145 28.437 134.008 28.4691C133.462 28.596 133.046 29.0665 132.955 29.6913C132.933 29.843 132.922 29.9948 132.922 30.1486C132.925 30.821 132.92 31.4938 132.926 32.1662C132.927 32.2815 132.909 32.3364 132.777 32.324C132.637 32.3112 132.496 32.3136 132.356 32.3236C132.245 32.3312 132.226 32.2876 132.226 32.1874C132.229 30.8022 132.229 29.4174 132.226 28.0322C132.226 27.9164 132.263 27.8904 132.373 27.8888C132.843 27.882 132.843 27.8783 132.843 28.3485C132.843 28.4995 132.843 28.6509 132.843 28.8018H132.844Z" fill="#232323"/>
<path d="M37.49 28.8647C37.6176 28.6477 37.7139 28.4614 37.8306 28.2893C38.0875 27.9108 38.4542 27.7478 38.9105 27.7626C39.0345 27.7666 39.0811 27.8079 39.061 27.9272C39.0598 27.9336 39.061 27.9404 39.061 27.9472C39.0602 28.1002 39.1096 28.2808 39.0445 28.399C38.9795 28.5179 38.7789 28.4418 38.6392 28.4747C38.1164 28.5972 37.7022 29.0685 37.6091 29.6729C37.5866 29.8179 37.575 29.9628 37.5758 30.1098C37.5782 30.7958 37.5742 31.4818 37.5798 32.1678C37.5806 32.2855 37.5594 32.3364 37.429 32.3244C37.2965 32.312 37.1609 32.3116 37.0285 32.3244C36.8952 32.3376 36.8791 32.2811 36.8796 32.1662C36.8832 30.7942 36.884 29.4222 36.8788 28.0501C36.8784 27.9116 36.9261 27.8884 37.0501 27.8892C37.4903 27.8908 37.4903 27.8864 37.4903 28.3165L37.49 28.8647Z" fill="#232323"/>
<path d="M162.981 30.1041C162.981 29.4254 162.985 28.7466 162.978 28.0682C162.977 27.9324 163.008 27.8755 163.153 27.8896C163.318 27.9052 163.538 27.8383 163.636 27.922C163.752 28.0201 163.674 28.2464 163.674 28.4162C163.678 29.6536 163.673 30.8915 163.68 32.1289C163.681 32.2839 163.644 32.3448 163.485 32.3232C163.322 32.3007 163.103 32.3953 163.009 32.2843C162.929 32.1898 162.982 31.98 162.981 31.8214C162.98 31.2491 162.981 30.6764 162.981 30.1041Z" fill="#232323"/>
<path d="M149.923 30.102C149.923 30.7872 149.92 31.4724 149.926 32.1577C149.927 32.2822 149.903 32.3383 149.766 32.3231C149.595 32.3038 149.369 32.3939 149.265 32.2894C149.162 32.1861 149.236 31.9618 149.236 31.7908C149.234 30.5601 149.238 29.3291 149.231 28.0985C149.23 27.9395 149.258 27.8646 149.434 27.889C149.591 27.9111 149.798 27.8226 149.895 27.9234C149.99 28.0228 149.922 28.2274 149.923 28.3852C149.925 28.9575 149.923 29.5294 149.923 30.1016L149.923 30.102Z" fill="#232323"/>
<path d="M12.9393 30.1021C12.9393 30.7877 12.9361 31.4729 12.9421 32.1585C12.9433 32.2855 12.9152 32.3371 12.78 32.3223C12.6022 32.3027 12.3635 32.396 12.2616 32.2842C12.1741 32.1885 12.2375 31.9546 12.2375 31.7816C12.2371 30.5506 12.2395 29.3192 12.2338 28.0881C12.2331 27.9372 12.264 27.8671 12.4293 27.8887C12.5926 27.9103 12.8093 27.8186 12.9096 27.9235C13.0083 28.0268 12.9365 28.2403 12.9377 28.4049C12.9413 28.9704 12.9393 29.5362 12.9393 30.1021Z" fill="#232323"/>
<path d="M113.661 30.103C113.661 30.7886 113.658 31.4738 113.665 32.1594C113.666 32.2884 113.634 32.334 113.501 32.3228C113.329 32.3084 113.099 32.3785 112.998 32.2916C112.882 32.1919 112.962 31.9564 112.961 31.7802C112.958 30.5491 112.962 29.3177 112.956 28.0866C112.955 27.9336 112.99 27.8672 113.153 27.8884C113.316 27.9096 113.535 27.8183 113.631 27.9249C113.712 28.015 113.66 28.2276 113.661 28.3858C113.663 28.9581 113.662 29.5303 113.662 30.1026L113.661 30.103Z" fill="#232323"/>
<path d="M19.0451 28.2738C19.1715 27.9654 19.2826 27.6751 19.4098 27.3916C19.4661 27.2662 19.4488 27.235 19.3103 27.2362C19.0407 27.239 19.0407 27.2322 19.0407 26.9607C19.0407 26.7941 19.0447 26.6279 19.0391 26.4613C19.0362 26.3748 19.0676 26.3435 19.1534 26.3448C19.3874 26.3484 19.6213 26.3484 19.8549 26.3448C19.9339 26.3435 19.9588 26.372 19.9576 26.4492C19.954 26.6887 19.9548 26.9286 19.9572 27.1681C19.958 27.2398 19.9203 27.2931 19.8874 27.3507C19.7526 27.5874 19.6197 27.8253 19.4849 28.062C19.3961 28.2182 19.2495 28.2885 19.0451 28.2738Z" fill="#232323"/>
<path d="M162.957 26.7187C162.957 26.4707 163.081 26.3467 163.329 26.3467C163.576 26.3467 163.702 26.4705 163.706 26.7183C163.706 26.9858 163.57 27.1196 163.299 27.1196C163.071 27.1196 162.957 26.986 162.957 26.7187Z" fill="#232323"/>
<path d="M12.9607 26.7375C12.9607 26.9922 12.832 27.1196 12.5746 27.1196C12.3326 27.1196 12.2115 26.9996 12.2115 26.7595C12.2115 26.4843 12.3484 26.3467 12.6224 26.3467C12.8477 26.3467 12.9607 26.4769 12.9607 26.7375Z" fill="#232323"/>
<path d="M112.935 26.7263C112.935 26.4732 113.063 26.3467 113.319 26.3467C113.563 26.3467 113.684 26.4682 113.684 26.7111C113.684 26.9834 113.558 27.1196 113.305 27.1196C113.058 27.1196 112.935 26.9885 112.935 26.7263H112.935Z" fill="#232323"/>
<path d="M149.945 26.7443C149.945 26.9945 149.822 27.1196 149.576 27.1196C149.33 27.1196 149.206 26.9971 149.203 26.7523C149.203 26.4819 149.341 26.3467 149.618 26.3467C149.836 26.3467 149.945 26.4792 149.945 26.7443Z" fill="#232323"/>
<path d="M166.974 5.19197C166.974 4.39343 166.977 3.59449 166.97 2.79595C166.969 2.65619 167.003 2.62015 167.145 2.62215C167.892 2.63176 168.641 2.61935 169.389 2.63617C169.842 2.64618 170.268 2.7487 170.618 3.07869C171.174 3.6041 171.266 4.97053 170.238 5.43065C170.117 5.48509 170.11 5.53517 170.156 5.6497C170.42 6.29449 170.673 6.94365 170.934 7.58921C170.983 7.71132 170.999 7.77703 170.824 7.7646C170.611 7.74978 170.396 7.75178 170.183 7.7646C170.046 7.77261 169.985 7.72696 169.939 7.59839C169.72 7.00047 169.487 6.40781 169.267 5.81028C169.227 5.70177 169.181 5.65573 169.058 5.65932C168.724 5.66933 168.39 5.66772 168.056 5.66015C167.939 5.65733 167.913 5.69536 167.914 5.80591C167.92 6.39819 167.913 6.99047 167.92 7.5828C167.921 7.71656 167.894 7.77383 167.746 7.7646C167.54 7.75178 167.331 7.75338 167.125 7.7646C166.999 7.7714 166.97 7.72934 166.971 7.60801C166.976 6.80264 166.974 5.99733 166.974 5.19197ZM167.917 4.12311C167.917 4.34257 167.92 4.56163 167.916 4.78108C167.914 4.86678 167.926 4.91487 168.032 4.91244C168.438 4.90442 168.846 4.91686 169.252 4.89884C169.668 4.88038 169.956 4.65414 170.025 4.32815C170.132 3.81956 169.833 3.41908 169.295 3.38905C168.876 3.36582 168.455 3.38344 168.035 3.37623C167.932 3.37463 167.914 3.41548 167.916 3.50478C167.921 3.71063 167.917 3.91687 167.917 4.12271L167.917 4.12311Z" fill="#232323"/>
</g>
<defs>
<clipPath id="clip0_308_651">
<rect width="174" height="34" fill="white"/>
</clipPath>
</defs>
</svg>
