<svg width="56" height="56" viewBox="0 0 56 56" fill="none" xmlns="http://www.w3.org/2000/svg">
<g clip-path="url(#clip0_326_2855)">
<path d="M7.45391 51.5705H38.1883V54.4132C38.1883 55.1854 37.5594 55.8143 36.7872 55.8143H1.40219C0.63 55.8154 0 55.1865 0 54.4143V7.63787C0 6.86568 0.628906 6.23678 1.40109 6.23678H4.24375V48.3615C4.24484 50.1322 5.68313 51.5705 7.45391 51.5705ZM18.4822 39.3862C18.9011 38.5462 18.935 38.0091 18.7425 37.7269C18.6058 37.529 18.3148 37.4262 17.9616 37.4174C17.4902 37.4087 16.9509 37.5662 16.4609 37.8822C15.5466 38.474 14.8389 39.6399 15.1244 41.3582C15.19 41.7585 15.3475 42.0965 15.5652 42.3721C15.6242 42.3283 15.6866 42.2879 15.7423 42.2485C16.9411 41.4019 17.9823 40.388 18.4822 39.3862ZM33.9588 1.09068V10.4663H43.3377L33.9588 1.09068ZM43.2261 43.7207H44.24V48.3615C44.24 49.1337 43.6111 49.7658 42.8389 49.7658H7.45391C6.68172 49.7658 6.04953 49.1337 6.04953 48.3615V1.58943C6.04953 0.813965 6.68172 0.185059 7.45391 0.185059H32.1552V11.3708C32.1552 11.8674 32.5588 12.2732 33.0575 12.2732H44.2411V16.5924H43.2272C42.1827 16.5924 41.265 17.2585 40.9423 18.2538L40.6481 19.1562C40.0838 19.3388 39.5347 19.5685 39.0053 19.8387L38.162 19.4077C37.2291 18.9297 36.1069 19.1102 35.3686 19.8485L33.9336 21.2835C33.273 21.9441 33.0619 22.911 33.3659 23.7762H11.853C11.3542 23.7762 10.9473 24.1797 10.9473 24.6785C10.9473 25.1772 11.3531 25.5808 11.853 25.5808H33.612C33.472 25.9035 33.3484 26.2316 33.2402 26.5641L32.3378 26.8551C31.3425 27.181 30.6764 28.0987 30.6764 29.1432V30.3649H11.853C11.3542 30.3649 10.9473 30.7685 10.9473 31.2672C10.9473 31.766 11.3531 32.1696 11.853 32.1696H30.893C31.1653 32.7712 31.6805 33.2458 32.3378 33.4591L33.2402 33.7501C33.4261 34.3144 33.6525 34.8635 33.9227 35.3929L33.4917 36.2394C33.017 37.1691 33.1942 38.2924 33.9314 39.0296L35.3664 40.4646C36.1047 41.2029 37.2269 41.3822 38.1598 40.9076L39.0031 40.4766C39.5336 40.7435 40.0816 40.9732 40.6459 41.1558L40.9402 42.0582C41.2639 43.0546 42.1816 43.7207 43.2261 43.7207ZM11.2088 4.91334C11.2088 5.4099 11.6123 5.81568 12.1111 5.81568H26.9959C27.4947 5.81568 27.9016 5.4099 27.9016 4.91334C27.9016 4.41459 27.4958 4.00772 26.9959 4.00772H12.11C11.6112 4.00772 11.2088 4.4135 11.2088 4.91334ZM11.2088 11.501C11.2088 11.9997 11.6123 12.4033 12.1111 12.4033H26.9959C27.4947 12.4033 27.9016 11.9997 27.9016 11.501C27.9016 11.0022 27.4958 10.5954 26.9959 10.5954H12.11C11.6112 10.5965 11.2088 11.0022 11.2088 11.501ZM11.2088 18.0897C11.2088 18.5885 11.6123 18.9921 12.1111 18.9921H38.1828C38.6816 18.9921 39.0852 18.5885 39.0852 18.0897C39.0852 17.591 38.6816 17.1874 38.1828 17.1874H12.11C11.6112 17.1874 11.2088 17.591 11.2088 18.0897ZM26.3353 43.1476C26.0258 42.7571 25.4581 42.698 25.0698 43.0076C24.7253 43.2832 24.3502 43.4604 23.9881 43.5347V43.538C23.7213 43.5905 23.4675 43.5872 23.2498 43.5227C23.0672 43.4702 22.9053 43.3707 22.7905 43.2285C22.6909 43.1049 22.6166 42.9496 22.5739 42.7571C22.5367 42.5274 22.4153 42.3108 22.2141 42.1654C21.8138 41.8712 21.2494 41.9576 20.9552 42.3579C20.5712 42.8818 19.8363 43.2296 19.005 43.3652C18.4691 43.4549 17.9014 43.4516 17.3644 43.3532L17.2987 43.3379C18.5019 42.4104 19.5344 41.3166 20.0955 40.1912C20.8523 38.6785 20.7714 37.5093 20.2289 36.713C19.7422 36.0032 18.9208 35.6401 17.9933 35.6215C17.1839 35.6062 16.2761 35.8599 15.4788 36.3751C14.0372 37.308 12.9183 39.0876 13.3459 41.6524C13.4509 42.2879 13.6806 42.8369 14.0066 43.3018C13.1731 43.7262 12.3638 44.0269 11.6845 44.1571C11.1945 44.2468 10.8719 44.7182 10.9648 45.2082C11.0545 45.6949 11.5259 46.0176 12.0159 45.9279C13.0266 45.7354 14.2516 45.2454 15.4448 44.5694C15.9348 44.8363 16.4741 45.019 17.0319 45.124C17.7756 45.264 18.5544 45.2662 19.2916 45.1458C20.0572 45.019 20.7823 44.7521 21.3872 44.3616C21.747 44.8046 22.2152 45.0999 22.7456 45.2541C23.2422 45.3963 23.7869 45.4127 24.3392 45.3033V45.3066C24.9747 45.1797 25.62 44.879 26.1964 44.4141C26.5858 44.1024 26.6481 43.5347 26.3353 43.1476ZM56 29.1432V31.171C56 31.4346 55.8359 31.6577 55.5844 31.7419L54.0772 32.2319C53.8792 32.2943 53.7392 32.4463 53.6834 32.6476C53.457 33.5094 53.1158 34.3254 52.6794 35.0757C52.5744 35.2551 52.5678 35.4596 52.6641 35.6488L53.3837 37.0597C53.5019 37.2949 53.4581 37.5683 53.2722 37.7543L51.8394 39.1893C51.6534 39.3752 51.3778 39.419 51.1448 39.2976L49.7306 38.5779C49.5447 38.4849 49.3402 38.4882 49.1575 38.5965C48.4072 39.034 47.5923 39.3752 46.7294 39.6005C46.5281 39.653 46.3794 39.7963 46.3138 39.9943L45.8237 41.5015C45.7428 41.753 45.5164 41.9138 45.2528 41.9138H43.225C42.9614 41.9138 42.7383 41.753 42.6573 41.5015L42.1673 39.9943C42.1017 39.7963 41.953 39.653 41.7484 39.6005C40.8898 39.3741 40.0739 39.0329 39.3236 38.5965C39.1409 38.4882 38.9364 38.4849 38.7505 38.5779L37.3363 39.2976C37.1011 39.419 36.8277 39.3752 36.6417 39.1893L35.2067 37.7543C35.0208 37.5683 34.977 37.2949 35.0984 37.0597L35.8181 35.6488C35.9144 35.4596 35.9078 35.2551 35.8028 35.0757C35.3653 34.3254 35.0219 33.5105 34.7955 32.6476C34.743 32.4463 34.603 32.2943 34.4017 32.2319L32.8945 31.7419C32.643 31.6577 32.4822 31.4346 32.4822 31.171V29.1432C32.4822 28.8796 32.643 28.6565 32.8945 28.5755L34.4039 28.0855C34.6019 28.0199 34.7419 27.8712 34.7944 27.6666C35.0241 26.8047 35.3653 25.9921 35.8017 25.2385C35.9067 25.0591 35.9133 24.8535 35.817 24.6654L35.0973 23.2544C34.9759 23.0193 35.0197 22.7458 35.2056 22.5599L36.6406 21.1249C36.8266 20.939 37.1 20.8952 37.3352 21.0166L38.7494 21.7363C38.9353 21.8326 39.1398 21.826 39.3225 21.721C40.0728 21.2802 40.8877 20.9401 41.7473 20.7137C41.9519 20.6612 42.1006 20.5179 42.1662 20.3199L42.6562 18.8127C42.7372 18.5612 42.9603 18.4004 43.2239 18.4004H45.2517C45.5153 18.4004 45.7417 18.5612 45.8227 18.8127L46.3127 20.3199C46.3783 20.5179 46.527 20.6612 46.7283 20.7137C47.5902 20.9401 48.4061 21.2813 49.1564 21.721C49.3391 21.826 49.5436 21.8326 49.7295 21.7363L51.1437 21.0166C51.3767 20.8952 51.6523 20.939 51.8383 21.1249L53.2711 22.5599C53.457 22.7458 53.5008 23.0193 53.3827 23.2544L52.663 24.6687C52.5667 24.8546 52.5733 25.0591 52.6783 25.2396C53.1158 25.9932 53.4559 26.8047 53.6823 27.6677C53.7348 27.8722 53.8781 28.021 54.0761 28.0866L55.5855 28.5766C55.8348 28.6565 56 28.8796 56 29.1432ZM50.4066 30.156C50.4066 26.761 47.635 23.9927 44.24 23.9927C40.845 23.9927 38.0767 26.761 38.0767 30.156C38.0767 33.551 40.845 36.3193 44.24 36.3193C47.635 36.3204 50.4066 33.551 50.4066 30.156ZM46.4439 27.8438L43.7347 30.553L42.0383 28.8566C41.685 28.5033 41.1108 28.5033 40.7608 28.8566C40.4075 29.2099 40.4075 29.7808 40.7608 30.1341L43.0959 32.4682C43.4492 32.8215 44.0202 32.8215 44.3734 32.4682L47.7214 29.1202C48.0747 28.7669 48.0747 28.196 47.7214 27.8427C47.3681 27.4905 46.7972 27.4905 46.4439 27.8438Z" fill="#C6A04A"/>
</g>
<defs>
<clipPath id="clip0_326_2855">
<rect width="56" height="56" fill="white"/>
</clipPath>
</defs>
</svg>
