<svg width="56" height="56" viewBox="0 0 56 56" fill="none" xmlns="http://www.w3.org/2000/svg">
<path fill-rule="evenodd" clip-rule="evenodd" d="M47.9082 22.4583L45.7558 31.0679C45.4467 32.304 44.8815 33.2894 43.9705 34.1803L42.4388 35.678L42.4512 35.6901L42.4497 35.6918C42.4674 35.7095 42.4844 35.7284 42.5005 35.7482C43.3593 36.8065 43.1941 38.3714 42.1372 39.2274L36.5437 43.7556C36.2264 44.0136 35.7599 43.9655 35.502 43.6482C35.2439 43.3309 35.2921 42.8644 35.6094 42.6065L41.157 38.1155C41.1581 38.1146 41.159 38.1139 41.16 38.1129C41.3888 37.9122 41.5291 37.7379 41.5634 37.4119C41.592 37.14 41.5182 36.8893 41.3398 36.6716C41.3391 36.6708 41.3385 36.6701 41.3379 36.6693C40.7304 35.9706 39.6642 35.8725 38.9391 36.4594L32.5511 41.6306C31.065 42.8337 30.2799 44.4794 30.2799 46.3915V51.033C30.2799 51.7917 30.8987 52.4105 31.6574 52.4105H38.7447C39.489 52.4105 40.0977 51.8112 40.1094 51.0672C40.1508 48.4595 40.4593 47.335 42.7591 44.8359C44.848 42.566 46.9525 41.6031 48.5102 38.8185C50.6636 34.9688 50.5686 27.4804 50.9463 22.9477C51.0197 22.0667 50.3329 21.3202 49.4488 21.3202H49.366C48.6675 21.3201 48.0776 21.7806 47.9082 22.4583ZM24.1993 21.7203C24.1963 21.7347 24.1931 21.7491 24.1903 21.7637C24.3494 20.9463 24.7878 20.2528 25.4047 19.7717C25.442 19.7426 25.4536 19.6926 25.4327 19.65C24.5841 17.9181 25.5123 15.8174 27.3756 15.2861C27.4187 15.2738 27.4475 15.2358 27.4475 15.1909V14.0028C27.4475 11.5969 25.4853 9.63478 23.0795 9.63478H20.9326C18.0957 9.63478 16.9145 11.0645 15.6691 13.3302L12.4475 19.192C11.2159 21.4329 14.2398 22.7698 15.2216 20.9933L18.7683 14.575C18.7901 14.5355 18.8341 14.5161 18.8782 14.5266C18.9221 14.5372 18.9524 14.5744 18.954 14.6196C19.1499 20.5128 18.772 28.0285 19.0007 34.1904C19.0462 35.4147 20.0521 36.384 21.2772 36.384H22.3618C23.6165 36.384 24.6399 35.3606 24.6399 34.1059V27.6363C24.6399 27.6032 24.6251 27.5746 24.5981 27.5555L24.5315 27.5083C23.8642 27.0362 23.5253 26.244 23.6447 25.4353L24.1631 21.9233C24.1633 21.9223 24.1634 21.9213 24.1637 21.9203L24.1993 21.7203ZM28.2336 19.71C27.3019 19.71 26.5465 18.9546 26.5465 18.0228C26.5465 17.091 27.3018 16.3356 28.2336 16.3356C29.1655 16.3356 29.9208 17.091 29.9208 18.0228C29.9208 18.9545 29.1655 19.71 28.2336 19.71ZM25.2366 26.4908C24.9628 26.297 24.8301 25.9868 24.879 25.6549L25.3977 22.1414C25.5491 21.1163 26.4142 20.3695 27.4503 20.3695H29.017C30.0531 20.3695 30.9182 21.1163 31.0696 22.1414L31.5883 25.6549C31.6372 25.9868 31.5045 26.297 31.2306 26.4908C30.8944 26.7287 30.5791 26.9005 30.5791 27.4011V34.7915C30.5791 35.6686 29.8638 36.384 28.9868 36.384H27.4804C26.6034 36.384 25.8881 35.6686 25.8881 34.7915V27.4011C25.8881 26.9004 25.5728 26.7287 25.2366 26.4908ZM28.178 14.0028C28.178 11.5969 30.1402 9.63478 32.5461 9.63478H34.693C36.3633 9.63478 37.7042 10.4808 38.7088 11.8153L43.5593 18.2584C44.5185 19.5327 42.8789 22.1849 41.1346 20.0404L37.722 15.8445C37.6935 15.8095 37.6467 15.7981 37.6053 15.8164C37.5639 15.8347 37.5406 15.8768 37.5473 15.9216L39.1741 26.8821C39.1741 26.8821 37.6615 26.8821 37.0259 26.8821C36.9713 26.8821 36.9268 26.9266 36.9268 26.9811V34.106C36.9268 35.3607 35.9035 36.3841 34.6488 36.3841H34.18C32.9253 36.3841 31.902 35.3607 31.902 34.106V27.6364C31.902 27.6033 31.9168 27.5747 31.9439 27.5556L32.0105 27.5084C32.6815 27.0338 33.0163 26.2383 32.8973 25.4354L32.3786 21.9219C32.2452 21.0179 31.7651 20.2454 31.0843 19.7305C31.0465 19.7019 31.0343 19.6521 31.0546 19.6093C32.0088 17.5895 30.5607 15.1961 28.276 15.1669C28.2219 15.1662 28.1782 15.1221 28.1782 15.068V14.0028H28.178ZM33.0915 3.58936C34.4994 3.58936 35.6406 4.73064 35.6406 6.13848C35.6406 7.54632 34.4994 8.6876 33.0915 8.6876C31.6837 8.6876 30.5424 7.54632 30.5424 6.13848C30.5424 4.73064 31.6837 3.58936 33.0915 3.58936ZM22.5572 8.68748C23.9035 8.68748 24.9949 7.59604 24.9949 6.2498C24.9949 4.90356 23.9035 3.81212 22.5572 3.81212C21.2109 3.81212 20.1196 4.90356 20.1196 6.2498C20.1196 7.59616 21.211 8.68748 22.5572 8.68748ZM8.09178 22.4583L10.2442 31.0679C10.5533 32.304 11.1185 33.2894 12.0295 34.1803L13.5612 35.678L13.5488 35.6901L13.5503 35.6917C13.5326 35.7094 13.5156 35.7283 13.4995 35.7481C12.6407 36.8064 12.8059 38.3713 13.8628 39.2273L19.4563 43.7555C19.7736 44.0135 20.2401 43.9654 20.498 43.6481C20.7561 43.3308 20.7079 42.8643 20.3906 42.6063L14.8429 38.1154C14.8418 38.1145 14.8409 38.1137 14.8399 38.1128C14.6112 37.912 14.4707 37.7379 14.4365 37.4118C14.4078 37.1392 14.4818 36.8894 14.6602 36.6714C14.6609 36.6706 14.6615 36.6698 14.6621 36.669C15.2696 35.9703 16.3356 35.8723 17.0607 36.4593L23.4488 41.6305C24.9349 42.8336 25.72 44.4793 25.72 46.3914V51.0329C25.72 51.7916 25.1012 52.4104 24.3425 52.4104C21.9801 52.4104 19.6176 52.4104 17.2552 52.4104C16.5109 52.4104 15.9022 51.8111 15.8904 51.067C15.8491 48.4594 15.5406 47.3349 13.2408 44.8358C11.1518 42.5659 9.04736 41.6029 7.48966 38.8184C5.33635 34.9687 5.43144 27.4803 5.05378 22.9475C4.98042 22.0666 5.6672 21.3201 6.55133 21.3201H6.6341C7.33253 21.3201 7.92243 21.7806 8.09178 22.4583Z" fill="#C6A04A"/>
</svg>
