<svg width="100" height="81" viewBox="0 0 100 81" fill="none" xmlns="http://www.w3.org/2000/svg">
<g clip-path="url(#clip0_308_575)">
<path fill-rule="evenodd" clip-rule="evenodd" d="M4.54526 63.3694L7.50319 57.8024H25.3378L22.4373 63.3694H18.158V77.1508C15.9959 77.2982 13.3973 78.1893 11.7185 79.5857V63.3694H4.54526ZM73.4316 56.918C79.7662 56.918 84.9021 62.0892 84.9021 68.469C84.9021 74.848 79.7662 80.0193 73.4316 80.0193C67.0971 80.0193 61.9619 74.848 61.9619 68.469C61.9619 62.0892 67.0971 56.918 73.4316 56.918ZM67.3865 74.4888C67.1696 74.6156 66.5109 73.8759 65.9161 72.8388C65.3207 71.8009 65.0148 70.8567 65.2324 70.7312C65.45 70.6044 66.108 71.3434 66.7028 72.3813C67.2975 73.4191 67.6041 74.3627 67.3865 74.4888ZM75.5865 76.7504C75.5865 77.0027 74.6218 77.2079 73.4316 77.2079C72.2415 77.2079 71.2768 77.0027 71.2768 76.7504C71.2768 76.4974 72.2415 76.2929 73.4316 76.2929C74.6218 76.2929 75.5865 76.4974 75.5865 76.7504ZM75.5865 60.1869C75.5865 60.4398 74.6218 60.6444 73.4316 60.6444C72.2415 60.6444 71.2768 60.4398 71.2768 60.1869C71.2768 59.9345 72.2415 59.73 73.4316 59.73C74.6218 59.73 75.5865 59.9345 75.5865 60.1869ZM65.2324 66.2067C65.0148 66.0805 65.3207 65.137 65.9161 64.0998C66.5109 63.0613 67.1696 62.323 67.3865 62.4491C67.6035 62.5759 67.2975 63.5195 66.7028 64.5567C66.108 65.5945 65.45 66.3335 65.2324 66.2067ZM79.4768 74.4888C79.2592 74.3627 79.5658 73.4191 80.1599 72.3806C80.7553 71.3434 81.414 70.6044 81.6309 70.7312C81.8485 70.8567 81.5419 71.8009 80.9472 72.8388C80.3517 73.8759 79.6937 74.6156 79.4768 74.4888ZM81.6316 66.2067C81.414 66.3335 80.7553 65.5945 80.1599 64.5567C79.5658 63.5195 79.2592 62.5759 79.4768 62.4491C79.6937 62.323 80.3517 63.062 80.9478 64.0998C81.5419 65.137 81.8485 66.0805 81.6316 66.2067ZM73.4316 63.1058C76.3731 63.1058 78.7567 65.5068 78.7567 68.469C78.7567 71.4311 76.3731 73.8321 73.4316 73.8321C70.4902 73.8321 68.1059 71.4311 68.1059 68.469C68.1059 65.5068 70.4902 63.1058 73.4316 63.1058ZM62.1413 63.3694L59.1833 57.8024H41.3487L44.2492 63.3694H48.5286V77.1508C50.6906 77.2982 53.2885 78.1893 54.9673 79.5857V63.3694H62.1413ZM51.348 71.3335C51.2544 71.6515 51.197 72.0977 51.197 72.5911C51.197 72.9902 51.2346 73.358 51.2986 73.6522C51.3137 73.7246 51.3329 73.7996 51.3533 73.87C51.441 74.1734 51.5597 74.36 51.6909 74.36C51.8214 74.36 51.9388 74.1767 52.0265 73.8793C52.0503 73.7976 52.072 73.7126 52.0892 73.6289C52.1492 73.3388 52.1854 72.9802 52.1854 72.5911C52.1854 72.1064 52.13 71.6681 52.0404 71.3514C52.0193 71.2784 51.9935 71.2033 51.9652 71.1316C51.8867 70.9411 51.7931 70.8295 51.6909 70.8295C51.5874 70.8295 51.4924 70.9457 51.4133 71.1429C51.3882 71.204 51.3658 71.2704 51.348 71.3335ZM51.3223 67.2206C51.412 67.5912 51.5439 67.8262 51.6909 67.8262C51.8373 67.8262 51.9685 67.5945 52.0582 67.2279C52.0839 67.1204 52.1056 67.0095 52.1228 66.9006C52.1623 66.6483 52.1854 66.3588 52.1854 66.0493C52.1854 65.4398 52.0971 64.9033 51.9639 64.5905C51.9342 64.5208 51.896 64.4478 51.8485 64.3887C51.799 64.3289 51.7456 64.2964 51.6909 64.2964C51.6329 64.2964 51.5768 64.3329 51.5247 64.4006C51.4792 64.4597 51.441 64.5367 51.4133 64.6045C51.2821 64.9199 51.197 65.4491 51.197 66.0493C51.197 66.3687 51.2221 66.6675 51.2636 66.9252C51.2794 67.0234 51.2992 67.1237 51.3223 67.2206ZM53.1547 60.5507C53.1547 60.8037 54.1194 61.0082 55.3089 61.0082C56.4984 61.0082 57.463 60.8037 57.463 60.5507C57.463 60.2984 56.4984 60.0932 55.3089 60.0932C54.1194 60.0932 53.1547 60.2984 53.1547 60.5507ZM46.0269 60.5507C46.0269 60.8037 46.9916 61.0082 48.1804 61.0082C49.3706 61.0082 50.3352 60.8037 50.3352 60.5507C50.3352 60.2984 49.3706 60.0932 48.1804 60.0932C46.9916 60.0932 46.0269 60.2984 46.0269 60.5507ZM27.4722 80.7397C26.4924 79.5153 23.8246 77.7975 22.0964 77.5831L30.417 57.825H36.5682L44.809 77.4994C43.5088 77.8381 40.0306 79.6587 39.4405 80.848L37.8098 76.8122H28.9802L27.4722 80.7397ZM39.5394 72.5612C39.3086 72.6608 39.5018 73.6342 39.9706 74.7358C40.4387 75.8367 41.0051 76.6488 41.2359 76.5499C41.4667 76.4503 41.2742 75.4762 40.8054 74.3753C40.3365 73.2737 39.7695 72.4616 39.5394 72.5612ZM31.2985 74.4032C31.3005 74.6561 32.2672 74.852 33.4567 74.8401C34.6468 74.8295 35.6089 74.615 35.6069 74.3627C35.6042 74.1097 34.6376 73.9138 33.4481 73.9251C32.2586 73.937 31.2959 74.1508 31.2985 74.4032ZM27.3661 72.5612C27.5962 72.6608 27.4036 73.6342 26.9348 74.7358C26.466 75.8367 25.8996 76.6488 25.6688 76.5499C25.4387 76.4503 25.6313 75.4762 26.0994 74.3753C26.5682 73.2737 27.1353 72.4616 27.3661 72.5612ZM29.8519 66.623C30.0827 66.7233 29.8901 67.6967 29.4213 68.7976C28.9525 69.8992 28.3861 70.7113 28.1553 70.6117C27.9245 70.5128 28.1171 69.5387 28.5859 68.4378C29.0547 67.3362 29.6218 66.5241 29.8519 66.623ZM32.252 60.6855C32.4821 60.7851 32.2896 61.7586 31.8208 62.8595C31.352 63.9617 30.7856 64.7731 30.5548 64.6742C30.324 64.5739 30.5172 63.6012 30.986 62.4996C31.4542 61.398 32.0212 60.5866 32.252 60.6855ZM34.6745 60.6855C34.4444 60.7851 34.6376 61.7586 35.1058 62.8595C35.5746 63.9617 36.141 64.7731 36.3717 64.6742C36.6025 64.5739 36.4093 63.6012 35.9412 62.4996C35.4724 61.398 34.9053 60.5866 34.6745 60.6855ZM37.0746 66.623C36.8439 66.7233 37.037 67.6967 37.5059 68.7976C37.974 69.8992 38.5411 70.7113 38.7719 70.6117C39.002 70.5128 38.8094 69.5387 38.3406 68.4378C37.8718 67.3362 37.3054 66.5241 37.0746 66.623ZM33.4652 65.3236L30.893 71.8381H36.0124L33.4652 65.3236ZM15.3602 71.4125C15.44 71.7232 15.4895 72.1369 15.4895 72.5911C15.4895 72.9218 15.4631 73.2305 15.4183 73.4935C15.3899 73.6588 15.3471 73.8467 15.2897 74.0048C15.2073 74.2272 15.1057 74.36 14.995 74.36C14.8829 74.36 14.7793 74.2232 14.6969 73.9928C14.6448 73.8487 14.6026 73.6714 14.5763 73.52C14.5288 73.2511 14.5011 72.9324 14.5011 72.5911C14.5011 72.1276 14.5519 71.7066 14.6349 71.3939C14.66 71.2976 14.6949 71.1901 14.7352 71.0997C14.8103 70.9291 14.9 70.8295 14.995 70.8295C15.0833 70.8295 15.1664 70.9138 15.2376 71.0612C15.2884 71.1675 15.3312 71.2983 15.3602 71.4125ZM15.351 67.2704C15.262 67.6124 15.1361 67.8262 14.995 67.8262C14.8473 67.8262 14.7147 67.5898 14.6251 67.2167C14.5341 66.8382 14.5011 66.4351 14.5011 66.0493C14.5011 65.465 14.5822 64.9484 14.7062 64.6304C14.7358 64.5547 14.7734 64.4757 14.8222 64.4093C14.8756 64.3362 14.9343 64.2964 14.995 64.2964C15.053 64.2964 15.1077 64.3322 15.1591 64.3973C15.2139 64.4677 15.2561 64.558 15.2877 64.6397C15.4104 64.9584 15.4895 65.471 15.4895 66.0493C15.4895 66.4504 15.4526 66.8767 15.351 67.2704ZM13.5318 60.5507C13.5318 60.8037 12.5672 61.0082 11.377 61.0082C10.1875 61.0082 9.22283 60.8037 9.22283 60.5507C9.22283 60.2984 10.1875 60.0932 11.377 60.0932C12.5672 60.0932 13.5318 60.2984 13.5318 60.5507ZM20.6596 60.5507C20.6596 60.8037 19.6956 61.0082 18.5054 61.0082C17.3159 61.0082 16.3506 60.8037 16.3506 60.5507C16.3506 60.2984 17.3159 60.0932 18.5054 60.0932C19.6956 60.0932 20.6596 60.2984 20.6596 60.5507Z" fill="black"/>
<path fill-rule="evenodd" clip-rule="evenodd" d="M23.4437 41.7298C23.5334 42.0007 23.629 42.2683 23.7306 42.5292C24.7994 45.2736 24.7513 47.9422 24.8845 49.2569C25.0176 50.573 24.0286 51.8631 25.7179 51.9063C27.4072 51.9481 29.868 51.9262 31.6463 51.9262C33.424 51.9262 33.7978 50.5783 32.2424 49.7715C30.6863 48.9654 31.5744 47.4708 30.6856 44.7556C30.1535 43.1302 29.7902 41.9051 29.5581 40.9058C30.3414 41.0718 31.6595 41.2291 33.873 41.3088C39.7598 41.52 43.3969 39.008 43.3969 39.008C43.3969 39.008 42.123 39.921 36.4116 40.0173C34.1203 40.0565 30.5306 39.7584 28.5815 38.439C28.1991 38.18 27.8609 37.9118 27.5931 37.6462C27.3162 37.3719 27.1837 37.1276 26.9925 37.1409C26.8401 37.1508 26.7076 37.3427 26.5916 37.9655C26.1333 40.4197 24.8495 40.3068 23.4437 41.7298ZM1.82034 43.0591C1.87309 42.9987 1.93441 42.9296 2.00364 42.8559C0.715893 43.4442 0.094105 45.0106 0.275432 46.3798C-0.230305 44.8572 0.502916 43.3785 1.6278 42.4071C2.634 41.5366 4.03714 40.6003 5.08356 39.1501C7.50873 35.2604 10.077 26.3521 11.6093 20.6457C11.9258 19.4651 12.0801 18.6045 12.5806 17.5156C15.046 12.1544 21.8368 9.04555 28.0132 10.3769C34.7862 11.8377 41.2177 10.1896 47.6367 7.19431L47.634 7.20095C47.2154 8.33706 46.9589 9.54024 47.0149 10.7574C47.0907 12.3961 47.8279 14.1604 49.1671 15.1059C50.2307 15.8576 51.0661 16.8775 51.0542 17.8881C51.0318 19.904 53.0026 21.6536 54.9359 21.3688C54.9359 21.3688 52.1488 19.9797 52.0815 18.1085C52.0129 16.2374 50.648 14.6524 49.7665 13.8974C46.4551 11.0628 48.7418 5.78596 51.1907 3.25213C54.7434 -0.420475 60.1337 -1.39789 64.5528 2.55426C66.4742 2.67577 68.6627 3.32251 69.7223 4.02901C70.3672 4.45995 73.8941 7.17639 74.477 7.86761C75.3032 8.24809 76.8976 9.8729 77.191 11.434C77.4844 12.9944 78.8856 14.7381 79.5331 18.5547C79.8924 20.6723 79.7764 23.5494 79.537 26.5812C78.3218 25.5075 77.2207 24.396 76.1775 23.1516L76.1492 23.1178C75.2023 21.969 74.33 20.7387 73.6284 19.4219C75.3619 23.1357 78.155 27.3488 82.5747 30.3654C90.2452 35.6004 95.8531 34.1754 98.393 34.1382C99.0933 34.1283 99.6643 33.9696 99.8549 34.3932C100.138 35.022 99.4645 35.3666 98.1563 35.7657C95.3929 36.6097 89.8344 36.9284 84.7236 35.2816C82.76 34.6489 80.9369 33.6694 79.2851 32.4802C86.1063 38.1807 91.7954 37.5519 94.4487 37.7245C95.298 37.7803 95.8465 37.7597 96.0081 38.2584C96.2112 38.8885 95.6131 39.1973 94.394 39.4635C91.5811 40.0791 85.7193 39.7457 80.5914 37.433C79.9689 37.1521 79.3656 36.8354 78.7814 36.4888C78.6878 39.9197 78.8783 43.2749 79.301 45.1614C79.5146 46.1162 80.0302 47.239 80.9046 47.743C81.289 47.9634 81.6674 47.9761 82.0749 47.8692C82.8853 47.656 83.3957 48.2948 83.4161 49.0923C83.4365 49.8897 82.4587 50.2622 81.6002 50.3153C79.5964 50.4389 77.0011 49.4946 75.9006 46.4761C74.5377 42.7404 73.9205 37.759 73.5077 33.7405C73.3996 32.6854 73.2981 31.6369 73.1972 30.5845C72.6532 24.9245 72.1508 19.7513 70.7892 17.6185C72.2609 17.3795 73.1299 16.6218 73.1299 16.6218C73.1299 16.6218 71.9272 16.0242 71.1076 15.8137C70.5755 15.677 69.5179 15.5242 68.7609 15.6272C68.7313 15.6318 68.6271 15.6484 68.604 15.6477C68.604 15.6477 68.4959 15.4618 68.2789 15.2181C68.4972 14.7228 69.1487 14.1444 69.6728 13.6338C70.1219 13.1976 70.0025 12.9439 69.8133 12.7241C69.5687 12.4393 68.993 12.4074 67.1428 14.171C67.0782 14.2321 67.0195 14.2845 66.9635 14.3317L66.9694 14.3357C66.8521 14.416 66.7492 14.4744 66.6556 14.5136C66.7017 14.0229 67.1831 13.2733 67.5543 12.6338C67.8681 12.0913 67.6519 11.9413 67.3716 11.8496C67.0235 11.7354 66.4367 11.9426 65.2247 13.9247C64.452 13.6338 64.1691 13.9545 63.2618 14.4638C62.3492 14.9744 60.4258 14.9399 57.8919 16.0136C56.5151 16.5959 53.3548 17.6212 55.6599 18.5753C56.678 18.999 56.9378 18.829 57.6842 18.6079C58.4312 18.3881 59.837 19.3622 60.7206 19.9697C62.2853 21.0421 65.1924 20.1656 66.2507 20.738C66.7894 21.0301 67.4349 21.975 66.9246 24.6815C66.5145 26.8594 66.0846 37.615 66.8026 43.8221C66.8488 44.6222 66.9022 45.3652 66.9641 46.0166C67.158 48.0637 67.4336 49.6347 67.8227 50.0458C68.3198 50.5723 68.877 51.0391 68.8678 51.4322C68.8447 52.2795 64.0418 52.2317 61.5349 52.1533C59.028 52.075 59.8838 50.9262 60.4984 49.6925C60.501 49.6235 60.5043 49.5524 60.5089 49.4833C60.6355 47.573 61.6727 38.3175 58.7978 34.8049C58.7069 36.2943 58.4101 40.6933 58.3 42.2451C58.1873 43.8327 57.247 45.2795 56.8046 46.5285C56.3615 47.7782 55.3441 50.1168 56.585 50.4727C57.1732 50.642 57.4831 51.3326 57.1316 51.739C56.7433 52.1865 55.1476 52.2356 52.9624 52.2356C48.7972 52.2356 48.2176 51.9348 49.0042 50.3572C49.5442 49.7323 50.4212 46.9741 50.9639 44.5272C51.0799 44.0033 51.1808 43.4934 51.2599 43.0219C51.5494 41.2995 51.6133 39.1209 51.7248 37.344C51.8824 34.8295 52.0564 32.4258 53.4992 31.6203C54.5818 31.0154 55.0652 30.5918 56.3279 30.7744C57.0663 30.8813 57.1066 31.0984 57.5015 31.4676C57.8972 31.8375 58.211 32.2027 59.0761 32.1542C59.9412 32.1044 59.8561 31.1867 59.8561 31.1867C59.8561 31.1867 59.9775 31.1695 60.261 30.8886C60.5452 30.6084 60.6058 30.1091 60.6058 30.1091C60.6058 30.1091 60.8663 30.123 61.2217 29.7651C61.5771 29.4085 61.4584 29.056 60.8511 28.4378C60.2438 27.8202 59.9346 27.4311 59.7309 26.4896C59.5278 25.548 59.022 25.1974 58.3231 24.564C57.6255 23.9325 57.8741 23.2672 57.7198 22.5155C57.5668 21.7639 57.3189 22.0202 56.3984 22.24C55.4779 22.4597 55.1357 23.224 55.1357 23.224C55.1357 23.224 54.3069 23.2539 52.8451 23.9803C51.2916 24.7506 50.4951 24.3774 48.8493 24.9332C47.1699 25.5009 44.6095 27.56 40.6632 27.7651C36.5507 27.9796 26.9015 25.8807 23.4002 26.4159C22.3195 26.5812 21.2704 26.971 20.2788 27.467C19.1585 28.0261 17.9116 28.9769 16.9746 29.7857C15.6361 30.9411 14.5073 32.2538 13.625 33.5333C13.2637 34.0566 12.9175 34.5479 12.5846 35.0087C12.6525 33.9165 12.6742 32.9012 12.6221 32.0752L12.243 26.0188C10.2629 31.8235 7.23509 40.3912 6.40692 42.7656C5.60446 45.0604 4.37804 46.8068 2.02145 47.6972C2.02145 47.6972 2.27926 47.6474 3.53932 46.0518C4.79871 44.4562 5.01828 43.338 5.01828 43.338C3.24392 44.5113 2.44212 45.3227 1.55197 47.3001C1.95353 45.6215 2.31882 44.3971 3.30722 43.0857C3.0949 43.2464 2.83709 43.4422 2.52454 43.6806C0.805566 44.9927 0.766663 46.9728 0.779191 46.6959C0.822709 45.8167 1.0014 44.1707 1.63374 43.2836L1.63505 43.2822L1.63571 43.2816L1.63703 43.2796C1.6944 43.1992 1.75506 43.1255 1.82034 43.0591ZM12.2839 38.257C12.1085 39.7457 11.8949 41.1826 11.7036 42.3154C11.3443 44.4356 9.99125 48.0876 8.9422 49.8266C8.25777 50.9608 8.35008 52.2443 11.155 52.1599C11.9509 52.1367 18.1951 52.6865 16.8659 50.6221C16.1293 49.478 15.6058 48.1049 16.1794 46.9256C16.8916 45.4621 17.7164 42.3407 18.0567 40.6395C18.8519 36.6575 18.418 33.7657 18.3508 31.4032C17.1223 32.4331 15.7654 33.8594 14.5297 35.5712C13.9554 36.3673 13.1668 37.3215 12.2839 38.257Z" fill="black"/>
</g>
<defs>
<clipPath id="clip0_308_575">
<rect width="100" height="81" fill="white"/>
</clipPath>
</defs>
</svg>
