<svg width="56" height="56" viewBox="0 0 56 56" fill="none" xmlns="http://www.w3.org/2000/svg">
<path fill-rule="evenodd" clip-rule="evenodd" d="M17.7243 43.9534L16.0244 46.8967C15.5938 47.6437 14.6348 47.9004 13.8894 47.4698C13.1458 47.041 12.8875 46.0772 13.3169 45.3337L15.0163 42.39C15.4476 41.643 16.4059 41.3863 17.1529 41.8174C17.8983 42.2491 18.1561 43.2065 17.7243 43.9535V43.9534ZM21.2489 44.1826C21.0038 44.0413 20.7354 43.9739 20.47 43.9739C19.9294 43.9739 19.4028 44.2543 19.114 44.7551L16.358 49.5281C15.9269 50.274 16.1853 51.2331 16.9305 51.6642C17.6764 52.0953 18.6348 51.8386 19.0655 51.0917L21.8215 46.3188C22.2521 45.5717 21.9954 44.6145 21.249 44.1827L21.2489 44.1826ZM10.3318 24.7101C10.3949 24.6568 10.3862 24.5654 10.3136 24.5257L7.39188 22.9003C7.18046 22.7838 6.95187 22.8021 6.76188 22.9506C2.44113 26.3586 0.0301799 32.3798 1.02888 37.2663C1.06859 37.4642 1.17818 37.598 1.36401 37.6765L3.6564 38.6498C3.73318 38.682 3.81204 38.6317 3.81204 38.5477C3.86837 33.0382 6.12259 28.2538 10.3318 24.7099V24.7101ZM26.072 47.4985C25.9633 47.0927 25.7054 46.7559 25.346 46.5473C25.1009 46.4065 24.8315 46.3391 24.567 46.3391C24.0265 46.3391 23.4999 46.6196 23.2099 47.1203L20.9127 51.1001C20.5149 51.8407 20.7757 52.7718 21.5089 53.1945C21.8683 53.4021 22.2891 53.4568 22.6943 53.348C23.0996 53.2391 23.4363 52.9813 23.645 52.6219L25.9186 48.6839C26.1262 48.3239 26.1809 47.9037 26.072 47.4985ZM42.7481 41.0974L35.4174 36.864C33.9859 36.0361 32.6503 35.2584 30.9404 35.2584C29.4122 35.2673 28.0297 35.943 26.6921 36.5973C24.5819 37.6281 22.1903 38.7963 19.6086 36.6591C18.8755 36.0506 18.4565 35.1414 18.5134 34.2824C18.5663 33.4946 19.0025 32.806 19.7428 32.3445L25.7677 28.5893C24.0091 27.7149 22.3903 27.8547 20.5627 28.0139C18.1495 28.222 15.4138 28.4606 11.8804 26.473L11.1912 26.0848C7.49721 29.2689 5.55712 33.3489 5.4227 38.2192L11.2515 41.2251C11.3343 41.2671 11.4082 41.3234 11.4712 41.3912L12.8715 42.8974L13.6282 41.5878C14.5011 40.0761 16.4411 39.556 17.9544 40.4289C18.7682 40.8987 19.2942 41.6777 19.4708 42.5328C20.2994 42.2583 21.2368 42.3245 22.0504 42.7942C22.8646 43.2638 23.3911 44.0429 23.5679 44.8979C24.3967 44.6236 25.3343 44.6897 26.1476 45.1594C26.8786 45.5813 27.4008 46.2646 27.6206 47.0829C27.6368 47.143 27.651 47.2032 27.6636 47.2636C28.4924 46.9889 29.4305 47.055 30.2447 47.5245C30.8467 47.8724 31.3082 48.3984 31.5747 49.0317L35.1082 51.0707C35.7945 51.4685 36.6858 51.2301 37.082 50.5428C37.47 49.8688 37.2493 48.9943 36.5854 48.5883L32.2593 46.0897C31.8761 45.8684 31.7442 45.3786 31.965 44.9949C32.1874 44.6107 32.6777 44.4803 33.0614 44.7011C34.7337 45.6667 36.406 46.6324 38.0784 47.5979C38.8375 48.0368 39.8125 47.7757 40.2509 47.016C40.6833 46.2677 40.4285 45.2946 39.6859 44.8533L35.4394 42.4022C35.0568 42.1802 34.9247 41.6899 35.1461 41.3062C35.368 40.9224 35.8584 40.7916 36.241 41.0131C37.8923 41.9664 39.5437 42.9197 41.195 43.8729C41.951 44.3092 42.9306 44.0473 43.367 43.2911C43.8515 42.453 43.474 41.6275 42.7481 41.0975V41.0974ZM49.2385 22.9506C49.1303 22.8671 49.0116 22.8236 48.8891 22.8236C48.7947 22.8236 48.6998 22.8501 48.6081 22.9003L45.6853 24.5257C45.645 24.5483 45.6323 24.5671 45.6279 24.6141C45.6235 24.6599 45.6322 24.6802 45.6682 24.7101C49.8774 28.254 52.1316 33.0385 52.188 38.5479C52.188 38.6319 52.2668 38.6822 52.3436 38.6501L54.6353 37.6767C54.8208 37.5983 54.9301 37.4637 54.971 37.2666C55.9698 32.38 53.5587 26.3587 49.2385 22.9506ZM44.7908 26.0701L43.3565 26.8683C40.9901 28.1845 38.3522 28.4224 35.7282 27.5578C33.405 26.7926 30.9691 27.2359 28.277 28.9137L20.5913 33.7054C20.2876 33.8954 20.1319 34.1184 20.1137 34.39C20.0894 34.7384 20.2936 35.1436 20.631 35.4235C22.3337 36.8336 23.7067 36.2709 25.9875 35.1563C27.4168 34.4574 29.0379 33.6662 30.9298 33.6546C32.9964 33.6546 34.4904 34.4755 36.2205 35.476L43.5866 39.7299C43.9592 39.9389 44.4505 40.4504 44.6806 40.8167L50.5735 38.0906C50.4085 33.2695 48.464 29.2283 44.7908 26.0701ZM32.9957 51.7035L31.747 50.9825C31.6773 51.2837 31.5627 51.5759 31.4041 51.8507L30.5555 53.3207L31.2252 53.6974C32.3984 54.3742 33.1637 54.0066 33.4911 53.4396C33.7888 52.9235 33.7566 52.1663 32.9958 51.7035H32.9957ZM29.443 48.913C28.6981 48.4871 27.7414 48.7342 27.3069 49.4856L25.607 52.4305C25.1767 53.1757 25.4346 54.1357 26.1794 54.5661C26.9265 54.9967 27.8837 54.74 28.315 53.9941L30.0144 51.0491C30.4459 50.3056 30.1849 49.3439 29.443 48.913ZM16.5271 12.698C16.5271 6.36179 21.6638 1.2251 28 1.2251C34.3362 1.2251 39.4729 6.36179 39.4729 12.698C39.4729 19.0342 34.3363 24.1709 28 24.1709C21.6637 24.1709 16.5271 19.0343 16.5271 12.698ZM21.2757 12.7516L23.9567 17.3952C24.225 17.8599 24.6531 18.146 25.1852 18.2161C25.7172 18.2861 26.2049 18.1206 26.5842 17.7412L34.4747 9.85074C35.0872 9.23835 35.0872 8.23604 34.4747 7.62365C33.8623 7.01125 32.8601 7.01125 32.2476 7.62365L25.7204 14.1508L24.0034 11.1769C23.571 10.4278 22.6012 10.168 21.8522 10.6005C21.1021 11.0335 20.8427 12.0016 21.2758 12.7517L21.2757 12.7516ZM44.5525 9.66086C44.7736 7.43322 46.5358 5.67108 48.7634 5.44993C46.5358 5.22877 44.7736 3.46663 44.5525 1.23899C44.3313 3.46663 42.5692 5.22877 40.3415 5.44993C42.5692 5.67108 44.3313 7.43322 44.5525 9.66086ZM10.8062 19.3605C10.9871 17.5378 12.4289 16.0961 14.2516 15.9151C12.4289 15.7342 10.9871 14.2925 10.8062 12.4698C10.6253 14.2925 9.18356 15.7342 7.36093 15.9151C9.18356 16.0961 10.6253 17.5378 10.8062 19.3605Z" fill="#C6A04A"/>
</svg>
