<svg width="179" height="142" viewBox="0 0 179 142" fill="none" xmlns="http://www.w3.org/2000/svg">
<path d="M2.6357 132.067C2.66008 132.178 2.71929 132.276 2.79591 132.363C2.82726 132.815 2.92478 133.226 3.12678 133.55C3.30788 133.244 3.47157 133.035 3.63178 132.889C3.88951 132.993 4.18554 132.93 4.3353 132.676C4.3562 132.638 4.37361 132.603 4.38406 132.565C4.70448 132.523 5.08758 132.53 5.62742 132.46C7.00311 134.87 5.10151 136.758 6.69315 138.764C6.63394 138.806 6.57473 138.841 6.51553 138.886C5.99311 139.27 6.31701 139.977 6.94042 139.889C7.30612 139.837 7.66484 139.816 8.02705 139.809C9.53162 140.621 11.7084 141.147 12.9552 141.506C14.3448 140.175 16.323 141.213 17.7405 141.875C17.6674 141.405 17.4236 141.074 17.3365 140.555C17.0231 138.656 13.9582 136.692 12.9343 135.055C11.3461 132.502 11.5586 129.98 11.5586 126.894C11.5586 121.039 10.6113 114.456 11.482 108.929C12.3979 103.063 15.2608 99.1102 18.4475 94.1747C21.5054 89.4273 23.8493 83.7186 28.5406 80.7476C27.2276 82.5971 27.1232 86.5469 26.5729 88.7655C25.8972 91.4893 25.5524 93.088 23.7483 95.4669C21.7701 98.0722 21.2442 97.8284 22.8219 100.97C23.8215 102.955 25.3434 105.157 26.5903 107.1C29.1118 111.033 31.1179 115.01 33.2703 119.193C35.252 123.039 37.6446 130.468 40.4483 133.094C40.4274 132.808 40.4239 132.561 40.4378 132.345C40.605 132.436 40.7791 132.471 40.9951 132.356C41.1623 132.265 41.2702 132.07 41.2667 131.879C41.2632 131.659 41.11 131.454 40.9289 131.276C42.0051 130.889 44.4117 134.177 44.2445 136.379C45.3346 136.156 46.362 136.17 47.3686 136.285C47.4696 136.504 47.7099 136.661 48.0024 136.598C48.0164 136.591 48.0338 136.588 48.0477 136.588C48.1452 136.622 48.2567 136.629 48.3681 136.598C48.4935 136.56 48.6224 136.525 48.7512 136.494C50.5623 136.824 52.3698 137.288 54.4073 137.103C53.9998 136.058 53.1848 135.403 52.2723 134.529C44.0112 126.623 36.659 118.646 33.8345 106.734C32.2603 100.106 34.1096 94.8678 37.3138 88.8491C38.8601 85.9443 42.1444 75.5056 45.5924 75.2653C50.8931 82.1234 60.422 85.2163 68.7529 84.37C77.7733 83.4539 86.3339 75.7703 95.8419 78.5742C92.9373 81.8273 92.7283 87.9435 91.4711 92.0744C90.0919 96.6302 88.6674 100.489 88.0997 104.819C87.5494 109.009 84.8259 114.16 83.3248 118.389C82.3357 121.161 78.3479 127.424 79.8107 130.137C79.7167 130.228 80.7963 130.137 80.7859 130.137C80.8451 129.956 80.9322 129.778 81.0262 129.615C81.1446 129.576 81.2526 129.503 81.3222 129.381C81.3814 129.277 81.4023 129.151 81.3884 129.029C81.4615 128.911 81.5242 128.796 81.573 128.692C84.6483 130.548 82.8581 134.505 83.1019 137.479C86.515 137.42 90.3148 138.05 93.6304 138.569C93.2438 134.801 88.556 132.993 87.7305 128.733C86.7763 123.822 88.3017 119.127 89.7366 114.516C92.1363 106.801 99.6382 101.318 100.645 92.7466C102.748 98.1941 103.455 106.041 105.698 112.314C108.296 119.569 104.963 127.041 107.673 134.181C108.007 134.317 108.314 134.191 108.659 134.289C107.157 143.568 120.998 138.89 121.601 140.938C120.782 138.155 118.56 137.204 116.746 135.285C115.192 133.641 113.956 131.878 113.144 129.524C111.431 124.54 111.267 118.563 111.278 113.335C111.288 108.044 112.605 104.154 111.267 99.0335C109.944 93.9762 109.226 89.4935 109.501 84.0495C110.783 84.6033 112.019 84.7183 113.218 84.5197C113.225 84.5197 113.231 84.5197 113.231 84.5197C118.755 83.5863 123.426 75.8714 127.5 72.6914C127.87 73.0432 128.862 73.374 129.186 73.7049C129.127 73.172 129.346 72.4824 129.298 71.9495C129.573 72.141 130.624 72.3082 131.015 72.6008C131.248 71.8798 131.938 70.9986 132.094 70.4657C131.997 72.148 132.279 74.0149 133.947 74.4224C134.09 72.2037 133.435 69.0586 135.507 67.8151C135.723 68.3236 136.691 69.2118 136.873 69.675C136.991 68.658 137.517 67.8708 137.663 66.9095C137.991 67.9022 138.586 68.8635 138.764 69.9607C139.004 68.9854 139.551 68.1669 139.791 67.2474C139.68 70.1522 141.101 75.5196 142.738 77.7418C142.901 75.2026 142.532 72.5311 143.246 70.1C144.305 71.218 144.824 72.9143 145.395 74.3423C145.364 72.566 145.332 70.7618 145.447 69.0098C146.119 69.8144 146.816 71.0508 147.227 72.1445C147.328 70.8767 147.725 69.7343 148.397 68.6371C149.842 71.542 150.1 75.9097 151.626 79.1106C151.03 77.0591 151.082 73.1302 152.27 71.5803C152.441 72.8377 152.751 74.203 153.36 75.1782C153.499 73.28 153.022 70.1522 153.58 68.5605C153.778 68.8008 154.001 69.0377 154.255 69.2606C154.732 69.682 155.147 70.1278 155.638 70.4796C156.028 69.7935 156.467 69.0655 156.937 68.5465C157.459 69.0795 158.079 70.1592 158.765 71.1588C158.758 71.3992 158.898 71.643 159.159 71.7091C159.33 71.9286 159.497 72.141 159.671 72.3326C159.671 72.3326 159.678 72.343 159.685 72.3465C159.887 72.566 160.096 72.7575 160.301 72.9108C160.312 72.9282 160.319 72.9491 160.333 72.9665C160.27 74.1612 160.482 74.8996 162.962 74.4712C164.195 74.2552 165.076 73.9836 165.62 72.7297C165.633 72.7018 165.64 72.6774 165.654 72.6496C166.065 72.5068 166.483 72.2978 166.919 72.0226C167.511 71.643 166.96 70.6886 166.358 71.0717C166.313 71.1031 166.264 71.1275 166.219 71.1588C166.229 70.8488 166.246 70.5319 166.243 70.2184C167.911 72.6321 168.74 71.4827 170.339 70.3821C170.426 70.3856 170.523 70.3891 170.61 70.3821C170.694 70.2637 170.781 70.1522 170.861 70.0443C172.85 68.8008 173.125 68.6545 173.156 67.0628C173.553 66.2059 173.515 65.2481 172.763 63.5101C172.467 62.3886 172.136 61.2148 172.223 60.1803C172.39 58.0452 173.024 56.645 172.954 54.597C172.641 45.8929 169.813 37.1505 169.283 28.6206C169.642 28.5056 169.99 28.3698 170.335 28.213C171.516 27.91 172.582 27.0706 173.585 26.0396C174.243 25.6774 174.762 25.4684 174.87 24.5907C174.894 24.5593 174.922 24.528 174.946 24.4966C175.11 24.4688 175.274 24.4374 175.441 24.427C175.901 24.3852 176.193 23.8488 175.831 23.4866C175.817 23.4796 175.81 23.4692 175.8 23.4587C176.75 22.3024 177.666 21.2156 178.61 20.5678C173.647 19.1746 169.541 23.4483 165.63 21.9541C165.48 21.8948 165.33 21.8252 165.184 21.7555C163.847 19.9165 162.283 18.0914 160.751 16.5832C161.113 14.5665 163.074 14.5073 164.164 12.9678C165.16 11.5572 165.494 8.89615 165.09 7.08846C164.439 4.16619 160.186 -0.821504 156.78 0.115431C159.413 1.46685 162.725 6.4058 161.221 9.57536C159.58 13.0375 154.596 7.63181 152.771 11.7731C152.733 11.8602 152.705 11.9438 152.674 12.0309C150.811 11.087 148.669 10.5959 147.21 10.676C143.661 10.8641 140.819 13.9675 137.702 15.0263C136.824 14.9044 136.002 14.6327 135.19 14.2461C134.476 10.5401 136.27 3.23623 138.374 1.21608C135.002 1.63056 131.676 7.6771 130.579 12.3966C130.955 10.77 124.112 12.1006 128.072 7.5761C126.139 7.87216 124.188 7.75722 122.75 9.2793C122.872 8.33888 122.537 7.19296 122.625 6.23861C121.834 6.83769 120.761 7.65273 119.971 8.25529C119.797 7.30791 119.326 6.45804 119.211 5.47234C119.159 5.65346 118.602 7.39497 118.473 8.24482C117.477 7.56912 116.394 6.68096 115.412 5.9948C115.746 6.71579 115.763 7.92091 116.08 8.57224C114.841 8.26573 113.663 7.56216 112.378 7.02229C112.657 7.47508 112.831 8.36327 113.249 8.92752C108.06 7.22432 102.759 6.91431 97.1967 7.3253C98.0431 7.61091 98.8859 8.13338 99.6242 8.61055C92.2059 9.13301 87.9256 9.45346 81.4755 13.5251C78.3584 15.4965 75.3562 17.4191 72.5038 19.4672C69.8465 19.6274 67.0637 19.5264 64.3506 19.9234C58.3359 20.8081 52.2479 21.6267 46.0172 21.3167C39.9607 21.0171 34.0713 20.3553 28.4187 22.7726C24.2742 24.5454 19.5551 28.3001 15.6683 30.9194C15.111 31.2955 13.8503 32.3335 12.492 33.6326C12.5268 33.5734 12.5616 33.5177 12.5965 33.4585C12.2726 33.6919 11.9556 33.6849 11.5516 33.7685L8.25343 38.1676C3.70492 40.6301 4.58606 49.8043 4.58606 54.3009C4.58606 60.5112 4.02882 65.4989 2.29439 71.0752C-1.26501 82.517 -0.32466 97.0795 2.67053 108.567C2.98398 109.775 3.41933 110.998 3.90344 112.234C4.1542 113.582 4.45023 114.895 4.58258 116.271C4.8612 119.162 4.57213 122.443 4.29699 125.153C4.12634 126.821 3.00836 129.451 2.80984 131.495C2.67053 131.624 2.58695 131.83 2.6357 132.067ZM5.02489 88.062C5.66572 88.7655 6.0349 89.7129 6.49115 90.6708C6.04535 91.235 5.58562 91.7923 5.11893 92.3391C4.99355 90.9459 4.94131 89.5248 5.02489 88.062ZM9.2704 86.923C8.55643 87.961 7.80764 88.985 7.03794 89.9846C6.58518 85.0666 5.63438 79.9848 7.89471 75.3489C8.20467 75.6763 8.71664 76.0455 8.92909 76.2719C9.65699 68.1216 7.94347 60.6993 7.16332 52.8346C6.7036 48.2474 7.21556 44.848 8.44847 41.567C8.67137 41.7063 8.95347 41.8178 9.30872 41.8909C9.56296 47.0702 9.43061 52.2877 10.9108 57.157C12.4049 62.082 15.1772 66.596 15.226 71.9042C15.2782 77.4596 12.2969 82.524 9.2704 86.923Z" fill="black"/>
</svg>
