<svg width="22" height="22" viewBox="0 0 22 22" fill="none" xmlns="http://www.w3.org/2000/svg">
<g clip-path="url(#clip0_324_2521)">
<path fill-rule="evenodd" clip-rule="evenodd" d="M11 0C4.93281 0 0 4.93281 0 11C0 17.0672 4.93281 22 11 22C17.0672 22 22 17.0672 22 11C22 4.93281 17.0672 0 11 0Z" fill="#4F6F52"/>
<path d="M8.88164 16.0314C7.47656 14.6264 6.08008 13.2084 4.6707 11.8033C4.51602 11.6486 4.51602 11.3908 4.6707 11.2361L6.29062 9.61621C6.44531 9.46152 6.70313 9.46152 6.85781 9.61621L9.17383 11.9322L15.1293 5.97246C15.2883 5.81777 15.5418 5.81777 15.7008 5.97246L17.325 7.59668C17.484 7.75566 17.484 8.00918 17.325 8.16387L9.44883 16.0314C9.29414 16.1904 9.04063 16.1904 8.88164 16.0314Z" fill="white"/>
</g>
<defs>
<clipPath id="clip0_324_2521">
<rect width="22" height="22" fill="white"/>
</clipPath>
</defs>
</svg>
