<svg width="62" height="62" viewBox="0 0 62 62" fill="none" xmlns="http://www.w3.org/2000/svg">
<g clip-path="url(#clip0_379_1640)">
<path d="M45.0464 27.124C39.1712 27.124 34.3906 31.9046 34.3906 37.7798C34.3906 43.6551 39.1712 48.4357 45.0464 48.4357C50.9217 48.4357 55.7023 43.6551 55.7023 37.7798C55.7023 31.9046 50.9217 27.124 45.0464 27.124ZM49.5643 36.0701C46.4667 40.7171 47.3451 39.3997 45.6894 41.8824C45.0947 42.7743 43.8907 43.0109 43.0024 42.4188L40.0963 40.4813C39.2063 39.888 38.9665 38.6856 39.5599 37.7944C40.1532 36.9044 41.3556 36.6646 42.2468 37.258L43.5401 38.1201C46.63 33.4859 46.4639 33.6141 46.9838 33.3177C48.7485 32.2969 50.6983 34.3668 49.5643 36.0701ZM36.328 49.3971V60.0603C36.328 61.5447 37.9358 62.4802 39.2269 61.7422L45.0464 58.4171L50.866 61.7422C52.1518 62.4791 53.7648 61.5488 53.7648 60.0603V49.3971C48.6031 53.2807 41.4972 53.2863 36.328 49.3971ZM48.9213 23.7747V4.20785C48.9213 1.88778 47.0335 0 44.7134 0H10.5057C8.18563 0 6.29785 1.88778 6.29785 4.20785V49.0714C6.29785 51.3915 8.18563 53.2793 10.5057 53.2793H32.4531C32.4531 44.9419 32.4402 45.458 32.4834 45.0743C25.9976 33.955 36.3252 20.2766 48.9213 23.7747ZM17.9224 9.68714H34.3906C35.461 9.68714 36.328 10.5541 36.328 11.6246C36.328 12.695 35.461 13.562 34.3906 13.562H17.9224C16.852 13.562 15.985 12.695 15.985 11.6246C15.985 10.5541 16.852 9.68714 17.9224 9.68714ZM27.6096 29.0614H17.9224C16.852 29.0614 15.985 28.1944 15.985 27.124C15.985 26.0536 16.852 25.1866 17.9224 25.1866H27.6096C28.68 25.1866 29.547 26.0536 29.547 27.124C29.547 28.1944 28.68 29.0614 27.6096 29.0614ZM17.9224 21.3117C16.852 21.3117 15.985 20.4447 15.985 19.3743C15.985 18.3039 16.852 17.4369 17.9224 17.4369H34.3906C35.461 17.4369 36.328 18.3039 36.328 19.3743C36.328 20.4447 35.461 21.3117 34.3906 21.3117H17.9224Z" fill="#C6A04A"/>
</g>
<defs>
<clipPath id="clip0_379_1640">
<rect width="62" height="62" fill="white"/>
</clipPath>
</defs>
</svg>
