<svg width="64" height="64" viewBox="0 0 64 64" fill="none" xmlns="http://www.w3.org/2000/svg">
<g clip-path="url(#clip0_379_1364)">
<path d="M46.4995 27.999C40.4347 27.999 35.4999 32.9338 35.4999 38.9986C35.4999 45.0633 40.4347 49.9981 46.4995 49.9981C52.5643 49.9981 57.4991 45.0633 57.4991 38.9986C57.4991 32.9338 52.5643 27.999 46.4995 27.999ZM51.1631 37.2336C47.9656 42.0306 48.8723 40.6706 47.1632 43.2334C46.5494 44.1541 45.3065 44.3983 44.3896 43.7871L41.3897 41.7872C40.471 41.1747 40.2235 39.9335 40.836 39.0135C41.4484 38.0948 42.6896 37.8473 43.6096 38.4598L44.9445 39.3498C48.1342 34.5661 47.9627 34.6985 48.4994 34.3925C50.321 33.3388 52.3337 35.4754 51.1631 37.2336ZM37.4998 50.9906V61.9977C37.4998 63.53 39.1595 64.4957 40.4922 63.7339L46.4995 60.3015L52.5068 63.7339C53.8341 64.4946 55.4992 63.5343 55.4992 61.9977V50.9906C50.1709 54.9995 42.8358 55.0052 37.4998 50.9906ZM50.4993 24.5416V4.34359C50.4993 1.94868 48.5507 0 46.1558 0H10.8446C8.44965 0 6.50098 1.94868 6.50098 4.34359V50.6544C6.50098 53.0493 8.44965 54.998 10.8446 54.998H33.5C33.5 46.3917 33.4866 46.9244 33.5312 46.5283C26.8362 35.0503 37.497 20.9307 50.4993 24.5416ZM18.5005 9.99963H35.4999C36.6049 9.99963 37.4998 10.8946 37.4998 11.9996C37.4998 13.1045 36.6049 13.9995 35.4999 13.9995H18.5005C17.3956 13.9995 16.5006 13.1045 16.5006 11.9996C16.5006 10.8946 17.3956 9.99963 18.5005 9.99963ZM28.5002 29.9989H18.5005C17.3956 29.9989 16.5006 29.1039 16.5006 27.999C16.5006 26.894 17.3956 25.999 18.5005 25.999H28.5002C29.6051 25.999 30.5001 26.894 30.5001 27.999C30.5001 29.1039 29.6051 29.9989 28.5002 29.9989ZM18.5005 21.9992C17.3956 21.9992 16.5006 21.1042 16.5006 19.9993C16.5006 18.8943 17.3956 17.9993 18.5005 17.9993H35.4999C36.6049 17.9993 37.4998 18.8943 37.4998 19.9993C37.4998 21.1042 36.6049 21.9992 35.4999 21.9992H18.5005Z" fill="white"/>
</g>
<defs>
<clipPath id="clip0_379_1364">
<rect width="64" height="64" fill="white" transform="matrix(1 0 0 -1 0 64)"/>
</clipPath>
</defs>
</svg>
