<svg width="64" height="64" viewBox="0 0 64 64" fill="none" xmlns="http://www.w3.org/2000/svg">
<g clip-path="url(#clip0_379_1341)">
<path d="M54.5834 46.7305C49.391 46.7305 45.1667 50.9547 45.1667 56.1471V63.9048H64V56.1471C64 50.9547 59.7757 46.7305 54.5834 46.7305Z" fill="#1C1A17"/>
<path d="M9.41663 46.7305C4.22425 46.7305 0 50.9547 0 56.1471V63.9048H18.8334V56.1471C18.8334 50.9547 14.609 46.7305 9.41663 46.7305Z" fill="#1C1A17"/>
<path d="M32.0001 46.7305C26.8077 46.7305 22.5835 50.9547 22.5835 56.1471V63.9048H41.4169V56.1471C41.4167 50.9547 37.1925 46.7305 32.0001 46.7305Z" fill="#1C1A17"/>
<path d="M30.125 0.0957031H33.875V5.7207H30.125V0.0957031Z" fill="#1C1A17"/>
<path d="M20.3269 2.24121L23.8932 1.08246L25.6313 6.43184L22.065 7.59059L20.3269 2.24121Z" fill="#1C1A17"/>
<path d="M11.675 7.30664L14.7088 5.10164L18.0163 9.65227L14.9825 11.8573L11.675 7.30664Z" fill="#1C1A17"/>
<path d="M5.0105 14.8066L7.2155 11.7729L11.7661 15.0804L9.56112 18.1141L5.0105 14.8066Z" fill="#1C1A17"/>
<path d="M0.985596 23.9902L2.14435 20.424L7.49372 22.1621L6.33497 25.7284L0.985596 23.9902Z" fill="#1C1A17"/>
<path d="M0 30.2207H5.625V33.9707H0V30.2207Z" fill="#1C1A17"/>
<path d="M58.375 30.2207H64V33.9707H58.375V30.2207Z" fill="#1C1A17"/>
<path d="M56.5012 22.1611L61.8506 20.423L63.0093 23.9893L57.66 25.7274L56.5012 22.1611Z" fill="#1C1A17"/>
<path d="M52.2378 15.0645L56.7884 11.757L58.9934 14.7907L54.4428 18.0982L52.2378 15.0645Z" fill="#1C1A17"/>
<path d="M45.9956 9.6582L49.3031 5.10758L52.3369 7.31258L49.0294 11.8632L45.9956 9.6582Z" fill="#1C1A17"/>
<path d="M38.3665 6.43457L40.1046 1.0852L43.6708 2.24395L41.9327 7.59332L38.3665 6.43457Z" fill="#1C1A17"/>
<path d="M23.9563 23.2065C25.7526 21.4102 25.7526 18.498 23.9563 16.7017C22.1601 14.9055 19.2478 14.9055 17.4516 16.7017C15.6554 18.498 15.6554 21.4102 17.4516 23.2065C19.2478 25.0027 22.1601 25.0027 23.9563 23.2065Z" fill="#1C1A17"/>
<path d="M44.3437 24.4145C46.8159 23.8301 48.3462 21.3524 47.7619 18.8804C47.1775 16.4083 44.6997 14.8781 42.2276 15.4624C39.7555 16.0468 38.2252 18.5245 38.8095 20.9966C39.3939 23.4686 41.8716 24.9989 44.3437 24.4145Z" fill="#1C1A17"/>
<path d="M46.9215 45.4461C46.4795 44.4288 46.233 43.3078 46.233 42.1298C46.233 38.1702 49.0041 34.848 52.7082 33.9945V33.9703C52.7082 28.778 48.484 24.5537 43.2916 24.5537C38.0993 24.5537 33.875 28.778 33.875 33.9703V33.9945C37.5791 34.848 40.3504 38.1702 40.3504 42.1298C40.3504 43.308 40.1039 44.4291 39.6618 45.4463C41.123 46.4953 42.3618 47.8355 43.2918 49.3818C44.2216 47.8355 45.4604 46.4952 46.9215 45.4461Z" fill="#1C1A17"/>
<path d="M24.3382 45.4463C23.8961 44.4291 23.6496 43.3078 23.6496 42.1298C23.6496 38.1702 26.4209 34.848 30.125 33.9945V33.9703C30.125 28.778 25.9007 24.5537 20.7084 24.5537C15.516 24.5537 11.2917 28.778 11.2917 33.9703V33.9945C14.9959 34.848 17.767 38.1702 17.767 42.1298C17.767 43.3078 17.5205 44.4288 17.0785 45.4461C18.5396 46.4952 19.7784 47.8355 20.7084 49.3818C21.6382 47.8355 22.8771 46.4953 24.3382 45.4463Z" fill="#1C1A17"/>
<path d="M32.7255 46.673C35.2332 46.2664 36.9366 43.9041 36.5301 41.3965C36.1236 38.8888 33.7611 37.1856 31.2535 37.5921C28.7458 37.9986 27.0424 40.361 27.4489 42.8686C27.8554 45.3762 30.2179 47.0795 32.7255 46.673Z" fill="#1C1A17"/>
<path d="M10.4827 46.5932C12.9548 46.0089 14.4851 43.5311 13.9008 41.0591C13.3164 38.587 10.8387 37.0568 8.36655 37.6411C5.89443 38.2255 4.36409 40.7032 4.94844 43.1753C5.53279 45.6473 8.01054 47.1776 10.4827 46.5932Z" fill="#1C1A17"/>
<path d="M57.8255 45.3842C59.6217 43.588 59.6217 40.6757 57.8255 38.8795C56.0293 37.0832 53.117 37.0832 51.3207 38.8795C49.5245 40.6757 49.5245 43.588 51.3207 45.3842C53.117 47.1805 56.0293 47.1805 57.8255 45.3842Z" fill="#1C1A17"/>
</g>
<defs>
<clipPath id="clip0_379_1341">
<rect width="64" height="64" fill="white"/>
</clipPath>
</defs>
</svg>
