<svg width="72" height="72" viewBox="0 0 72 72" fill="none" xmlns="http://www.w3.org/2000/svg">
<path d="M48.97 36.6697C48.2 35.8997 46.95 35.8797 46.17 36.6397L39.8 42.8997C39.7 42.9897 39.59 43.0597 39.47 43.1097C39.44 43.1197 39.42 43.1197 39.39 43.1297C39.3 43.1597 39.2 43.1797 39.1 43.1797C39.02 43.1797 38.95 43.1497 38.87 43.1397C38.82 43.1197 38.77 43.1297 38.72 43.1097C38.6 43.0597 38.49 42.9797 38.39 42.8797C38.2 42.6897 38.11 42.4297 38.11 42.1697C38.11 41.9097 38.21 41.6597 38.41 41.4697L44.78 35.2197H44.79L48.18 31.8797C48.56 31.5097 48.77 31.0197 48.78 30.4897C48.79 29.9697 48.58 29.4597 48.21 29.0897C47.84 28.7097 47.35 28.4997 46.82 28.4997H46.8C46.28 28.4997 45.79 28.6997 45.42 29.0597L35.64 38.6497C35.54 38.7397 35.43 38.8097 35.31 38.8597C35.29 38.8697 35.26 38.8697 35.24 38.8697C35.14 38.8997 35.04 38.9297 34.94 38.9297H34.93C34.86 38.9297 34.78 38.8997 34.7 38.8797C34.65 38.8697 34.6 38.8697 34.56 38.8597C34.44 38.8097 34.32 38.7297 34.23 38.6297C33.84 38.2397 33.85 37.5997 34.24 37.2197L45.72 25.9697C46.1 25.5897 46.31 25.0997 46.31 24.5697C46.32 24.0597 46.11 23.5497 45.74 23.1697C44.98 22.3897 43.73 22.3797 42.95 23.1397L40.4 25.6397L31.47 34.3997C31.08 34.7797 30.44 34.7797 30.06 34.3797C29.87 34.1797 29.77 33.9297 29.77 33.6697C29.78 33.4197 29.88 33.1597 30.07 32.9697L39 24.2197C39.38 23.8397 39.59 23.3497 39.59 22.8197C39.6 22.3097 39.39 21.7997 39.03 21.4197C38.26 20.6397 37.01 20.6297 36.23 21.3897L33.26 24.3097C33.26 24.3097 33.18 24.3797 33.14 24.4097L21.16 36.1497C20.68 36.6297 20.06 36.9197 19.37 36.9997C18.31 37.1397 17.19 36.7297 16.39 35.9097C15.83 35.3397 15.47 34.6297 15.35 33.8497L14.76 29.3697C14.6 28.1797 13.63 27.1497 12.45 26.9097L11.01 26.5997C10.77 26.5597 10.54 26.5997 10.38 26.7397C10.22 26.8697 10.13 27.0697 10.13 27.2997L10.21 38.8497L10.27 47.2297C10.28 48.7597 9.71001 50.1597 8.68001 51.1797L5.51001 54.2797L17.02 66.0197L20.81 62.3097C21.86 61.2797 22.99 60.4697 24.16 59.9097C25.66 59.1997 27.19 58.3497 28.73 57.3797C32.92 54.7197 37.26 51.0897 41.7 46.5397L42.59 45.6997L48.95 39.4697C49.32 39.0997 49.54 38.5897 49.55 38.0797C49.55 37.5597 49.34 37.0497 48.98 36.6697H48.97Z" fill="white"/>
<path d="M62.2601 38.3897L36.0001 64.6597L30.1701 58.8197C34.3701 56.1097 38.7001 52.4697 43.0901 47.9697L50.3401 40.8997C51.0901 40.1597 51.5301 39.1397 51.5401 38.0997C51.5501 37.0497 51.1301 36.0197 50.4001 35.2697C49.8901 34.7597 49.2701 34.4297 48.6201 34.2497L49.5701 33.3097C50.3301 32.5697 50.7601 31.5697 50.7701 30.5097C50.7801 29.4697 50.3601 28.4397 49.6301 27.6897C49.1001 27.1497 48.4301 26.7797 47.7101 26.6097C48.0801 26.0097 48.3001 25.3197 48.3001 24.5897C48.3101 23.5497 47.9001 22.5197 47.1601 21.7697C45.6301 20.2097 43.1101 20.1797 41.5401 21.7197L41.4401 21.8097C41.2601 21.1497 40.9301 20.5197 40.4401 20.0197C38.9101 18.4597 36.3901 18.4297 34.8201 19.9697L31.9601 22.7797C31.9101 22.8097 31.8801 22.8397 31.8401 22.8697L19.7501 34.7297C19.5901 34.8897 19.3701 34.9897 19.1101 35.0197C18.6601 35.0797 18.1701 34.8897 17.8101 34.5097C17.5401 34.2397 17.3801 33.9097 17.3301 33.5797L16.7301 29.1097C16.4501 27.0697 14.8501 25.3597 12.8401 24.9497L11.4101 24.6497C10.5701 24.4697 9.7301 24.6697 9.1001 25.1897C8.4701 25.6997 8.1201 26.4797 8.1201 27.3097L8.1901 36.6297C2.7101 29.6697 2.4801 19.6497 8.2701 12.7397C15.4601 4.1697 28.2701 3.7497 36.0001 11.4897C43.7301 3.7497 56.5401 4.1697 63.7301 12.7397C70.0301 20.2497 69.2001 31.4497 62.2601 38.3897Z" fill="white"/>
</svg>
