<svg width="72" height="72" viewBox="0 0 72 72" fill="none" xmlns="http://www.w3.org/2000/svg">
<g clip-path="url(#clip0_379_1329)">
<path d="M8.26877 11.2641C8.46564 5.13281 17.3531 5.13281 17.55 11.2641C17.3531 17.3953 8.46564 17.3953 8.26877 11.2641ZM6.39845 16.6359L5.03439 18C4.52814 18.4781 4.92189 19.3922 5.59689 19.3641C5.80783 19.3641 6.0047 19.2797 6.15939 19.125L7.52345 17.7609C7.83283 17.4516 7.83283 16.9453 7.52345 16.6219C7.21408 16.3266 6.70783 16.3266 6.39845 16.6359ZM19.4203 5.87812L20.7844 4.51406C21.5156 3.76875 20.3906 2.64375 19.6453 3.375L18.2813 4.73906C17.55 5.49844 18.675 6.62344 19.4203 5.87812ZM2.55939 12.0656H4.50002C4.95002 12.0656 5.30158 11.7 5.30158 11.2641C5.30158 10.8281 4.93595 10.4625 4.50002 10.4625H2.55939C2.10939 10.4625 1.75783 10.8281 1.75783 11.2641C1.75783 11.7 2.12345 12.0656 2.55939 12.0656ZM20.5031 11.2641C20.5031 11.7141 20.8688 12.0656 21.3047 12.0656H23.2453C24.3 12.0656 24.3 10.4625 23.2453 10.4625H21.3047C20.8688 10.4625 20.5031 10.8141 20.5031 11.2641ZM6.39845 5.87812C6.70783 6.1875 7.21408 6.1875 7.53752 5.87812C7.84689 5.56875 7.84689 5.0625 7.53752 4.73906L6.15939 3.375C5.85002 3.06562 5.34377 3.06562 5.02033 3.375C4.69689 3.68438 4.71095 4.19062 5.02033 4.51406L6.39845 5.87812ZM18.2813 16.6359C17.9719 16.9453 17.9719 17.4516 18.2813 17.775L19.6453 19.1391C20.3906 19.8703 21.5156 18.7453 20.7844 18L19.4203 16.6359C19.0969 16.3266 18.5906 16.3266 18.2813 16.6359ZM13.711 2.85469V0.914062C13.711 -0.140625 12.1078 -0.140625 12.1078 0.914062V2.85469C12.1078 3.89531 13.6969 3.90937 13.711 2.85469ZM12.1078 19.6734V21.6141C12.1078 22.0641 12.4735 22.4156 12.9094 22.4156C13.3594 22.4156 13.711 22.05 13.711 21.6141V19.6734C13.6969 18.6187 12.1078 18.6187 12.1078 19.6734ZM9.9422 65.3344C10.0828 65.1234 10.111 64.8422 10.0125 64.6031L9.33752 63.0844C8.76095 61.6641 8.91564 58.4016 10.0688 56.6578C9.6047 56.7281 9.12658 56.7703 8.66252 56.7422C5.59689 58.9078 5.17502 63.2953 7.05939 66.0234L8.85939 66.2344C9.3797 66.3469 9.68908 65.7 9.9422 65.3344ZM30.6844 50.2875C30.0094 50.0766 29.0391 49.725 27.9844 49.1484C26.4094 51.4547 26.325 55.3219 27.0703 57.2484L29.9109 58.5703C30.1922 58.6969 30.375 58.9781 30.375 59.2875C30.3891 60.6375 31.0359 61.9594 32.0906 62.8172C32.4281 63.0844 32.4703 63.6188 32.2031 63.9422C31.711 64.5328 31.4156 65.2359 31.3453 66.0094C31.3453 66.15 31.4016 66.2062 31.5281 66.2203H34.5656C34.65 66.2203 34.7203 66.1781 34.7485 66.0938C34.9313 65.4328 35.0438 64.7578 35.0719 64.0688C35.1422 62.8875 34.9735 61.7062 34.6078 60.5812C32.3438 58.6687 30.2344 53.7891 30.6844 50.2875ZM25.7203 58.2328C24.6797 55.9969 24.6656 51.1594 26.6344 48.3047C22.8797 45.8859 20.911 40.4297 21.4735 36.7734C17.8594 38.3344 11.4188 39.3328 8.49377 39.1219C6.4547 39.1219 5.3297 39.1219 4.12033 40.0922C1.51877 42.1734 0.309392 47.4469 1.6172 50.9203C2.23595 52.4953 3.13595 53.4797 2.98127 55.5328C2.79845 57.7969 1.44845 58.6406 0.632829 60.3984C-0.0984207 62.1141 0.126579 64.35 1.29377 67.0359C1.43439 67.3734 1.77189 67.5844 2.13752 67.5703L4.92189 67.4719C5.30158 67.4578 5.5547 67.1766 5.68127 66.8531C3.17814 63.1406 4.19064 57.7547 7.95939 55.2656C8.64845 54.9562 9.4922 55.2937 10.2235 55.0266C11.025 54.8859 11.7141 54.4219 12.4313 54.0844C13.9219 54.1969 15.4125 54.3797 16.8891 53.9578C16.7906 53.0016 16.3688 49.1344 17.9438 49.4438C18.3797 49.5281 18.661 49.95 18.5625 50.3859C17.6625 54.2672 19.6453 58.3875 23.4563 60.4688C23.7094 60.6094 23.8781 60.8766 23.8781 61.1719C23.8922 61.8187 24.0328 62.4656 24.3141 63.0422C24.525 63.4922 24.8203 63.9 25.1719 64.2656C25.9453 65.1656 24.4688 65.9109 24.286 66.7828C24.1453 67.1344 24.286 67.4016 24.3563 67.5C24.4266 67.5984 24.6235 67.8234 24.975 67.7953L27.3094 67.6406C27.7172 67.6125 28.0266 67.275 28.0125 66.8672L27.9422 63.6047C27.436 61.7203 26.6906 59.9063 25.7203 58.2328ZM42.9328 30.2203C42.0891 31.1062 41.0203 31.4719 40.2609 31.6266C39.7969 31.7109 39.5016 32.2312 39.6563 32.6812C39.8813 33.2578 39.3188 33.8766 38.7281 33.7078C38.1375 33.5391 37.575 34.1578 37.7719 34.7203C38.7985 38.0391 36.3234 40.7672 33.2859 40.9078C32.7234 40.6406 31.4859 39.8953 31.0641 38.475C30.9375 38.0531 30.9094 37.6172 30.9375 37.1531C30.9797 36.7172 30.6422 36.3234 30.2063 36.2812C29.7703 36.2391 29.3766 36.5625 29.3344 36.9984C28.9406 39.4453 31.0922 41.7656 32.5547 42.3141C33.7641 44.1562 33.4547 47.2922 31.3594 48.7969C25.7344 47.4047 21.9375 41.4703 23.2735 35.6625C23.5547 33.8063 24.3 31.3313 26.2688 30.1078C28.1672 28.9406 31.0359 29.0109 32.1188 29.0391C33.7359 29.0391 34.8469 29.4891 36.4641 28.8C36.9422 28.6031 39.3469 27.4922 39.5578 25.5094C39.6703 21.1078 31.275 21.5578 34.5797 13.4859L35.2688 13.725C33.525 20.7844 42.3 20.1516 44.0438 24.9187C44.6063 26.6906 44.1563 28.9125 42.9328 30.2203ZM33.8484 31.1344C33.8203 31.2469 33.6656 31.8234 33.1313 32.1328C32.7094 32.3719 32.2875 32.3297 32.1188 32.2875C31.0922 32.1047 30.7828 33.6516 31.8094 33.8625C33.5953 34.2703 35.2266 32.7797 35.4234 31.4859C35.6344 30.4594 34.0734 30.1078 33.8484 31.1344ZM51.6235 11.3344C51.2016 11.4328 50.7797 11.4891 50.3438 11.4891C50.5969 11.8125 50.836 12.1359 51.075 12.4875C51.2016 12.1078 51.3703 11.7141 51.6235 11.3344ZM58.4719 11.8828C59.1891 13.0078 59.5969 14.1469 59.85 15.1312C60.3422 14.1187 60.8625 13.1062 61.3969 12.0938C61.3828 12.0656 61.3547 12.0516 61.3406 12.0234C60.4406 12.2625 59.3578 12.2062 58.4719 11.8828ZM69.0188 6.46875C68.5406 6.45469 67.9781 6.66563 67.6547 6.21563C67.5281 6.04688 67.4719 5.83594 67.5 5.625C67.4297 5.4 66.8953 5.03437 66.0938 5.03437C65.7844 5.0625 65.4469 5.10469 65.2219 4.85156C65.0109 4.68281 64.9125 4.40156 64.9547 4.13437C64.9547 3.67031 64.0828 3.12188 62.9578 3.12188C62.0578 3.12188 61.425 3.44531 61.1438 3.74063C60.9047 4.00781 60.525 4.07812 60.2016 3.92344C59.4844 3.55781 58.1063 3.50156 57.2203 3.76875C57.0094 3.83906 56.7703 3.81094 56.5734 3.69844C56.3766 3.58594 56.25 3.38906 56.1938 3.17813C56.0531 2.51719 54.9563 1.81406 53.4234 1.81406C51.975 1.81406 50.9625 2.41875 50.7094 3.02344C50.625 3.23438 50.4563 3.38906 50.2453 3.45938C49.5703 3.61406 49.0078 3.02344 48.2625 3.12188C47.1656 3.12188 46.3078 3.62813 46.2656 4.09219C46.2938 4.37344 46.1813 4.65469 45.9563 4.82344C45.7031 5.02031 45.3516 5.04844 45.0844 4.89375C44.536 4.58437 43.8328 4.41562 43.0875 4.41562C41.4422 4.41562 40.3031 5.21719 40.3031 5.93438C40.5141 6.55313 40.1344 7.22813 39.4172 7.12969C37.7719 7.12969 36.6328 7.94531 36.6328 8.6625C36.8438 10.4906 41.161 10.6453 42.0469 9.12656C42.3141 8.73281 42.9469 8.64844 43.2703 9C43.5094 9.25312 44.2828 9.53438 45.0703 9.47813C45.7875 9.45 46.3922 9.18281 46.5469 8.97187C46.8703 8.62031 47.4469 8.63438 47.7563 8.98594C48.8391 10.1391 51.1734 10.125 52.425 9.30937C52.7063 9.12656 53.0719 9.12656 53.3531 9.3375C53.6203 9.54844 53.7328 9.88594 53.6484 10.2234C53.6063 10.3359 53.6484 10.4484 53.7188 10.5609C54.0563 11.2781 56.1797 11.5594 57.0234 10.9828C57.5719 10.7578 57.5297 10.2375 58.0641 10.0969C58.275 10.0266 58.5 10.0688 58.6969 10.1813C59.4422 10.6313 60.7078 10.6734 61.4672 10.2937C61.6922 10.1953 61.9453 10.1812 62.1703 10.2937C62.3953 10.4062 62.55 10.6031 62.6063 10.8422C62.7047 11.2641 63.1406 11.6297 63.5625 11.8266C64.9547 12.6703 68.175 12.0375 68.161 10.7016C68.1188 10.4062 68.0344 10.0688 68.2594 9.81563C68.4141 9.61875 68.6531 9.50625 68.9063 9.50625C70.4953 9.57656 71.8734 8.73281 71.8313 7.9875C71.7891 7.27031 70.65 6.46875 69.0188 6.46875ZM47.0953 10.575C46.9547 10.6453 46.8422 10.7016 46.6875 10.7719C56.3766 21.8531 54.0844 34.3266 53.1141 38.0109H56.25C55.5891 32.7656 57.4734 25.5938 59.4844 19.8C58.4859 22.1766 57.5859 24.6234 56.8125 27.0703C56.6016 27.8578 55.3781 27.7734 55.2516 26.9719C54.4359 22.5422 52.9313 18.5625 50.8641 15.075C49.7672 13.4859 48.7688 11.5172 47.0953 10.575ZM64.0125 43.5234H57.0234C55.9828 43.5234 55.9688 45.1266 57.0234 45.1266H64.0125C65.0672 45.1266 65.0672 43.5375 64.0125 43.5234ZM69.3984 43.5234H67.4578C66.4031 43.5234 66.4031 45.1266 67.4578 45.1266H69.3984C70.4531 45.1266 70.4531 43.5375 69.3984 43.5234ZM49.6688 51.0328C50.7094 51.0328 50.7235 49.4297 49.6688 49.4297H42.6797C41.6391 49.4297 41.625 51.0328 42.6797 51.0328H49.6688ZM39.2203 49.4297H37.2797C36.225 49.4297 36.225 51.0328 37.2797 51.0328H39.2203C40.275 51.0187 40.275 49.4297 39.2203 49.4297ZM13.9922 70.2703H10.0547C9.01408 70.2703 9.00002 71.8734 10.0547 71.8734H13.9922C15.0328 71.8594 15.0469 70.2703 13.9922 70.2703ZM8.11408 70.2703H7.03127C5.97658 70.2703 5.97658 71.8734 7.03127 71.8734H8.12814C9.16877 71.8594 9.16877 70.2703 8.11408 70.2703ZM57.7688 68.8078H53.8313C52.7906 68.8078 52.7766 70.4109 53.8313 70.4109H57.7688C58.8094 70.4109 58.8234 68.8219 57.7688 68.8078ZM51.8906 68.8078H50.7938C49.7391 68.8078 49.7391 70.4109 50.7938 70.4109H51.8906C52.9453 70.4109 52.9453 68.8219 51.8906 68.8078ZM68.2594 58.3172H58.1625C57.1219 58.3172 57.1078 59.9203 58.1625 59.9203H68.2594C69.3141 59.9203 69.3141 58.3172 68.2594 58.3172ZM53.1844 59.9203C54.2391 59.9203 54.2391 58.3172 53.1844 58.3172H50.3719C49.3172 58.3172 49.3172 59.9203 50.3719 59.9203H53.1844ZM65.0391 49.725C64.5891 49.725 64.2375 50.0906 64.2375 50.5266V52.5094C63.6188 52.0312 62.2969 51.1875 61.8609 52.2844C61.7203 52.7062 61.9594 53.1562 62.3813 53.2969C63.3938 53.5078 64.2375 54.8859 64.2656 55.5328C64.2938 55.6312 64.3359 55.7297 64.3781 55.8281C64.6875 56.3063 65.4047 56.3063 65.7141 55.8281C65.7703 55.7437 65.7984 55.6312 65.8266 55.5328C65.8547 54.8859 66.6984 53.4937 67.7109 53.2969C68.1328 53.1562 68.3578 52.7062 68.2313 52.2844C67.7953 51.1875 66.4594 52.0312 65.8547 52.5094V50.5266C65.8406 50.0766 65.4891 49.725 65.0391 49.725ZM42.961 46.9125C43.0875 47.5453 43.9313 47.7984 44.3531 47.2781C44.761 46.6453 44.5922 45.8859 45.5766 45.1125C46.0969 44.6625 47.2219 44.6344 46.9406 43.6641C46.5047 42.5672 45.1688 43.3969 44.5641 43.8891V41.9062C44.5641 41.4562 44.1985 41.1047 43.7625 41.1047C43.3125 41.1047 42.961 41.4703 42.961 41.9062V43.875C42.3422 43.3969 41.0063 42.5531 40.5844 43.65C40.4438 44.0719 40.6828 44.5219 41.1047 44.6625C42.0891 44.8734 42.9328 46.2656 42.961 46.9125ZM47.8547 62.0578C47.3484 62.2266 46.8844 62.4656 46.4766 62.7891V60.8062C46.4766 60.3562 46.1109 60.0047 45.675 60.0047C45.2391 60.0047 44.8735 60.3703 44.8735 60.8062V62.7891C44.2547 62.3109 42.9188 61.4672 42.4969 62.5641C42.2156 63.5344 43.3266 63.5625 43.861 64.0125C44.5781 64.575 44.8172 65.3766 44.9016 65.8125C44.9719 66.1359 45.225 66.375 45.5484 66.4594C45.9703 66.5438 46.3922 66.2203 46.4766 65.8125C46.5047 65.1656 47.3484 63.7734 48.3609 63.5766C49.3453 63.2672 48.8531 61.7484 47.8547 62.0578Z" fill="#1C1A17"/>
</g>
<defs>
<clipPath id="clip0_379_1329">
<rect width="72" height="72" fill="white"/>
</clipPath>
</defs>
</svg>
