<svg width="76" height="76" viewBox="0 0 76 76" fill="none" xmlns="http://www.w3.org/2000/svg">
<path d="M55.8866 31.1328C52.1797 31.1328 49.1641 34.1486 49.1641 37.8557C49.1641 41.5625 52.1797 44.578 55.8866 44.578C59.5936 44.578 62.6092 41.5625 62.6092 37.8557C62.6092 34.1486 59.5936 31.1328 55.8866 31.1328ZM57.4614 39.4297C57.0458 39.8439 56.4728 40.0827 55.8866 40.0827C55.3003 40.0827 54.7272 39.8439 54.3117 39.4297C53.8976 39.0141 53.6601 38.4411 53.6601 37.8561C53.6601 37.27 53.8976 36.6955 54.3117 36.2814C54.7259 35.8672 55.3003 35.6296 55.8866 35.6296C56.4728 35.6296 57.0473 35.8672 57.4614 36.2814C57.8756 36.6955 58.1132 37.27 58.1132 37.8561C58.1132 38.4411 57.8756 39.0156 57.4614 39.4297Z" fill="#C6A04A"/>
<path d="M20.1134 31.1328C16.4066 31.1328 13.3911 34.1486 13.3911 37.8557C13.3911 41.5625 16.4066 44.5781 20.1134 44.5781C23.8206 44.5781 26.8366 41.5625 26.8366 37.8557C26.8366 34.1486 23.8206 31.1328 20.1134 31.1328ZM21.6882 39.43C21.274 39.8442 20.6996 40.0817 20.1134 40.0817C19.5271 40.0817 18.954 39.8442 18.5398 39.43C18.1242 39.0144 17.8868 38.4414 17.8868 37.8551C17.8868 37.2704 18.1243 36.6958 18.5398 36.2817C18.9525 35.866 19.5269 35.6285 20.1134 35.6285C20.6996 35.6285 21.274 35.8662 21.6882 36.2817C22.1023 36.6958 22.34 37.2703 22.34 37.8551C22.34 38.4414 22.1023 39.0144 21.6882 39.43Z" fill="#C6A04A"/>
<path d="M68.4928 22.1953H73.7734C75.0031 22.1953 76 21.1984 76 19.9688C76 18.7391 75.0031 17.7422 73.7734 17.7422H55.8867C48.1061 17.7422 41.3437 22.1833 38 28.6633C34.6563 22.1833 27.8939 17.7422 20.1133 17.7422H2.22656C0.996906 17.7422 0 18.7391 0 19.9688C0 21.1984 0.996906 22.1953 2.22656 22.1953H7.50723C2.93238 25.8852 0 31.5338 0 37.8555C0 48.946 9.02277 57.9688 20.1133 57.9688C27.8939 57.9688 34.6563 53.5276 38 47.0476C41.3437 53.5276 48.1061 57.9688 55.8867 57.9688C66.9772 57.9688 76 48.946 76 37.8555C76 31.5338 73.0676 25.8852 68.4928 22.1953ZM20.1133 49.031C13.951 49.031 8.93787 44.0177 8.93787 37.8555C8.93787 31.6929 13.951 26.6795 20.1133 26.6795C26.276 26.6795 31.2896 31.6929 31.2896 37.8555C31.2896 44.0176 26.276 49.031 20.1133 49.031ZM55.8867 49.0312C49.7243 49.0312 44.711 44.018 44.711 37.8558C44.711 31.6932 49.7243 26.6798 55.8867 26.6798C62.0491 26.6798 67.0624 31.6932 67.0624 37.8558C67.0624 44.0179 62.0491 49.0312 55.8867 49.0312Z" fill="#C6A04A"/>
<path d="M37.9999 21.0283C39.4537 19.4836 41.1077 18.1249 42.924 16.9927C45.7069 15.2584 48.7946 14.1129 52.0081 13.5994C47.5879 12.4064 42.8378 11.7793 37.9999 11.7793C33.162 11.7793 28.4119 12.4066 23.9917 13.5996C27.2052 14.113 30.2929 15.2587 33.0758 16.9929C34.8921 18.125 36.5461 19.4836 37.9999 21.0283Z" fill="#C6A04A"/>
<path d="M38.0002 54.6816C36.6368 56.1304 35.0955 57.4126 33.4111 58.5008L36.072 63.1095C36.4698 63.7984 37.2048 64.2228 38.0002 64.2228C38.7957 64.2228 39.5308 63.7984 39.9284 63.1095L42.5893 58.5008C40.905 57.4126 39.3636 56.1304 38.0002 54.6816Z" fill="#C6A04A"/>
</svg>
