<svg width="52" height="52" viewBox="0 0 52 52" fill="none" xmlns="http://www.w3.org/2000/svg">
<path d="M33.7084 34.0234L15.9539 52H34.6329V34.0234H33.7084Z" fill="#1C1A17"/>
<path d="M45.8047 43.6723C45.8047 38.8705 42.2785 34.8772 37.6797 34.1445V52.0004H44.2812C45.1226 52.0004 45.8047 51.3183 45.8047 50.477V43.6723Z" fill="#1C1A17"/>
<path d="M34.125 15.234C31.1042 15.234 28.2187 13.7912 26.4062 11.3746L26 10.833L25.5938 11.3746C23.7813 13.7912 20.8958 15.234 17.875 15.234H16.3516V20.82C16.3516 26.1401 20.6799 30.4684 26 30.4684C31.3201 30.4684 35.6484 26.1401 35.6484 20.82V15.234H34.125Z" fill="#1C1A17"/>
<path d="M10.2578 18.2812C10.2578 19.964 11.6219 21.3281 13.3047 21.3281V15.2344C11.6219 15.2344 10.2578 16.5985 10.2578 18.2812Z" fill="#1C1A17"/>
<path d="M26 33.5152C24.5799 33.5152 23.2135 33.2808 21.9375 32.8486V34.023H15.8438C10.5151 34.023 6.19531 38.3428 6.19531 43.6714V50.4761C6.19531 51.3175 6.87741 51.9996 7.71875 51.9996H11.6714L30.0625 33.3785V32.8486C28.7865 33.2808 27.4201 33.5152 26 33.5152Z" fill="#1C1A17"/>
<path d="M38.6953 15.2344V21.3281C40.3781 21.3281 41.7422 19.964 41.7422 18.2812C41.7422 16.5985 40.3781 15.2344 38.6953 15.2344Z" fill="#1C1A17"/>
<path d="M38.6954 12.1875C38.9986 12.1875 39.2964 12.2106 39.5878 12.2535C39.5318 11.499 39.4081 10.7506 39.204 10.0211C37.5891 4.24734 32.2822 0 26.0001 0C19.7179 0 14.4111 4.24734 12.7962 10.0211C12.5921 10.7505 12.4684 11.499 12.4124 12.2535C12.7037 12.2106 13.0016 12.1875 13.3048 12.1875H17.8751C19.9419 12.1875 21.9163 11.2003 23.1563 9.54688L24.7813 7.38034C25.3907 6.56784 26.6094 6.56784 27.2187 7.38034L28.8437 9.54688C30.0839 11.2003 32.0583 12.1875 34.1251 12.1875H38.6954Z" fill="#1C1A17"/>
<path d="M13.8119 24.3752H13.3047C12.957 24.3752 12.6166 24.3443 12.2847 24.2881C12.2863 24.3171 12.2891 24.3458 12.2891 24.3752C12.2891 25.2152 11.6056 25.8986 10.7656 25.8986C9.9256 25.8986 9.24219 25.2152 9.24219 24.3752C9.24219 23.9206 9.44338 23.5129 9.76026 23.2336C8.92673 22.6353 8.24911 21.8332 7.80305 20.8994C6.82023 21.7383 6.19531 22.9848 6.19531 24.3752C6.19531 26.8953 8.24555 28.9455 10.7656 28.9455C12.4569 28.9455 13.9355 28.0214 14.7257 26.6522C14.3511 25.9307 14.0438 25.1689 13.8119 24.3752Z" fill="#1C1A17"/>
<path d="M44.197 20.8994C43.7508 21.8332 43.0733 22.6353 42.2398 23.2336C42.5566 23.513 42.7578 23.9206 42.7578 24.3752C42.7578 25.2152 42.0744 25.8986 41.2344 25.8986C40.3944 25.8986 39.711 25.2152 39.711 24.3752C39.711 24.3458 39.7137 24.3171 39.7153 24.2881C39.3833 24.3444 39.0429 24.3753 38.6952 24.3753H38.188C37.9562 25.169 37.6488 25.9308 37.2742 26.6523C38.0644 28.0215 39.543 28.9456 41.2343 28.9456C43.7544 28.9456 45.8046 26.8954 45.8046 24.3753C45.8046 22.9849 45.1797 21.7384 44.197 20.8994Z" fill="#1C1A17"/>
</svg>
