<svg width="16" height="16" viewBox="0 0 16 16" fill="none" xmlns="http://www.w3.org/2000/svg">
<g clip-path="url(#clip0_245_1188)">
<path fill-rule="evenodd" clip-rule="evenodd" d="M8.0034 0.400391C3.81534 0.400391 0.40003 3.81031 0.400024 7.99837C0.400014 12.1864 3.81532 15.6004 8.0034 15.6004C12.1915 15.6004 15.6 12.1864 15.6 7.99837C15.6 3.81031 12.1915 0.400391 8.0034 0.400391ZM7.9926 3.15385C8.37409 3.14934 8.687 3.45495 8.69151 3.83644C8.69159 3.84365 8.69156 3.85086 8.69142 3.85806V7.30899H12.1424C12.5242 7.30899 12.8338 7.61854 12.8338 8.00039C12.8338 8.38224 12.5242 8.69179 12.1424 8.69179H8.0034C7.62189 8.69399 7.31083 8.3865 7.30863 8.00499C7.30862 8.00278 7.30862 8.00057 7.30862 7.99837V3.85806C7.30119 3.47662 7.60439 3.16138 7.98583 3.15395C7.98809 3.1539 7.99035 3.15387 7.9926 3.15385Z" fill="#F7F6F2"/>
</g>
<defs>
<clipPath id="clip0_245_1188">
<rect width="16" height="16" fill="white"/>
</clipPath>
</defs>
</svg>
