<svg width="26" height="26" viewBox="0 0 26 26" fill="none" xmlns="http://www.w3.org/2000/svg">
<g clip-path="url(#clip0_245_961)">
<path d="M3.68225 7.15005L3.68083 10.4207C3.6808 10.4605 3.68862 10.4999 3.70383 10.5367C3.71905 10.5735 3.74137 10.6069 3.76951 10.635C3.79765 10.6632 3.83106 10.6855 3.86784 10.7008C3.90461 10.716 3.94403 10.7238 3.98384 10.7238H9.66875C9.74908 10.7237 9.82609 10.6918 9.88289 10.635C9.93969 10.5782 9.97163 10.5012 9.97171 10.4208V7.15005C9.97164 7.06972 9.9397 6.99269 9.88291 6.93587C9.82611 6.87905 9.74909 6.84709 9.66875 6.84699H3.98526C3.90492 6.84709 3.82789 6.87905 3.77108 6.93586C3.71428 6.99268 3.68233 7.06971 3.68225 7.15005ZM24.7787 13.4752C24.7787 13.1401 24.9706 12.8575 25.2291 12.7791V14.1713C24.9706 14.0929 24.7787 13.8106 24.7787 13.4752ZM3.71912 15.7484C3.61516 16.0839 3.56242 16.4331 3.56266 16.7843L3.56296 17.0425C3.32053 17.0065 2.98822 16.9557 2.81049 16.9279C2.81049 16.74 2.81023 16.3518 2.81049 15.7484H3.71912ZM3.02895 15.4437H3.82957C4.08909 14.8089 4.52948 14.2643 5.09598 13.8777C5.66249 13.4911 6.33012 13.2795 7.01588 13.2692C7.47997 13.2607 7.94104 13.3455 8.37166 13.5188C8.80227 13.692 9.19364 13.9501 9.52245 14.2778C9.86426 14.6124 10.1353 15.0124 10.3193 15.454C10.5034 15.8955 10.5968 16.3695 10.5939 16.8479L10.5933 17.0053V17.0565C12.6519 17.0582 14.9313 17.063 17.55 17.0711L17.5496 17.0085C17.5491 16.9345 17.5486 16.8596 17.5486 16.7844C17.5485 16.0097 17.8044 15.2566 18.2765 14.6423C18.7486 14.0281 19.4105 13.587 20.1591 13.3877C20.9078 13.1883 21.7013 13.242 22.4164 13.5402C23.1314 13.8384 23.7279 14.3646 24.113 15.0368H25.2291V14.4829C24.8017 14.4035 24.474 13.9824 24.474 13.475C24.474 12.9676 24.8016 12.5467 25.2291 12.4674V12.0532C25.2266 11.9469 25.1849 11.8452 25.112 11.7676C25.0391 11.6901 24.9401 11.6422 24.8341 11.6331C23.1088 11.5278 19.8315 11.3132 18.6446 11.2298C18.4989 11.2172 18.3605 11.1601 18.2483 11.0662C18.1361 10.9722 18.0555 10.846 18.0175 10.7047C17.9407 10.4318 17.817 9.94069 17.6738 9.37204C17.4638 8.53847 17.2026 7.501 16.9668 6.6654C16.9285 6.53107 16.8477 6.41281 16.7363 6.32846C16.625 6.24411 16.4893 6.19823 16.3496 6.19775H3.46836C3.35296 6.19781 3.2423 6.24363 3.16065 6.32517C3.079 6.40671 3.03302 6.5173 3.03281 6.6327L3.03062 12.3551H3.46734C3.50775 12.3551 3.5465 12.3711 3.57507 12.3997C3.60364 12.4283 3.61969 12.467 3.61969 12.5074V14.7436C3.61969 14.784 3.60364 14.8227 3.57507 14.8513C3.5465 14.8799 3.50775 14.8959 3.46734 14.8959H3.029L3.02895 15.4437ZM10.5076 7.15005C10.5077 6.98893 10.5718 6.83445 10.6858 6.72052C10.7997 6.60658 10.9542 6.54249 11.1153 6.5423H16.1087C16.2432 6.54226 16.3739 6.58685 16.4804 6.66908C16.5868 6.75131 16.6629 6.86654 16.6969 6.9967C16.8834 7.71342 17.3186 9.38494 17.5487 10.2679C17.5721 10.3578 17.5746 10.4518 17.556 10.5427C17.5374 10.6337 17.4982 10.7192 17.4414 10.7926C17.3846 10.8661 17.3118 10.9255 17.2284 10.9664C17.145 11.0073 17.0534 11.0286 16.9606 11.0285H11.1157C10.9545 11.0283 10.8001 10.9643 10.6861 10.8503C10.5722 10.7364 10.5081 10.5819 10.5079 10.4208L10.5076 7.15005ZM3.55403 10.8503C3.49747 10.7939 3.45265 10.7269 3.42214 10.6531C3.39164 10.5794 3.37605 10.5003 3.37629 10.4204L3.37771 7.1498C3.37797 6.98873 3.44208 6.83432 3.556 6.72045C3.66991 6.60657 3.82434 6.54251 3.98541 6.5423H9.66875C9.82983 6.54256 9.98423 6.60668 10.0981 6.72061C10.212 6.83454 10.276 6.98898 10.2762 7.15005V10.4207C10.2761 10.5818 10.212 10.7362 10.0982 10.8502C9.98428 10.9641 9.82985 11.0283 9.66875 11.0285H3.98384C3.90398 11.0287 3.82487 11.0131 3.75109 10.9825C3.67731 10.952 3.61033 10.9071 3.55403 10.8504V10.8503ZM25.5357 15.3415V16.5686C25.5352 16.6719 25.4961 16.7713 25.4262 16.8474C25.3562 16.9235 25.2604 16.9707 25.1575 16.9799L24.5707 17.0272C24.5765 16.9451 24.5794 16.8647 24.5794 16.7845C24.5792 16.287 24.4735 15.7952 24.2693 15.3416L25.5357 15.3415ZM3.3152 14.591H3.02925V12.6595H3.3152V14.591ZM2.72614 12.2243H2.40459V11.6763H2.72614V12.2243ZM21.0638 15.507C21.3164 15.507 21.5634 15.5819 21.7734 15.7223C21.9835 15.8626 22.1472 16.0621 22.2439 16.2955C22.3406 16.5289 22.3658 16.7857 22.3166 17.0335C22.2673 17.2813 22.1456 17.5089 21.967 17.6875C21.7884 17.8661 21.5608 17.9878 21.313 18.0371C21.0652 18.0864 20.8084 18.0611 20.575 17.9644C20.3416 17.8677 20.1421 17.704 20.0018 17.494C19.8614 17.2839 19.7865 17.037 19.7865 16.7843C19.7869 16.4457 19.9216 16.121 20.161 15.8816C20.4005 15.6421 20.7252 15.5074 21.0638 15.507ZM7.0783 15.507C7.33092 15.507 7.57787 15.582 7.78791 15.7223C7.99796 15.8627 8.16166 16.0622 8.25833 16.2956C8.355 16.529 8.38029 16.7858 8.331 17.0335C8.28171 17.2813 8.16005 17.5089 7.98141 17.6875C7.80278 17.8662 7.57519 17.9878 7.32742 18.0371C7.07964 18.0864 6.82282 18.0611 6.58943 17.9644C6.35604 17.8677 6.15655 17.704 6.0162 17.4939C5.87585 17.2839 5.80095 17.0369 5.80095 16.7843C5.80133 16.4457 5.93604 16.121 6.17551 15.8815C6.41497 15.6421 6.73965 15.5074 7.0783 15.507ZM0.667568 9.40393H1.89648C1.95032 9.40404 2.00192 9.42547 2.03999 9.46354C2.07806 9.50161 2.09949 9.55322 2.0996 9.60706V14.323C2.09949 14.3768 2.07806 14.4284 2.03999 14.4665C2.00192 14.5045 1.95032 14.526 1.89648 14.5261H0.667568C0.613726 14.526 0.562115 14.5046 0.524042 14.4665C0.485968 14.4284 0.464539 14.3768 0.464443 14.323V9.60726C0.464483 9.55338 0.485891 9.50172 0.52397 9.4636C0.56205 9.42548 0.613691 9.40402 0.667568 9.40393ZM11.1153 6.84715H16.1087C16.1757 6.84711 16.2408 6.86931 16.2939 6.91027C16.3469 6.95123 16.3849 7.00863 16.4018 7.07348C16.5884 7.7902 17.0235 9.46172 17.2537 10.3447C17.2653 10.3895 17.2666 10.4364 17.2573 10.4817C17.248 10.5271 17.2285 10.5697 17.2001 10.6063C17.1718 10.6429 17.1355 10.6725 17.0939 10.6929C17.0523 10.7133 17.0067 10.7239 16.9604 10.7238H11.1155C11.0351 10.7238 10.9581 10.6918 10.9013 10.635C10.8444 10.5782 10.8125 10.5012 10.8124 10.4208V7.15005C10.8125 7.06976 10.8445 6.99278 10.9012 6.936C10.958 6.87922 11.035 6.84727 11.1153 6.84715ZM4.05996 16.7843C4.05995 17.3813 4.23696 17.9649 4.56861 18.4612C4.90027 18.9576 5.37166 19.3445 5.92319 19.5729C6.47472 19.8014 7.08161 19.8612 7.66711 19.7447C8.25261 19.6283 8.79044 19.3408 9.21256 18.9187C9.63469 18.4966 9.92216 17.9587 10.0386 17.3732C10.1551 16.7877 10.0953 16.1809 9.86688 15.6293C9.63843 15.0778 9.25156 14.6064 8.7552 14.2747C8.25883 13.9431 7.67527 13.766 7.0783 13.766C6.27805 13.7669 5.51081 14.0851 4.94495 14.651C4.37908 15.2168 4.06081 15.9841 4.05996 16.7843ZM5.49626 16.7843C5.49625 16.4714 5.58902 16.1655 5.76285 15.9054C5.93668 15.6452 6.18376 15.4424 6.47284 15.3227C6.76192 15.2029 7.08002 15.1716 7.38691 15.2326C7.69379 15.2937 7.97569 15.4443 8.19695 15.6656C8.41821 15.8868 8.56888 16.1687 8.62993 16.4756C8.69098 16.7825 8.65965 17.1006 8.53991 17.3897C8.42017 17.6788 8.2174 17.9258 7.95724 18.0997C7.69707 18.2735 7.3912 18.3663 7.0783 18.3663C6.65887 18.3658 6.25675 18.199 5.96016 17.9024C5.66358 17.6059 5.49674 17.2038 5.49626 16.7843ZM18.0455 16.7843C18.0455 17.3813 18.2225 17.9648 18.5542 18.4612C18.8858 18.9575 19.3572 19.3444 19.9088 19.5729C20.4603 19.8013 21.0672 19.8611 21.6526 19.7446C22.2381 19.6282 22.7759 19.3407 23.1981 18.9186C23.6202 18.4965 23.9076 17.9587 24.0241 17.3732C24.1406 16.7877 24.0808 16.1808 23.8523 15.6293C23.6239 15.0778 23.237 14.6064 22.7407 14.2747C22.2443 13.9431 21.6608 13.766 21.0638 13.766C20.2636 13.7669 19.4963 14.0852 18.9305 14.651C18.3646 15.2169 18.0464 15.9841 18.0455 16.7843ZM19.4818 16.7843C19.4818 16.4714 19.5746 16.1656 19.7484 15.9054C19.9223 15.6453 20.1693 15.4425 20.4584 15.3228C20.7475 15.203 21.0656 15.1717 21.3724 15.2327C21.6793 15.2938 21.9612 15.4444 22.1824 15.6657C22.4037 15.8869 22.5544 16.1688 22.6154 16.4757C22.6764 16.7826 22.6451 17.1007 22.5254 17.3897C22.4056 17.6788 22.2029 17.9259 21.9427 18.0997C21.6826 18.2735 21.3767 18.3663 21.0638 18.3663C20.6444 18.3658 20.2423 18.199 19.9457 17.9024C19.6491 17.6059 19.4823 17.2037 19.4818 16.7843Z" fill="#232323"/>
</g>
<defs>
<clipPath id="clip0_245_961">
<rect width="26" height="26" fill="white" transform="matrix(-1 0 0 1 26 0)"/>
</clipPath>
</defs>
</svg>
