<svg width="16" height="16" viewBox="0 0 16 16" fill="none" xmlns="http://www.w3.org/2000/svg">
<g clip-path="url(#clip0_245_1412)">
<path fill-rule="evenodd" clip-rule="evenodd" d="M8.00337 0.400391C3.8153 0.400391 0.399999 3.81031 0.399994 7.99837C0.399983 12.1864 3.81529 15.6004 8.00337 15.6004C12.1914 15.6004 15.6 12.1864 15.6 7.99837C15.6 3.81031 12.1914 0.400391 8.00337 0.400391ZM7.99257 3.15385C8.37406 3.14934 8.68697 3.45495 8.69148 3.83644C8.69156 3.84365 8.69153 3.85086 8.69139 3.85806V7.30899H12.1423C12.5242 7.30899 12.8337 7.61854 12.8337 8.00039C12.8337 8.38224 12.5242 8.69179 12.1423 8.69179H8.00337C7.62186 8.69399 7.3108 8.3865 7.3086 8.00499C7.30859 8.00278 7.30859 8.00057 7.30859 7.99837V3.85806C7.30116 3.47662 7.60436 3.16138 7.9858 3.15395C7.98806 3.1539 7.99032 3.15387 7.99257 3.15385Z" fill="#595959"/>
</g>
<defs>
<clipPath id="clip0_245_1412">
<rect width="16" height="16" fill="white"/>
</clipPath>
</defs>
</svg>
